{"glyphs":{"0":{"ha":868,"x_min":56,"x_max":821,"o":"m 471 994 q 670 927 592 994 q 785 754 749 860 q 821 531 821 649 q 819 489 821 503 q 764 249 814 367 q 624 54 714 131 q 411 -22 533 -22 q 206 44 286 -22 q 91 214 126 110 q 56 439 56 318 q 57 482 56 468 q 115 723 64 604 q 257 918 165 842 q 471 994 349 994 m 463 900 q 322 792 369 900 q 265 511 275 683 q 263 417 263 450 q 425 72 263 72 q 611 460 593 72 q 614 571 614 497 q 580 811 614 722 q 463 900 546 900 z "},"1":{"ha":551,"x_min":24,"x_max":486,"o":"m 394 228 q 382 103 390 149 q 486 107 426 107 l 481 0 l 86 0 l 90 92 q 148 101 128 93 q 181 133 168 108 q 196 213 193 158 l 225 769 l 68 679 l 24 763 l 350 994 l 435 994 l 394 228 z "},"2":{"ha":725,"x_min":26,"x_max":681,"o":"m 382 994 q 593 935 506 994 q 681 749 681 875 q 655 642 681 694 q 558 515 629 589 q 353 336 488 442 q 239 227 281 279 q 188 143 197 175 l 460 136 q 539 153 511 133 q 569 226 567 172 l 657 226 l 635 0 l 26 0 q 64 160 31 90 q 142 278 97 229 q 263 393 188 326 q 422 571 374 490 q 469 732 469 651 q 440 849 469 803 q 344 896 411 896 q 276 879 308 896 q 228 838 244 863 q 245 804 239 824 q 251 768 251 785 q 226 706 251 735 q 153 676 201 676 q 90 703 113 676 q 68 771 68 731 q 106 868 68 815 q 216 958 144 921 q 382 994 288 994 z "},"3":{"ha":758,"x_min":29,"x_max":703,"o":"m 385 994 q 605 935 525 994 q 678 749 685 876 q 652 664 675 708 q 581 583 629 619 q 461 531 533 546 l 461 529 q 642 441 582 507 q 703 285 703 375 q 597 58 703 139 q 318 -22 490 -22 q 157 6 222 -22 q 60 79 92 35 q 29 174 29 124 q 58 253 29 219 q 131 288 86 288 q 195 260 175 288 q 214 199 215 232 q 206 166 213 183 q 189 135 200 149 q 236 94 201 110 q 311 79 271 79 q 447 135 399 79 q 496 279 496 192 q 450 413 496 358 q 301 465 404 467 q 229 461 279 465 l 233 561 q 275 560 249 560 q 419 607 365 560 q 478 733 472 654 l 479 758 q 449 860 479 824 q 357 897 419 897 q 290 880 321 897 q 244 839 258 863 q 260 806 256 825 q 263 771 264 786 q 238 711 261 740 q 169 682 214 682 q 105 708 128 682 q 82 775 82 733 q 117 872 82 819 q 222 959 153 924 q 385 994 290 994 z "},"4":{"ha":740,"x_min":0,"x_max":699,"o":"m 563 376 l 699 376 l 692 251 l 556 251 l 556 228 q 543 103 550 133 q 647 107 589 107 l 642 0 l 250 0 l 254 92 q 312 101 292 93 q 344 133 332 108 q 360 213 357 158 l 361 251 l 0 251 l 7 382 l 511 994 l 596 994 l 563 376 m 386 686 l 385 686 l 135 381 l 368 379 l 386 686 z "},"5":{"ha":735,"x_min":40,"x_max":697,"o":"m 650 838 l 214 829 l 201 582 q 283 606 235 596 q 372 615 332 615 q 556 573 482 615 q 663 460 629 531 q 693 303 697 389 q 633 126 688 200 q 495 15 579 53 q 318 -22 411 -22 q 170 5 233 -22 q 74 74 107 32 q 40 163 40 117 q 70 240 40 207 q 144 274 100 274 q 208 246 189 274 q 226 185 228 218 q 207 128 224 151 q 248 91 215 106 q 313 76 281 76 q 433 135 390 76 q 479 274 475 193 q 481 311 481 285 q 447 454 481 394 q 322 514 414 514 q 244 501 289 514 q 153 463 199 489 l 96 508 l 115 972 l 475 972 q 555 990 528 972 q 585 1063 582 1008 l 672 1063 l 650 838 z "},"6":{"ha":778,"x_min":56,"x_max":726,"o":"m 463 994 q 599 968 543 994 q 681 901 654 942 q 707 815 707 860 q 682 742 707 774 q 614 710 657 710 q 546 736 567 710 q 526 797 525 763 q 550 858 531 836 q 517 886 540 875 q 465 897 494 897 q 321 790 371 897 q 261 542 271 682 q 345 595 286 571 q 456 619 404 619 q 661 533 596 619 q 718 299 726 446 q 666 138 714 211 q 539 21 618 64 q 364 -22 460 -22 q 128 79 200 -22 q 56 374 56 181 q 58 447 56 397 q 101 678 63 551 q 230 899 140 804 q 463 994 319 994 m 397 508 q 315 482 354 508 q 254 417 276 456 q 253 371 253 403 q 282 165 253 254 q 376 75 311 75 q 474 128 443 75 q 510 264 506 181 l 511 307 q 487 449 511 389 q 397 508 463 508 z "},"7":{"ha":639,"x_min":35,"x_max":649,"o":"m 642 846 q 507 549 558 690 q 383 168 456 408 l 358 83 q 254 -22 326 -22 q 195 0 214 -22 q 176 54 176 22 q 195 134 176 85 q 287 338 214 183 q 476 732 360 492 l 525 832 l 232 835 q 153 814 182 836 q 122 736 125 792 l 35 736 l 58 972 l 649 972 l 642 846 z "},"8":{"ha":781,"x_min":61,"x_max":721,"o":"m 432 994 q 567 968 504 994 q 669 890 631 942 q 707 769 707 839 q 653 635 707 700 q 529 531 600 571 l 529 529 q 721 251 721 407 q 672 99 721 161 q 540 8 622 38 q 363 -22 458 -22 q 222 0 292 -22 q 107 74 153 22 q 61 206 61 125 q 119 359 61 285 q 258 478 178 433 l 258 479 q 138 600 175 533 q 103 729 100 667 q 158 875 107 815 q 282 965 208 935 q 432 994 356 994 m 438 897 q 338 858 376 897 q 299 761 299 818 q 340 660 299 710 q 442 586 382 610 q 519 666 486 618 q 556 753 551 714 q 527 858 561 819 q 438 897 493 897 m 350 429 q 267 333 297 389 q 232 233 236 278 q 231 215 231 226 q 271 115 231 154 q 372 75 311 75 q 479 116 439 75 q 519 217 519 157 q 350 429 519 343 z "},"9":{"ha":779,"x_min":68,"x_max":731,"o":"m 418 994 q 656 885 582 994 q 731 583 731 775 q 729 525 731 544 q 629 145 719 313 q 324 -22 539 -22 q 140 26 200 -22 q 81 149 81 75 q 107 227 81 192 q 176 263 133 263 q 243 236 224 263 q 261 175 263 210 q 253 143 260 161 q 238 115 247 125 q 270 88 247 99 q 322 76 293 76 q 474 181 421 76 q 528 432 526 285 q 444 378 501 403 q 338 353 388 353 q 135 433 203 353 q 68 647 68 514 q 112 826 68 747 q 235 950 156 906 q 418 994 315 994 m 411 897 q 317 842 351 897 q 279 708 282 786 q 278 664 278 696 q 303 523 278 582 q 393 464 328 464 q 474 490 435 464 q 533 556 513 517 q 536 632 536 608 q 507 825 536 753 q 411 897 478 897 z "},"\u0000":{"ha":0,"x_min":0,"x_max":0,"o":""},"\r":{"ha":365,"x_min":0,"x_max":0,"o":""}," ":{"ha":365,"x_min":0,"x_max":0,"o":""},"A":{"ha":926,"x_min":-17,"x_max":901,"o":"m 790 240 q 822 103 819 143 q 901 107 867 107 l 897 0 l 525 0 l 531 92 q 601 151 601 92 q 589 214 601 171 l 565 290 l 261 285 l 235 219 q 185 107 204 143 q 288 111 231 111 l 281 0 l -17 0 l -11 96 q 49 117 25 96 q 90 167 74 138 q 131 254 106 196 l 440 997 l 533 997 l 790 240 m 436 753 q 372 569 425 699 l 301 389 l 535 389 l 481 563 q 438 753 444 685 l 436 753 z "},"Á":{"ha":926,"x_min":-17,"x_max":901,"o":"m 790 240 q 822 103 819 143 q 901 107 867 107 l 897 0 l 525 0 l 531 92 q 601 151 601 92 q 589 214 601 171 l 565 290 l 261 285 l 235 219 q 185 107 204 143 q 288 111 231 111 l 281 0 l -17 0 l -11 96 q 49 117 25 96 q 90 167 74 138 q 131 254 106 196 l 440 997 l 533 997 l 790 240 m 436 753 q 372 569 425 699 l 301 389 l 535 389 l 481 563 q 438 753 444 685 l 436 753 m 390 1136 l 560 1300 q 599 1327 578 1317 q 642 1338 621 1338 q 694 1310 676 1338 q 707 1271 707 1292 q 690 1224 707 1247 q 646 1186 672 1201 l 438 1069 l 390 1136 z "},"Ă":{"ha":926,"x_min":-17,"x_max":901,"o":"m 503 1093 q 372 1139 433 1093 q 276 1278 310 1185 l 351 1318 q 510 1215 418 1215 q 664 1318 601 1215 l 735 1285 q 638 1140 696 1186 q 503 1093 581 1093 m 790 240 q 822 103 819 143 q 901 107 867 107 l 897 0 l 525 0 l 531 92 q 601 151 601 92 q 589 214 601 171 l 565 290 l 261 285 l 235 219 q 185 107 204 143 q 288 111 231 111 l 281 0 l -17 0 l -11 96 q 49 117 25 96 q 90 167 74 138 q 131 254 106 196 l 440 997 l 533 997 l 790 240 m 436 753 q 372 569 425 699 l 301 389 l 535 389 l 481 563 q 438 753 444 685 l 436 753 z "},"Ắ":{"ha":926,"x_min":-17,"x_max":901,"o":"m 444 1275 l 547 1435 q 578 1466 560 1454 q 617 1478 597 1478 q 656 1463 640 1478 q 675 1418 675 1444 q 666 1381 675 1400 q 642 1350 657 1363 l 496 1228 l 444 1275 m 488 1054 q 367 1092 425 1054 q 279 1207 310 1131 l 347 1240 q 411 1179 376 1203 q 493 1156 446 1156 q 636 1240 575 1156 l 700 1213 q 611 1092 664 1131 q 488 1054 558 1054 m 790 240 q 822 103 819 143 q 901 107 867 107 l 897 0 l 525 0 l 531 92 q 601 151 601 92 q 589 214 601 171 l 565 290 l 261 285 l 235 219 q 185 107 204 143 q 288 111 231 111 l 281 0 l -17 0 l -11 96 q 49 117 25 96 q 90 167 74 138 q 131 254 106 196 l 440 997 l 533 997 l 790 240 m 436 753 q 372 569 425 699 l 301 389 l 535 389 l 481 563 q 438 753 444 685 l 436 753 z "},"Ặ":{"ha":926,"x_min":-17,"x_max":901,"o":"m 790 240 q 822 103 819 143 q 901 107 867 107 l 897 0 l 525 0 l 531 92 q 601 151 601 92 q 589 214 601 171 l 565 290 l 261 285 l 235 219 q 185 107 204 143 q 288 111 231 111 l 281 0 l -17 0 l -11 96 q 49 117 25 96 q 90 167 74 138 q 131 254 106 196 l 440 997 l 533 997 l 790 240 m 436 753 q 372 569 425 699 l 301 389 l 535 389 l 481 563 q 438 753 444 685 l 436 753 m 440 -96 q 496 -120 474 -96 q 518 -181 518 -144 q 494 -247 518 -219 q 432 -275 469 -275 q 374 -251 396 -275 q 351 -192 351 -226 q 378 -124 351 -153 q 440 -96 406 -96 m 488 1054 q 367 1092 425 1054 q 279 1207 310 1131 l 347 1240 q 411 1179 376 1203 q 493 1156 446 1156 q 636 1240 575 1156 l 700 1213 q 611 1092 664 1131 q 488 1054 558 1054 z "},"Ằ":{"ha":926,"x_min":-17,"x_max":901,"o":"m 367 1358 q 338 1424 338 1390 q 360 1471 338 1450 q 400 1485 379 1485 q 435 1474 418 1485 q 463 1443 451 1463 l 553 1283 l 497 1236 l 367 1358 m 488 1054 q 367 1092 425 1054 q 279 1207 310 1131 l 347 1240 q 411 1179 376 1203 q 493 1156 446 1156 q 636 1240 575 1156 l 700 1213 q 611 1092 664 1131 q 488 1054 558 1054 m 790 240 q 822 103 819 143 q 901 107 867 107 l 897 0 l 525 0 l 531 92 q 601 151 601 92 q 589 214 601 171 l 565 290 l 261 285 l 235 219 q 185 107 204 143 q 288 111 231 111 l 281 0 l -17 0 l -11 96 q 49 117 25 96 q 90 167 74 138 q 131 254 106 196 l 440 997 l 533 997 l 790 240 m 436 753 q 372 569 425 699 l 301 389 l 535 389 l 481 563 q 438 753 444 685 l 436 753 z "},"Ẳ":{"ha":926,"x_min":-17,"x_max":901,"o":"m 546 1494 q 647 1469 611 1494 q 683 1399 683 1444 q 681 1371 683 1390 q 662 1333 676 1347 q 621 1301 647 1318 q 591 1279 601 1289 q 578 1257 581 1269 l 494 1257 q 508 1284 499 1274 q 539 1310 518 1294 q 574 1341 563 1326 q 586 1381 586 1356 q 532 1419 586 1419 q 488 1410 500 1419 q 469 1385 475 1401 q 476 1369 476 1379 l 475 1358 q 459 1338 472 1346 q 419 1329 446 1329 q 379 1365 379 1329 q 381 1381 379 1375 q 431 1460 390 1425 q 546 1494 472 1494 m 488 1054 q 367 1092 425 1054 q 279 1207 310 1131 l 347 1240 q 411 1179 376 1203 q 493 1156 446 1156 q 636 1240 575 1156 l 700 1213 q 611 1092 664 1131 q 488 1054 558 1054 m 790 240 q 822 103 819 143 q 901 107 867 107 l 897 0 l 525 0 l 531 92 q 601 151 601 92 q 589 214 601 171 l 565 290 l 261 285 l 235 219 q 185 107 204 143 q 288 111 231 111 l 281 0 l -17 0 l -11 96 q 49 117 25 96 q 90 167 74 138 q 131 254 106 196 l 440 997 l 533 997 l 790 240 m 436 753 q 372 569 425 699 l 301 389 l 535 389 l 481 563 q 438 753 444 685 l 436 753 z "},"Ẵ":{"ha":926,"x_min":-17,"x_max":901,"o":"m 292 1321 q 347 1402 308 1371 q 424 1433 385 1433 q 467 1427 449 1433 q 503 1408 485 1421 q 534 1394 522 1399 q 563 1389 546 1389 q 602 1405 583 1389 q 636 1449 621 1421 l 697 1415 q 639 1317 676 1349 q 563 1285 601 1285 q 483 1310 528 1285 q 454 1323 469 1317 q 425 1329 439 1329 q 388 1318 408 1329 q 351 1282 368 1307 l 292 1321 m 488 1054 q 367 1092 425 1054 q 279 1207 310 1131 l 347 1240 q 411 1179 376 1203 q 493 1156 446 1156 q 636 1240 575 1156 l 700 1213 q 611 1092 664 1131 q 488 1054 558 1054 m 790 240 q 822 103 819 143 q 901 107 867 107 l 897 0 l 525 0 l 531 92 q 601 151 601 92 q 589 214 601 171 l 565 290 l 261 285 l 235 219 q 185 107 204 143 q 288 111 231 111 l 281 0 l -17 0 l -11 96 q 49 117 25 96 q 90 167 74 138 q 131 254 106 196 l 440 997 l 533 997 l 790 240 m 436 753 q 372 569 425 699 l 301 389 l 535 389 l 481 563 q 438 753 444 685 l 436 753 z "},"Â":{"ha":926,"x_min":-17,"x_max":901,"o":"m 790 240 q 822 103 819 143 q 901 107 867 107 l 897 0 l 525 0 l 531 92 q 601 151 601 92 q 589 214 601 171 l 565 290 l 261 285 l 235 219 q 185 107 204 143 q 288 111 231 111 l 281 0 l -17 0 l -11 96 q 49 117 25 96 q 90 167 74 138 q 131 254 106 196 l 440 997 l 533 997 l 790 240 m 436 753 q 372 569 425 699 l 301 389 l 535 389 l 481 563 q 438 753 444 685 l 436 753 m 743 1082 l 494 1204 l 226 1085 l 200 1140 l 494 1349 l 521 1349 l 782 1140 l 743 1082 z "},"Ấ":{"ha":926,"x_min":-17,"x_max":901,"o":"m 639 1256 l 742 1415 q 773 1447 754 1435 q 811 1458 792 1458 q 850 1443 835 1458 q 869 1399 869 1425 q 860 1362 869 1381 q 836 1331 851 1343 l 690 1208 l 639 1256 m 650 1056 l 481 1139 l 299 1057 l 260 1121 l 481 1268 l 499 1268 l 699 1128 l 650 1056 m 790 240 q 822 103 819 143 q 901 107 867 107 l 897 0 l 525 0 l 531 92 q 601 151 601 92 q 589 214 601 171 l 565 290 l 261 285 l 235 219 q 185 107 204 143 q 288 111 231 111 l 281 0 l -17 0 l -11 96 q 49 117 25 96 q 90 167 74 138 q 131 254 106 196 l 440 997 l 533 997 l 790 240 m 436 753 q 372 569 425 699 l 301 389 l 535 389 l 481 563 q 438 753 444 685 l 436 753 z "},"Ậ":{"ha":926,"x_min":-17,"x_max":901,"o":"m 790 240 q 822 103 819 143 q 901 107 867 107 l 897 0 l 525 0 l 531 92 q 601 151 601 92 q 589 214 601 171 l 565 290 l 261 285 l 235 219 q 185 107 204 143 q 288 111 231 111 l 281 0 l -17 0 l -11 96 q 49 117 25 96 q 90 167 74 138 q 131 254 106 196 l 440 997 l 533 997 l 790 240 m 436 753 q 372 569 425 699 l 301 389 l 535 389 l 481 563 q 438 753 444 685 l 436 753 m 440 -96 q 496 -120 474 -96 q 518 -181 518 -144 q 494 -247 518 -219 q 432 -275 469 -275 q 374 -251 396 -275 q 351 -192 351 -226 q 378 -124 351 -153 q 440 -96 406 -96 m 650 1056 l 481 1139 l 299 1057 l 260 1121 l 481 1268 l 499 1268 l 699 1128 l 650 1056 z "},"Ầ":{"ha":926,"x_min":-17,"x_max":901,"o":"m 514 1356 q 485 1421 485 1388 q 507 1468 485 1447 q 547 1482 526 1482 q 582 1471 565 1482 q 610 1440 599 1460 l 700 1281 l 644 1233 l 514 1356 m 650 1056 l 481 1139 l 299 1057 l 260 1121 l 481 1268 l 499 1268 l 699 1128 l 650 1056 m 790 240 q 822 103 819 143 q 901 107 867 107 l 897 0 l 525 0 l 531 92 q 601 151 601 92 q 589 214 601 171 l 565 290 l 261 285 l 235 219 q 185 107 204 143 q 288 111 231 111 l 281 0 l -17 0 l -11 96 q 49 117 25 96 q 90 167 74 138 q 131 254 106 196 l 440 997 l 533 997 l 790 240 m 436 753 q 372 569 425 699 l 301 389 l 535 389 l 481 563 q 438 753 444 685 l 436 753 z "},"Ẩ":{"ha":926,"x_min":-17,"x_max":901,"o":"m 729 1438 q 820 1415 788 1438 q 853 1350 853 1393 q 850 1325 853 1342 q 833 1290 846 1304 q 796 1263 819 1276 q 768 1242 778 1250 q 757 1222 758 1233 l 682 1222 q 694 1247 685 1238 q 721 1269 704 1257 q 749 1293 739 1282 q 763 1321 760 1304 q 765 1336 765 1332 q 717 1369 765 1369 q 675 1361 686 1369 q 658 1338 664 1353 q 665 1327 664 1333 q 664 1314 665 1321 q 649 1295 661 1303 q 613 1288 636 1288 q 585 1296 593 1288 q 576 1321 576 1304 q 578 1335 576 1329 q 624 1406 586 1375 q 729 1438 663 1438 m 650 1056 l 481 1139 l 299 1057 l 260 1121 l 481 1268 l 499 1268 l 699 1128 l 650 1056 m 790 240 q 822 103 819 143 q 901 107 867 107 l 897 0 l 525 0 l 531 92 q 601 151 601 92 q 589 214 601 171 l 565 290 l 261 285 l 235 219 q 185 107 204 143 q 288 111 231 111 l 281 0 l -17 0 l -11 96 q 49 117 25 96 q 90 167 74 138 q 131 254 106 196 l 440 997 l 533 997 l 790 240 m 436 753 q 372 569 425 699 l 301 389 l 535 389 l 481 563 q 438 753 444 685 l 436 753 z "},"Ẫ":{"ha":926,"x_min":-17,"x_max":901,"o":"m 303 1307 q 358 1388 319 1357 q 435 1419 396 1419 q 478 1413 460 1419 q 514 1394 496 1407 q 545 1380 533 1385 q 574 1375 557 1375 q 613 1391 594 1375 q 647 1435 632 1407 l 708 1401 q 650 1303 688 1335 q 574 1271 613 1271 q 494 1296 539 1271 q 465 1309 481 1303 q 436 1315 450 1315 q 399 1304 419 1315 q 363 1268 379 1293 l 303 1307 m 650 1056 l 481 1139 l 299 1057 l 260 1121 l 481 1268 l 499 1268 l 699 1128 l 650 1056 m 790 240 q 822 103 819 143 q 901 107 867 107 l 897 0 l 525 0 l 531 92 q 601 151 601 92 q 589 214 601 171 l 565 290 l 261 285 l 235 219 q 185 107 204 143 q 288 111 231 111 l 281 0 l -17 0 l -11 96 q 49 117 25 96 q 90 167 74 138 q 131 254 106 196 l 440 997 l 533 997 l 790 240 m 436 753 q 372 569 425 699 l 301 389 l 535 389 l 481 563 q 438 753 444 685 l 436 753 z "},"Ä":{"ha":926,"x_min":-17,"x_max":901,"o":"m 790 240 q 822 103 819 143 q 901 107 867 107 l 897 0 l 525 0 l 531 92 q 601 151 601 92 q 589 214 601 171 l 565 290 l 261 285 l 235 219 q 185 107 204 143 q 288 111 231 111 l 281 0 l -17 0 l -11 96 q 49 117 25 96 q 90 167 74 138 q 131 254 106 196 l 440 997 l 533 997 l 790 240 m 436 753 q 372 569 425 699 l 301 389 l 535 389 l 481 563 q 438 753 444 685 l 436 753 m 367 1107 q 308 1135 332 1107 q 283 1206 283 1164 q 313 1285 283 1251 q 381 1318 342 1318 q 440 1290 417 1318 q 463 1219 463 1261 q 435 1140 463 1174 q 367 1107 407 1107 m 610 1107 q 550 1135 574 1107 q 526 1206 526 1164 q 555 1285 526 1251 q 622 1318 583 1318 q 681 1290 658 1318 q 704 1219 704 1261 q 676 1140 704 1174 q 610 1107 649 1107 z "},"Ạ":{"ha":926,"x_min":-17,"x_max":901,"o":"m 790 240 q 822 103 819 143 q 901 107 867 107 l 897 0 l 525 0 l 531 92 q 601 151 601 92 q 589 214 601 171 l 565 290 l 261 285 l 235 219 q 185 107 204 143 q 288 111 231 111 l 281 0 l -17 0 l -11 96 q 49 117 25 96 q 90 167 74 138 q 131 254 106 196 l 440 997 l 533 997 l 790 240 m 436 753 q 372 569 425 699 l 301 389 l 535 389 l 481 563 q 438 753 444 685 l 436 753 m 440 -96 q 496 -120 474 -96 q 518 -181 518 -144 q 494 -247 518 -219 q 432 -275 469 -275 q 374 -251 396 -275 q 351 -192 351 -226 q 378 -124 351 -153 q 440 -96 406 -96 z "},"À":{"ha":926,"x_min":-17,"x_max":901,"o":"m 790 240 q 822 103 819 143 q 901 107 867 107 l 897 0 l 525 0 l 531 92 q 601 151 601 92 q 589 214 601 171 l 565 290 l 261 285 l 235 219 q 185 107 204 143 q 288 111 231 111 l 281 0 l -17 0 l -11 96 q 49 117 25 96 q 90 167 74 138 q 131 254 106 196 l 440 997 l 533 997 l 790 240 m 436 753 q 372 569 425 699 l 301 389 l 535 389 l 481 563 q 438 753 444 685 l 436 753 m 353 1186 q 315 1222 329 1200 q 300 1267 300 1243 q 317 1310 300 1289 q 372 1338 339 1338 q 451 1300 414 1338 l 603 1138 l 549 1069 l 353 1186 z "},"Ả":{"ha":926,"x_min":-17,"x_max":901,"o":"m 790 240 q 822 103 819 143 q 901 107 867 107 l 897 0 l 525 0 l 531 92 q 601 151 601 92 q 589 214 601 171 l 565 290 l 261 285 l 235 219 q 185 107 204 143 q 288 111 231 111 l 281 0 l -17 0 l -11 96 q 49 117 25 96 q 90 167 74 138 q 131 254 106 196 l 440 997 l 533 997 l 790 240 m 436 753 q 372 569 425 699 l 301 389 l 535 389 l 481 563 q 438 753 444 685 l 436 753 m 518 1315 q 628 1288 589 1315 q 668 1210 668 1260 q 665 1179 668 1190 q 644 1138 660 1154 q 600 1103 629 1122 q 567 1078 578 1088 q 553 1054 556 1068 l 461 1054 q 477 1085 465 1072 q 510 1113 489 1097 q 550 1148 538 1132 q 563 1192 563 1164 q 503 1232 563 1232 q 453 1222 467 1232 q 433 1194 439 1211 q 440 1179 440 1189 q 439 1165 440 1171 q 422 1142 436 1151 q 378 1133 407 1133 q 335 1172 335 1133 q 336 1190 335 1183 q 392 1276 346 1238 q 518 1315 438 1315 z "},"Ā":{"ha":926,"x_min":-17,"x_max":901,"o":"m 790 240 q 822 103 819 143 q 901 107 867 107 l 897 0 l 525 0 l 531 92 q 601 151 601 92 q 589 214 601 171 l 565 290 l 261 285 l 235 219 q 185 107 204 143 q 288 111 231 111 l 281 0 l -17 0 l -11 96 q 49 117 25 96 q 90 167 74 138 q 131 254 106 196 l 440 997 l 533 997 l 790 240 m 436 753 q 372 569 425 699 l 301 389 l 535 389 l 481 563 q 438 753 444 685 l 436 753 m 281 1151 l 286 1281 l 681 1281 l 675 1156 l 281 1151 z "},"Ą":{"ha":926,"x_min":-17,"x_max":901,"o":"m 818 0 q 699 -80 747 -31 q 650 -182 650 -129 q 665 -220 650 -206 q 707 -235 681 -235 q 796 -194 749 -235 l 842 -254 q 751 -332 801 -303 q 653 -361 701 -361 q 552 -327 590 -361 q 514 -231 514 -293 q 551 -108 514 -167 q 656 0 589 -50 l 525 0 l 531 92 q 601 151 601 92 q 589 214 601 171 l 565 290 l 261 285 l 235 219 q 185 107 204 143 q 288 111 231 111 l 281 0 l -17 0 l -11 96 q 49 117 25 96 q 90 167 74 138 q 131 254 106 196 l 440 997 l 533 997 l 790 240 q 822 103 819 143 q 901 107 867 107 l 897 0 l 818 0 m 535 389 l 481 563 q 438 753 444 685 l 436 753 q 372 569 425 699 l 301 389 l 535 389 z "},"Å":{"ha":926,"x_min":-17,"x_max":901,"o":"m 790 240 q 822 103 819 143 q 901 107 867 107 l 897 0 l 525 0 l 531 92 q 601 151 601 92 q 589 214 601 171 l 565 290 l 261 285 l 235 219 q 185 107 204 143 q 288 111 231 111 l 281 0 l -17 0 l -11 96 q 49 117 25 96 q 90 167 74 138 q 131 254 106 196 l 440 997 l 533 997 l 790 240 m 436 753 q 372 569 425 699 l 301 389 l 535 389 l 481 563 q 438 753 444 685 l 436 753 m 494 1043 q 365 1088 421 1043 q 308 1218 308 1133 q 335 1310 308 1269 q 406 1374 363 1351 q 493 1397 449 1397 q 582 1378 539 1397 q 652 1318 625 1358 q 679 1221 679 1278 q 652 1126 679 1167 q 582 1065 625 1086 q 494 1043 539 1043 m 499 1114 q 541 1138 524 1114 q 558 1204 558 1161 q 541 1295 558 1263 q 493 1328 524 1328 q 445 1298 461 1328 q 429 1229 429 1268 q 448 1144 429 1175 q 499 1114 467 1114 z "},"Ã":{"ha":926,"x_min":-17,"x_max":901,"o":"m 790 240 q 822 103 819 143 q 901 107 867 107 l 897 0 l 525 0 l 531 92 q 601 151 601 92 q 589 214 601 171 l 565 290 l 261 285 l 235 219 q 185 107 204 143 q 288 111 231 111 l 281 0 l -17 0 l -11 96 q 49 117 25 96 q 90 167 74 138 q 131 254 106 196 l 440 997 l 533 997 l 790 240 m 436 753 q 372 569 425 699 l 301 389 l 535 389 l 481 563 q 438 753 444 685 l 436 753 m 396 1178 q 331 1163 364 1178 q 272 1110 297 1147 l 201 1154 q 283 1264 231 1226 q 390 1301 336 1301 q 448 1292 422 1301 q 506 1264 474 1282 q 553 1240 535 1247 q 594 1232 572 1232 q 659 1256 624 1232 q 714 1318 694 1281 l 786 1281 q 703 1146 753 1183 q 601 1108 654 1108 q 547 1117 572 1108 q 492 1144 522 1126 q 442 1169 463 1161 q 396 1178 421 1178 z "},"Æ":{"ha":1293,"x_min":-33,"x_max":1231,"o":"m 1213 703 l 1121 703 q 1079 845 1126 806 q 961 882 1032 885 l 911 881 q 858 872 878 879 q 827 838 839 864 q 813 760 815 813 l 801 551 l 965 551 q 965 601 964 579 q 965 636 965 622 l 965 672 l 1072 672 l 1054 335 l 963 335 q 950 417 965 390 q 907 451 935 443 q 833 457 879 458 l 796 456 l 785 228 q 772 106 779 138 l 958 106 q 1081 153 1029 106 q 1139 306 1133 201 l 1231 306 l 1206 0 l 476 0 l 481 92 q 538 101 518 93 q 571 133 558 108 q 586 213 583 158 l 589 288 q 457 285 549 288 l 318 281 l 265 210 q 214 144 235 169 q 172 104 193 119 l 172 103 l 283 107 l 278 0 l -33 0 l -29 92 q 51 128 14 92 q 144 238 89 165 l 626 868 l 626 869 l 521 865 l 526 972 l 1218 972 l 1213 703 m 617 696 q 570 624 592 654 q 511 544 549 593 l 390 383 l 594 383 l 618 696 l 617 696 z "},"B":{"ha":915,"x_min":49,"x_max":871,"o":"m 482 975 q 731 919 640 976 q 821 753 821 863 q 819 722 821 733 q 760 604 811 657 q 614 526 708 551 l 614 525 q 808 436 744 504 q 867 276 871 368 q 764 72 860 144 q 518 0 668 0 l 49 0 l 54 92 q 110 101 90 93 q 143 133 131 108 q 158 213 156 158 l 186 744 q 199 869 190 824 l 94 865 l 100 972 l 482 975 m 476 878 q 429 871 447 878 q 399 838 411 864 q 385 761 388 813 l 374 546 l 446 547 q 572 604 533 549 q 611 747 611 660 q 572 847 611 815 q 476 878 533 878 m 481 449 q 368 447 404 449 l 357 221 q 344 99 353 146 q 481 100 436 99 q 608 156 565 104 q 651 294 651 208 q 603 412 651 375 q 481 449 554 449 z "},"C":{"ha":958,"x_min":51,"x_max":932,"o":"m 567 994 q 685 976 622 994 q 801 926 749 958 l 803 926 l 801 985 l 908 985 l 892 661 l 800 661 q 731 839 788 778 q 578 900 675 900 q 409 836 479 900 q 303 672 339 772 q 268 460 268 571 q 342 188 268 292 q 547 83 415 83 q 723 126 635 83 q 878 256 811 169 l 932 200 q 723 26 835 74 q 503 -22 611 -22 q 265 39 368 -22 q 107 206 163 100 q 51 442 51 311 q 112 706 51 578 q 290 914 172 833 q 567 994 407 994 z "},"Ć":{"ha":958,"x_min":51,"x_max":932,"o":"m 567 994 q 685 976 622 994 q 801 926 749 958 l 803 926 l 801 985 l 908 985 l 892 661 l 800 661 q 731 839 788 778 q 578 900 675 900 q 409 836 479 900 q 303 672 339 772 q 268 460 268 571 q 342 188 268 292 q 547 83 415 83 q 723 126 635 83 q 878 256 811 169 l 932 200 q 723 26 835 74 q 503 -22 611 -22 q 265 39 368 -22 q 107 206 163 100 q 51 442 51 311 q 112 706 51 578 q 290 914 172 833 q 567 994 407 994 m 447 1119 l 571 1314 q 609 1351 586 1338 q 656 1365 632 1365 q 703 1347 683 1365 q 726 1293 726 1325 q 715 1248 726 1271 q 685 1210 704 1225 l 508 1063 l 447 1119 z "},"Č":{"ha":958,"x_min":51,"x_max":932,"o":"m 567 994 q 685 976 622 994 q 801 926 749 958 l 803 926 l 801 985 l 908 985 l 892 661 l 800 661 q 731 839 788 778 q 578 900 675 900 q 409 836 479 900 q 303 672 339 772 q 268 460 268 571 q 342 188 268 292 q 547 83 415 83 q 723 126 635 83 q 878 256 811 169 l 932 200 q 723 26 835 74 q 503 -22 611 -22 q 265 39 368 -22 q 107 206 163 100 q 51 442 51 311 q 112 706 51 578 q 290 914 172 833 q 567 994 407 994 m 596 1069 l 568 1069 l 308 1279 l 347 1336 l 597 1215 l 863 1336 l 890 1281 l 596 1069 z "},"Ç":{"ha":963,"x_min":53,"x_max":933,"o":"m 567 994 q 686 976 622 994 q 803 926 750 958 l 804 926 l 801 985 l 908 985 l 892 661 l 801 661 q 731 839 788 778 q 578 900 675 900 q 418 844 486 900 q 313 696 350 788 q 271 500 276 604 q 269 460 269 486 q 343 188 269 292 q 549 83 417 83 q 724 126 636 83 q 878 256 811 169 l 933 200 q 723 26 835 74 q 504 -22 611 -22 l 486 -22 l 456 -93 l 457 -93 q 501 -78 474 -85 q 549 -72 529 -72 q 623 -98 593 -72 q 653 -168 653 -124 q 597 -276 653 -231 q 465 -347 542 -321 q 322 -382 389 -372 l 315 -306 q 430 -267 369 -296 q 490 -201 490 -239 q 454 -168 490 -168 q 422 -174 439 -168 q 394 -189 406 -181 l 338 -168 l 383 -8 q 208 79 283 15 q 93 237 133 143 q 53 440 53 331 q 113 704 53 576 q 290 913 174 832 q 567 994 407 994 z "},"Ĉ":{"ha":958,"x_min":51,"x_max":932,"o":"m 567 994 q 685 976 622 994 q 801 926 749 958 l 803 926 l 801 985 l 908 985 l 892 661 l 800 661 q 731 839 788 778 q 578 900 675 900 q 409 836 479 900 q 303 672 339 772 q 268 460 268 571 q 342 188 268 292 q 547 83 415 83 q 723 126 635 83 q 878 256 811 169 l 932 200 q 723 26 835 74 q 503 -22 611 -22 q 265 39 368 -22 q 107 206 163 100 q 51 442 51 311 q 112 706 51 578 q 290 914 172 833 q 567 994 407 994 m 850 1082 l 601 1204 l 333 1085 l 307 1140 l 601 1349 l 628 1349 l 889 1140 l 850 1082 z "},"D":{"ha":1049,"x_min":49,"x_max":1004,"o":"m 501 974 q 783 910 669 974 q 950 742 896 846 q 1004 519 1004 638 q 944 276 1004 396 q 758 78 885 157 q 443 0 632 0 l 49 0 l 54 92 q 110 101 90 93 q 143 133 131 108 q 158 213 156 158 l 186 744 q 199 869 190 824 l 94 865 l 100 972 l 501 974 m 479 881 q 410 857 432 881 q 385 763 389 833 l 357 228 q 346 103 351 138 q 372 104 353 104 l 432 103 q 478 101 450 101 q 643 153 575 101 q 747 287 711 204 q 786 467 782 369 q 788 514 788 483 q 707 791 788 701 q 479 881 626 881 z "},"Ð":{"ha":1050,"x_min":33,"x_max":1006,"o":"m 503 974 q 784 910 671 974 q 951 742 897 846 q 1006 519 1006 638 q 946 276 1006 396 q 760 78 886 157 q 444 0 633 0 l 50 0 l 56 92 q 112 101 92 93 q 144 133 132 108 q 160 213 157 158 l 171 422 l 33 419 l 40 556 l 178 556 l 188 744 q 200 869 192 824 l 96 865 l 101 972 l 503 974 m 481 881 q 412 857 433 881 q 386 763 390 833 l 375 556 l 517 556 l 510 429 l 368 426 l 358 228 q 347 103 353 138 q 374 104 354 104 l 433 103 q 479 101 451 101 q 644 153 576 101 q 748 287 713 204 q 788 467 783 369 q 789 514 789 483 q 708 791 789 701 q 481 881 628 881 z "},"Ď":{"ha":1049,"x_min":49,"x_max":1004,"o":"m 501 974 q 783 910 669 974 q 950 742 896 846 q 1004 519 1004 638 q 944 276 1004 396 q 758 78 885 157 q 443 0 632 0 l 49 0 l 54 92 q 110 101 90 93 q 143 133 131 108 q 158 213 156 158 l 186 744 q 199 869 190 824 l 94 865 l 100 972 l 501 974 m 479 881 q 410 857 432 881 q 385 763 389 833 l 357 228 q 346 103 351 138 q 372 104 353 104 l 432 103 q 478 101 450 101 q 643 153 575 101 q 747 287 711 204 q 786 467 782 369 q 788 514 788 483 q 707 791 788 701 q 479 881 626 881 m 560 1069 l 532 1069 l 272 1279 l 311 1336 l 561 1215 l 826 1336 l 854 1281 l 560 1069 z "},"Đ":{"ha":1050,"x_min":33,"x_max":1006,"o":"m 503 974 q 784 910 671 974 q 951 742 897 846 q 1006 519 1006 638 q 946 276 1006 396 q 760 78 886 157 q 444 0 633 0 l 50 0 l 56 92 q 112 101 92 93 q 144 133 132 108 q 160 213 157 158 l 171 422 l 33 419 l 40 556 l 178 556 l 188 744 q 200 869 192 824 l 96 865 l 101 972 l 503 974 m 481 881 q 412 857 433 881 q 386 763 390 833 l 375 556 l 517 556 l 510 429 l 368 426 l 358 228 q 347 103 353 138 q 374 104 354 104 l 433 103 q 479 101 451 101 q 644 153 576 101 q 748 287 713 204 q 788 467 783 369 q 789 514 789 483 q 708 791 789 701 q 481 881 628 881 z "},"E":{"ha":865,"x_min":49,"x_max":803,"o":"m 785 703 l 694 703 q 651 845 699 806 q 535 882 604 885 l 485 881 q 431 872 451 879 q 399 838 411 864 q 385 760 388 811 l 375 551 l 538 551 l 538 672 l 644 672 l 628 335 l 536 335 q 523 417 539 390 q 479 451 507 443 q 406 457 451 458 l 369 456 l 357 228 q 346 106 353 142 l 532 106 q 654 153 603 106 q 711 306 706 201 l 803 306 l 779 0 l 49 0 l 54 92 q 110 101 90 93 q 143 133 131 108 q 158 213 156 158 l 186 744 q 199 869 190 824 l 94 865 l 100 972 l 792 972 l 785 703 z "},"É":{"ha":865,"x_min":49,"x_max":803,"o":"m 785 703 l 694 703 q 651 845 699 806 q 535 882 604 885 l 485 881 q 431 872 451 879 q 399 838 411 864 q 385 760 388 811 l 375 551 l 538 551 l 538 672 l 644 672 l 628 335 l 536 335 q 523 417 539 390 q 479 451 507 443 q 406 457 451 458 l 369 456 l 357 228 q 346 106 353 142 l 532 106 q 654 153 603 106 q 711 306 706 201 l 803 306 l 779 0 l 49 0 l 54 92 q 110 101 90 93 q 143 133 131 108 q 158 213 156 158 l 186 744 q 199 869 190 824 l 94 865 l 100 972 l 792 972 l 785 703 m 386 1136 l 556 1300 q 595 1327 574 1317 q 638 1338 617 1338 q 690 1310 672 1338 q 703 1271 703 1292 q 685 1224 703 1247 q 642 1186 668 1201 l 433 1069 l 386 1136 z "},"Ě":{"ha":865,"x_min":49,"x_max":803,"o":"m 785 703 l 694 703 q 651 845 699 806 q 535 882 604 885 l 485 881 q 431 872 451 879 q 399 838 411 864 q 385 760 388 811 l 375 551 l 538 551 l 538 672 l 644 672 l 628 335 l 536 335 q 523 417 539 390 q 479 451 507 443 q 406 457 451 458 l 369 456 l 357 228 q 346 106 353 142 l 532 106 q 654 153 603 106 q 711 306 706 201 l 803 306 l 779 0 l 49 0 l 54 92 q 110 101 90 93 q 143 133 131 108 q 158 213 156 158 l 186 744 q 199 869 190 824 l 94 865 l 100 972 l 792 972 l 785 703 m 485 1069 l 457 1069 l 197 1279 l 236 1336 l 486 1215 l 751 1336 l 779 1281 l 485 1069 z "},"Ê":{"ha":865,"x_min":49,"x_max":803,"o":"m 785 703 l 694 703 q 651 845 699 806 q 535 882 604 885 l 485 881 q 431 872 451 879 q 399 838 411 864 q 385 760 388 811 l 375 551 l 538 551 l 538 672 l 644 672 l 628 335 l 536 335 q 523 417 539 390 q 479 451 507 443 q 406 457 451 458 l 369 456 l 357 228 q 346 106 353 142 l 532 106 q 654 153 603 106 q 711 306 706 201 l 803 306 l 779 0 l 49 0 l 54 92 q 110 101 90 93 q 143 133 131 108 q 158 213 156 158 l 186 744 q 199 869 190 824 l 94 865 l 100 972 l 792 972 l 785 703 m 739 1082 l 490 1204 l 222 1085 l 196 1140 l 490 1349 l 517 1349 l 778 1140 l 739 1082 z "},"Ế":{"ha":865,"x_min":49,"x_max":865,"o":"m 635 1268 l 738 1428 q 769 1459 750 1447 q 807 1471 788 1471 q 846 1456 831 1471 q 865 1411 865 1438 q 856 1374 865 1393 q 832 1343 847 1356 l 686 1221 l 635 1268 m 646 1056 l 476 1139 l 294 1057 l 256 1121 l 476 1268 l 494 1268 l 694 1128 l 646 1056 m 785 703 l 694 703 q 651 845 699 806 q 535 882 604 885 l 485 881 q 431 872 451 879 q 399 838 411 864 q 385 760 388 811 l 375 551 l 538 551 l 538 672 l 644 672 l 628 335 l 536 335 q 523 417 539 390 q 479 451 507 443 q 406 457 451 458 l 369 456 l 357 228 q 346 106 353 142 l 532 106 q 654 153 603 106 q 711 306 706 201 l 803 306 l 779 0 l 49 0 l 54 92 q 110 101 90 93 q 143 133 131 108 q 158 213 156 158 l 186 744 q 199 869 190 824 l 94 865 l 100 972 l 792 972 l 785 703 z "},"Ệ":{"ha":865,"x_min":49,"x_max":803,"o":"m 785 703 l 694 703 q 651 845 699 806 q 535 882 604 885 l 485 881 q 431 872 451 879 q 399 838 411 864 q 385 760 388 811 l 375 551 l 538 551 l 538 672 l 644 672 l 628 335 l 536 335 q 523 417 539 390 q 479 451 507 443 q 406 457 451 458 l 369 456 l 357 228 q 346 106 353 142 l 532 106 q 654 153 603 106 q 711 306 706 201 l 803 306 l 779 0 l 49 0 l 54 92 q 110 101 90 93 q 143 133 131 108 q 158 213 156 158 l 186 744 q 199 869 190 824 l 94 865 l 100 972 l 792 972 l 785 703 m 472 -96 q 528 -120 506 -96 q 550 -181 550 -144 q 526 -247 550 -219 q 464 -275 501 -275 q 406 -251 428 -275 q 383 -192 383 -226 q 410 -124 383 -153 q 472 -96 438 -96 m 646 1056 l 476 1139 l 294 1057 l 256 1121 l 476 1268 l 494 1268 l 694 1128 l 646 1056 z "},"Ề":{"ha":865,"x_min":49,"x_max":803,"o":"m 510 1356 q 481 1421 481 1388 q 503 1468 481 1447 q 543 1482 522 1482 q 578 1471 561 1482 q 606 1440 594 1460 l 696 1281 l 640 1233 l 510 1356 m 646 1056 l 476 1139 l 294 1057 l 256 1121 l 476 1268 l 494 1268 l 694 1128 l 646 1056 m 785 703 l 694 703 q 651 845 699 806 q 535 882 604 885 l 485 881 q 431 872 451 879 q 399 838 411 864 q 385 760 388 811 l 375 551 l 538 551 l 538 672 l 644 672 l 628 335 l 536 335 q 523 417 539 390 q 479 451 507 443 q 406 457 451 458 l 369 456 l 357 228 q 346 106 353 142 l 532 106 q 654 153 603 106 q 711 306 706 201 l 803 306 l 779 0 l 49 0 l 54 92 q 110 101 90 93 q 143 133 131 108 q 158 213 156 158 l 186 744 q 199 869 190 824 l 94 865 l 100 972 l 792 972 l 785 703 z "},"Ể":{"ha":865,"x_min":49,"x_max":849,"o":"m 725 1438 q 816 1415 783 1438 q 849 1350 849 1393 q 846 1325 849 1342 q 828 1290 842 1304 q 792 1263 815 1276 q 764 1242 774 1250 q 753 1222 754 1233 l 678 1222 q 690 1247 681 1238 q 717 1269 700 1257 q 745 1293 735 1282 q 758 1321 756 1304 q 761 1336 761 1332 q 713 1369 761 1369 q 671 1361 682 1369 q 654 1338 660 1353 q 660 1327 660 1333 q 660 1314 661 1321 q 644 1295 657 1303 q 608 1288 632 1288 q 581 1296 589 1288 q 572 1321 572 1304 q 574 1335 572 1329 q 620 1406 582 1375 q 725 1438 658 1438 m 646 1056 l 476 1139 l 294 1057 l 256 1121 l 476 1268 l 494 1268 l 694 1128 l 646 1056 m 785 703 l 694 703 q 651 845 699 806 q 535 882 604 885 l 485 881 q 431 872 451 879 q 399 838 411 864 q 385 760 388 811 l 375 551 l 538 551 l 538 672 l 644 672 l 628 335 l 536 335 q 523 417 539 390 q 479 451 507 443 q 406 457 451 458 l 369 456 l 357 228 q 346 106 353 142 l 532 106 q 654 153 603 106 q 711 306 706 201 l 803 306 l 779 0 l 49 0 l 54 92 q 110 101 90 93 q 143 133 131 108 q 158 213 156 158 l 186 744 q 199 869 190 824 l 94 865 l 100 972 l 792 972 l 785 703 z "},"Ễ":{"ha":865,"x_min":49,"x_max":803,"o":"m 299 1307 q 353 1388 315 1357 q 431 1419 392 1419 q 474 1413 456 1419 q 510 1394 492 1407 q 541 1380 529 1385 q 569 1375 553 1375 q 609 1391 590 1375 q 643 1435 628 1407 l 704 1401 q 646 1303 683 1335 q 569 1271 608 1271 q 490 1296 535 1271 q 461 1309 476 1303 q 432 1315 446 1315 q 395 1304 415 1315 q 358 1268 375 1293 l 299 1307 m 646 1056 l 476 1139 l 294 1057 l 256 1121 l 476 1268 l 494 1268 l 694 1128 l 646 1056 m 785 703 l 694 703 q 651 845 699 806 q 535 882 604 885 l 485 881 q 431 872 451 879 q 399 838 411 864 q 385 760 388 811 l 375 551 l 538 551 l 538 672 l 644 672 l 628 335 l 536 335 q 523 417 539 390 q 479 451 507 443 q 406 457 451 458 l 369 456 l 357 228 q 346 106 353 142 l 532 106 q 654 153 603 106 q 711 306 706 201 l 803 306 l 779 0 l 49 0 l 54 92 q 110 101 90 93 q 143 133 131 108 q 158 213 156 158 l 186 744 q 199 869 190 824 l 94 865 l 100 972 l 792 972 l 785 703 z "},"Ë":{"ha":865,"x_min":49,"x_max":803,"o":"m 785 703 l 694 703 q 651 845 699 806 q 535 882 604 885 l 485 881 q 431 872 451 879 q 399 838 411 864 q 385 760 388 811 l 375 551 l 538 551 l 538 672 l 644 672 l 628 335 l 536 335 q 523 417 539 390 q 479 451 507 443 q 406 457 451 458 l 369 456 l 357 228 q 346 106 353 142 l 532 106 q 654 153 603 106 q 711 306 706 201 l 803 306 l 779 0 l 49 0 l 54 92 q 110 101 90 93 q 143 133 131 108 q 158 213 156 158 l 186 744 q 199 869 190 824 l 94 865 l 100 972 l 792 972 l 785 703 m 363 1107 q 303 1135 328 1107 q 279 1206 279 1164 q 308 1285 279 1251 q 376 1318 338 1318 q 435 1290 413 1318 q 458 1219 458 1261 q 431 1140 458 1174 q 363 1107 403 1107 m 606 1107 q 546 1135 569 1107 q 522 1206 522 1164 q 551 1285 522 1251 q 618 1318 579 1318 q 677 1290 654 1318 q 700 1219 700 1261 q 672 1140 700 1174 q 606 1107 644 1107 z "},"Ė":{"ha":865,"x_min":49,"x_max":803,"o":"m 785 703 l 694 703 q 651 845 699 806 q 535 882 604 885 l 485 881 q 431 872 451 879 q 399 838 411 864 q 385 760 388 811 l 375 551 l 538 551 l 538 672 l 644 672 l 628 335 l 536 335 q 523 417 539 390 q 479 451 507 443 q 406 457 451 458 l 369 456 l 357 228 q 346 106 353 142 l 532 106 q 654 153 603 106 q 711 306 706 201 l 803 306 l 779 0 l 49 0 l 54 92 q 110 101 90 93 q 143 133 131 108 q 158 213 156 158 l 186 744 q 199 869 190 824 l 94 865 l 100 972 l 792 972 l 785 703 m 483 1324 q 546 1297 521 1324 q 571 1229 571 1269 q 543 1155 571 1186 q 474 1124 515 1124 q 409 1151 433 1124 q 385 1218 385 1178 q 415 1292 385 1261 q 483 1324 444 1324 z "},"Ẹ":{"ha":865,"x_min":49,"x_max":803,"o":"m 785 703 l 694 703 q 651 845 699 806 q 535 882 604 885 l 485 881 q 431 872 451 879 q 399 838 411 864 q 385 760 388 811 l 375 551 l 538 551 l 538 672 l 644 672 l 628 335 l 536 335 q 523 417 539 390 q 479 451 507 443 q 406 457 451 458 l 369 456 l 357 228 q 346 106 353 142 l 532 106 q 654 153 603 106 q 711 306 706 201 l 803 306 l 779 0 l 49 0 l 54 92 q 110 101 90 93 q 143 133 131 108 q 158 213 156 158 l 186 744 q 199 869 190 824 l 94 865 l 100 972 l 792 972 l 785 703 m 472 -96 q 528 -120 506 -96 q 550 -181 550 -144 q 526 -247 550 -219 q 464 -275 501 -275 q 406 -251 428 -275 q 383 -192 383 -226 q 410 -124 383 -153 q 472 -96 438 -96 z "},"È":{"ha":865,"x_min":49,"x_max":803,"o":"m 785 703 l 694 703 q 651 845 699 806 q 535 882 604 885 l 485 881 q 431 872 451 879 q 399 838 411 864 q 385 760 388 811 l 375 551 l 538 551 l 538 672 l 644 672 l 628 335 l 536 335 q 523 417 539 390 q 479 451 507 443 q 406 457 451 458 l 369 456 l 357 228 q 346 106 353 142 l 532 106 q 654 153 603 106 q 711 306 706 201 l 803 306 l 779 0 l 49 0 l 54 92 q 110 101 90 93 q 143 133 131 108 q 158 213 156 158 l 186 744 q 199 869 190 824 l 94 865 l 100 972 l 792 972 l 785 703 m 349 1186 q 310 1222 325 1200 q 296 1267 296 1243 q 313 1310 296 1289 q 368 1338 335 1338 q 447 1300 410 1338 l 599 1138 l 544 1069 l 349 1186 z "},"Ẻ":{"ha":865,"x_min":49,"x_max":803,"o":"m 785 703 l 694 703 q 651 845 699 806 q 535 882 604 885 l 485 881 q 431 872 451 879 q 399 838 411 864 q 385 760 388 811 l 375 551 l 538 551 l 538 672 l 644 672 l 628 335 l 536 335 q 523 417 539 390 q 479 451 507 443 q 406 457 451 458 l 369 456 l 357 228 q 346 106 353 142 l 532 106 q 654 153 603 106 q 711 306 706 201 l 803 306 l 779 0 l 49 0 l 54 92 q 110 101 90 93 q 143 133 131 108 q 158 213 156 158 l 186 744 q 199 869 190 824 l 94 865 l 100 972 l 792 972 l 785 703 m 514 1315 q 624 1288 585 1315 q 664 1210 664 1260 q 661 1179 664 1190 q 640 1138 656 1154 q 596 1103 625 1122 q 563 1078 574 1088 q 549 1054 551 1068 l 457 1054 q 473 1085 461 1072 q 506 1113 485 1097 q 546 1148 533 1132 q 558 1192 558 1164 q 499 1232 558 1232 q 449 1222 463 1232 q 429 1194 435 1211 q 436 1179 436 1189 q 435 1165 436 1171 q 417 1142 432 1151 q 374 1133 403 1133 q 331 1172 331 1133 q 332 1190 331 1183 q 388 1276 342 1238 q 514 1315 433 1315 z "},"Ē":{"ha":865,"x_min":49,"x_max":803,"o":"m 785 703 l 694 703 q 651 845 699 806 q 535 882 604 885 l 485 881 q 431 872 451 879 q 399 838 411 864 q 385 760 388 811 l 375 551 l 538 551 l 538 672 l 644 672 l 628 335 l 536 335 q 523 417 539 390 q 479 451 507 443 q 406 457 451 458 l 369 456 l 357 228 q 346 106 353 142 l 532 106 q 654 153 603 106 q 711 306 706 201 l 803 306 l 779 0 l 49 0 l 54 92 q 110 101 90 93 q 143 133 131 108 q 158 213 156 158 l 186 744 q 199 869 190 824 l 94 865 l 100 972 l 792 972 l 785 703 m 276 1151 l 282 1281 l 676 1281 l 671 1156 l 276 1151 z "},"Ę":{"ha":865,"x_min":49,"x_max":803,"o":"m 653 -235 q 742 -194 694 -235 l 788 -254 q 697 -332 747 -303 q 599 -361 647 -361 q 498 -327 536 -361 q 460 -231 460 -293 q 497 -108 460 -167 q 601 0 535 -50 l 49 0 l 54 92 q 110 101 90 93 q 143 133 131 108 q 158 213 156 158 l 186 744 q 199 869 190 824 l 94 865 l 100 972 l 792 972 l 785 703 l 694 703 q 651 845 699 806 q 535 882 604 885 l 485 881 q 431 872 451 879 q 399 838 411 864 q 385 760 388 811 l 375 551 l 538 551 l 538 672 l 644 672 l 628 335 l 536 335 q 523 417 539 390 q 479 451 507 443 q 406 457 451 458 l 369 456 l 357 228 q 346 106 353 142 l 532 106 q 654 153 603 106 q 711 306 706 201 l 803 306 l 785 74 l 781 7 l 779 7 l 779 0 l 764 0 q 644 -80 693 -31 q 596 -182 596 -129 q 611 -220 596 -206 q 653 -235 626 -235 z "},"Ẽ":{"ha":865,"x_min":49,"x_max":803,"o":"m 785 703 l 694 703 q 651 845 699 806 q 535 882 604 885 l 485 881 q 431 872 451 879 q 399 838 411 864 q 385 760 388 811 l 375 551 l 538 551 l 538 672 l 644 672 l 628 335 l 536 335 q 523 417 539 390 q 479 451 507 443 q 406 457 451 458 l 369 456 l 357 228 q 346 106 353 142 l 532 106 q 654 153 603 106 q 711 306 706 201 l 803 306 l 779 0 l 49 0 l 54 92 q 110 101 90 93 q 143 133 131 108 q 158 213 156 158 l 186 744 q 199 869 190 824 l 94 865 l 100 972 l 792 972 l 785 703 m 243 1167 q 310 1265 264 1228 q 403 1303 356 1303 q 454 1295 433 1303 q 499 1274 475 1288 q 535 1256 519 1261 q 572 1250 551 1250 q 620 1269 597 1250 q 661 1321 643 1288 l 735 1282 q 664 1163 708 1201 q 572 1124 619 1124 q 524 1131 546 1124 q 476 1153 503 1139 q 438 1170 454 1164 q 406 1176 422 1176 q 360 1163 385 1176 q 317 1119 336 1150 l 243 1167 z "},"F":{"ha":786,"x_min":49,"x_max":792,"o":"m 785 703 l 694 703 q 651 845 699 806 q 535 882 604 885 l 485 881 q 431 872 451 879 q 399 838 411 864 q 385 760 388 811 l 372 518 l 517 518 q 516 567 515 546 q 517 603 517 589 l 517 638 l 624 638 l 606 300 l 514 300 q 501 383 517 356 q 457 417 485 410 q 385 422 429 424 l 368 422 l 357 228 q 346 103 351 138 q 468 107 389 107 l 463 0 l 49 0 l 54 92 q 110 101 90 93 q 143 133 131 108 q 158 213 156 158 l 186 744 q 199 869 190 824 l 94 865 l 100 972 l 792 972 l 785 703 z "},"G":{"ha":1050,"x_min":53,"x_max":1028,"o":"m 564 994 q 699 976 624 994 q 824 926 774 958 l 825 926 l 824 985 l 931 985 l 914 661 l 822 661 q 744 833 810 774 q 578 894 678 893 q 409 832 479 894 q 303 669 339 769 q 268 458 268 569 q 340 189 268 290 q 542 88 411 88 q 647 98 586 88 q 743 125 707 108 l 750 254 q 761 379 756 344 q 693 376 725 376 l 657 375 l 663 482 l 1028 482 l 1024 390 q 969 381 989 389 q 939 347 950 372 q 925 269 928 321 l 914 47 l 879 47 q 817 40 847 47 q 733 18 786 33 q 613 -12 663 -1 q 501 -22 564 -22 q 260 38 361 -22 q 106 201 158 97 q 53 436 53 306 q 112 702 53 574 q 287 913 171 831 q 564 994 403 994 z "},"Ğ":{"ha":1050,"x_min":53,"x_max":1028,"o":"m 564 994 q 699 976 624 994 q 824 926 774 958 l 825 926 l 824 985 l 931 985 l 914 661 l 822 661 q 744 833 810 774 q 578 894 678 893 q 409 832 479 894 q 303 669 339 769 q 268 458 268 569 q 340 189 268 290 q 542 88 411 88 q 647 98 586 88 q 743 125 707 108 l 750 254 q 761 379 756 344 q 693 376 725 376 l 657 375 l 663 482 l 1028 482 l 1024 390 q 969 381 989 389 q 939 347 950 372 q 925 269 928 321 l 914 47 l 879 47 q 817 40 847 47 q 733 18 786 33 q 613 -12 663 -1 q 501 -22 564 -22 q 260 38 361 -22 q 106 201 158 97 q 53 436 53 306 q 112 702 53 574 q 287 913 171 831 q 564 994 403 994 m 618 1093 q 472 1139 542 1093 q 365 1278 403 1185 l 449 1318 q 625 1215 524 1215 q 797 1318 726 1215 l 875 1285 q 768 1140 832 1186 q 618 1093 704 1093 z "},"Ĝ":{"ha":1050,"x_min":53,"x_max":1028,"o":"m 564 994 q 699 976 624 994 q 824 926 774 958 l 825 926 l 824 985 l 931 985 l 914 661 l 822 661 q 744 833 810 774 q 578 894 678 893 q 409 832 479 894 q 303 669 339 769 q 268 458 268 569 q 340 189 268 290 q 542 88 411 88 q 647 98 586 88 q 743 125 707 108 l 750 254 q 761 379 756 344 q 693 376 725 376 l 657 375 l 663 482 l 1028 482 l 1024 390 q 969 381 989 389 q 939 347 950 372 q 925 269 928 321 l 914 47 l 879 47 q 817 40 847 47 q 733 18 786 33 q 613 -12 663 -1 q 501 -22 564 -22 q 260 38 361 -22 q 106 201 158 97 q 53 436 53 306 q 112 702 53 574 q 287 913 171 831 q 564 994 403 994 m 856 1082 l 607 1204 l 339 1085 l 313 1140 l 607 1349 l 633 1349 l 894 1140 l 856 1082 z "},"Ģ":{"ha":1050,"x_min":53,"x_max":1028,"o":"m 564 994 q 699 976 624 994 q 824 926 774 958 l 825 926 l 824 985 l 931 985 l 914 661 l 822 661 q 744 833 810 774 q 578 894 678 893 q 409 832 479 894 q 303 669 339 769 q 268 458 268 569 q 340 189 268 290 q 542 88 411 88 q 647 98 586 88 q 743 125 707 108 l 750 254 q 761 379 756 344 q 693 376 725 376 l 657 375 l 663 482 l 1028 482 l 1024 390 q 969 381 989 389 q 939 347 950 372 q 925 269 928 321 l 914 47 l 879 47 q 817 40 847 47 q 733 18 786 33 q 613 -12 663 -1 q 501 -22 564 -22 q 260 38 361 -22 q 106 201 158 97 q 53 436 53 306 q 112 702 53 574 q 287 913 171 831 q 564 994 403 994 m 328 -351 q 388 -242 371 -286 q 404 -151 404 -197 q 399 -83 404 -133 l 549 -50 q 569 -150 574 -99 q 519 -278 567 -208 q 400 -408 471 -347 l 328 -351 z "},"H":{"ha":1114,"x_min":49,"x_max":1075,"o":"m 1071 881 q 1013 872 1033 879 q 981 839 993 864 q 965 760 968 814 l 938 228 q 925 103 933 149 q 1029 107 971 107 l 1024 0 l 629 0 l 633 92 q 691 101 671 93 q 724 133 711 108 q 739 213 736 158 l 751 438 l 368 433 l 357 228 q 346 103 351 138 q 450 107 389 107 l 444 0 l 49 0 l 54 92 q 110 101 90 93 q 143 133 131 108 q 158 213 156 158 l 186 744 q 199 869 190 824 l 94 865 l 100 972 l 494 972 l 490 881 q 433 872 453 879 q 400 839 413 864 q 385 760 388 814 l 374 543 l 756 543 l 767 744 q 779 869 772 839 l 674 865 l 679 972 l 1075 972 l 1071 881 z "},"Ĥ":{"ha":1114,"x_min":49,"x_max":1075,"o":"m 1071 881 q 1013 872 1033 879 q 981 839 993 864 q 965 760 968 814 l 938 228 q 925 103 933 149 q 1029 107 971 107 l 1024 0 l 629 0 l 633 92 q 691 101 671 93 q 724 133 711 108 q 739 213 736 158 l 751 438 l 368 433 l 357 228 q 346 103 351 138 q 450 107 389 107 l 444 0 l 49 0 l 54 92 q 110 101 90 93 q 143 133 131 108 q 158 213 156 158 l 186 744 q 199 869 190 824 l 94 865 l 100 972 l 494 972 l 490 881 q 433 872 453 879 q 400 839 413 864 q 385 760 388 814 l 374 543 l 756 543 l 767 744 q 779 869 772 839 l 674 865 l 679 972 l 1075 972 l 1071 881 m 858 1082 l 610 1204 l 342 1085 l 315 1140 l 610 1349 l 636 1349 l 897 1140 l 858 1082 z "},"I":{"ha":533,"x_min":49,"x_max":494,"o":"m 490 881 q 433 872 453 879 q 400 839 413 864 q 385 760 388 814 l 357 228 q 346 103 351 138 q 450 107 389 107 l 444 0 l 49 0 l 54 92 q 110 101 90 93 q 143 133 131 108 q 158 213 156 158 l 186 744 q 199 869 190 824 l 94 865 l 100 972 l 494 972 l 490 881 z "},"Í":{"ha":533,"x_min":49,"x_max":540,"o":"m 490 881 q 433 872 453 879 q 400 839 413 864 q 385 760 388 814 l 357 228 q 346 103 351 138 q 450 107 389 107 l 444 0 l 49 0 l 54 92 q 110 101 90 93 q 143 133 131 108 q 158 213 156 158 l 186 744 q 199 869 190 824 l 94 865 l 100 972 l 494 972 l 490 881 m 224 1136 l 393 1300 q 433 1327 411 1317 q 475 1338 454 1338 q 528 1310 510 1338 q 540 1271 540 1292 q 523 1224 540 1247 q 479 1186 506 1201 l 271 1069 l 224 1136 z "},"Î":{"ha":535,"x_min":49,"x_max":557,"o":"m 326 1349 l 347 1349 l 557 1131 l 497 1067 l 326 1204 l 133 1071 l 83 1136 l 326 1349 m 490 881 q 433 872 453 879 q 400 839 413 864 q 385 760 388 814 l 357 228 q 346 103 351 138 q 450 107 389 107 l 444 0 l 49 0 l 54 92 q 110 101 90 93 q 143 133 131 108 q 158 213 156 158 l 186 744 q 199 869 190 824 l 94 865 l 100 972 l 494 972 l 490 881 z "},"Ï":{"ha":533,"x_min":49,"x_max":538,"o":"m 490 881 q 433 872 453 879 q 400 839 413 864 q 385 760 388 814 l 357 228 q 346 103 351 138 q 450 107 389 107 l 444 0 l 49 0 l 54 92 q 110 101 90 93 q 143 133 131 108 q 158 213 156 158 l 186 744 q 199 869 190 824 l 94 865 l 100 972 l 494 972 l 490 881 m 200 1107 q 141 1135 165 1107 q 117 1206 117 1164 q 146 1285 117 1251 q 214 1318 175 1318 q 273 1290 250 1318 q 296 1219 296 1261 q 268 1140 296 1174 q 200 1107 240 1107 m 443 1107 q 383 1135 407 1107 q 360 1206 360 1164 q 388 1285 360 1251 q 456 1318 417 1318 q 515 1290 492 1318 q 538 1219 538 1261 q 510 1140 538 1174 q 443 1107 482 1107 z "},"İ":{"ha":533,"x_min":49,"x_max":494,"o":"m 490 881 q 433 872 453 879 q 400 839 413 864 q 385 760 388 814 l 357 228 q 346 103 351 138 q 450 107 389 107 l 444 0 l 49 0 l 54 92 q 110 101 90 93 q 143 133 131 108 q 158 213 156 158 l 186 744 q 199 869 190 824 l 94 865 l 100 972 l 494 972 l 490 881 m 321 1324 q 383 1297 358 1324 q 408 1229 408 1269 q 381 1155 408 1186 q 311 1124 353 1124 q 247 1151 271 1124 q 222 1218 222 1178 q 252 1292 222 1261 q 321 1324 282 1324 z "},"Ị":{"ha":533,"x_min":49,"x_max":494,"o":"m 490 881 q 433 872 453 879 q 400 839 413 864 q 385 760 388 814 l 357 228 q 346 103 351 138 q 450 107 389 107 l 444 0 l 49 0 l 54 92 q 110 101 90 93 q 143 133 131 108 q 158 213 156 158 l 186 744 q 199 869 190 824 l 94 865 l 100 972 l 494 972 l 490 881 m 244 -96 q 300 -120 278 -96 q 322 -181 322 -144 q 298 -247 322 -219 q 236 -275 274 -275 q 178 -251 200 -275 q 156 -192 156 -226 q 183 -124 156 -153 q 244 -96 210 -96 z "},"Ì":{"ha":533,"x_min":49,"x_max":494,"o":"m 490 881 q 433 872 453 879 q 400 839 413 864 q 385 760 388 814 l 357 228 q 346 103 351 138 q 450 107 389 107 l 444 0 l 49 0 l 54 92 q 110 101 90 93 q 143 133 131 108 q 158 213 156 158 l 186 744 q 199 869 190 824 l 94 865 l 100 972 l 494 972 l 490 881 m 186 1186 q 148 1222 163 1200 q 133 1267 133 1243 q 150 1310 133 1289 q 206 1338 172 1338 q 285 1300 247 1338 l 436 1138 l 382 1069 l 186 1186 z "},"Ỉ":{"ha":533,"x_min":49,"x_max":501,"o":"m 490 881 q 433 872 453 879 q 400 839 413 864 q 385 760 388 814 l 357 228 q 346 103 351 138 q 450 107 389 107 l 444 0 l 49 0 l 54 92 q 110 101 90 93 q 143 133 131 108 q 158 213 156 158 l 186 744 q 199 869 190 824 l 94 865 l 100 972 l 494 972 l 490 881 m 351 1315 q 462 1288 422 1315 q 501 1210 501 1260 q 499 1179 501 1190 q 478 1138 493 1154 q 433 1103 463 1122 q 400 1078 411 1088 q 386 1054 389 1068 l 294 1054 q 310 1085 299 1072 q 343 1113 322 1097 q 383 1148 371 1132 q 396 1192 396 1164 q 336 1232 396 1232 q 286 1222 300 1232 q 267 1194 272 1211 q 274 1179 274 1189 q 272 1165 274 1171 q 255 1142 269 1151 q 211 1133 240 1133 q 168 1172 168 1133 q 169 1190 168 1183 q 225 1276 179 1238 q 351 1315 271 1315 z "},"Ī":{"ha":533,"x_min":49,"x_max":514,"o":"m 490 881 q 433 872 453 879 q 400 839 413 864 q 385 760 388 814 l 357 228 q 346 103 351 138 q 450 107 389 107 l 444 0 l 49 0 l 54 92 q 110 101 90 93 q 143 133 131 108 q 158 213 156 158 l 186 744 q 199 869 190 824 l 94 865 l 100 972 l 494 972 l 490 881 m 114 1151 l 119 1281 l 514 1281 l 508 1156 l 114 1151 z "},"Į":{"ha":533,"x_min":49,"x_max":494,"o":"m 357 228 q 346 103 351 138 q 450 107 389 107 l 444 0 l 443 0 q 313 -81 368 -29 q 258 -189 258 -133 q 274 -227 258 -212 q 315 -242 289 -242 q 404 -201 357 -242 l 450 -261 q 360 -339 410 -310 q 261 -368 310 -368 q 160 -334 199 -368 q 122 -237 122 -300 q 163 -110 122 -171 q 274 0 204 -49 l 49 0 l 54 92 q 110 101 90 93 q 143 133 131 108 q 158 213 156 158 l 186 744 q 199 869 190 824 l 94 865 l 100 972 l 494 972 l 490 881 q 433 872 453 879 q 400 839 413 864 q 385 760 388 814 l 357 228 z "},"Ĩ":{"ha":533,"x_min":49,"x_max":572,"o":"m 490 881 q 433 872 453 879 q 400 839 413 864 q 385 760 388 814 l 357 228 q 346 103 351 138 q 450 107 389 107 l 444 0 l 49 0 l 54 92 q 110 101 90 93 q 143 133 131 108 q 158 213 156 158 l 186 744 q 199 869 190 824 l 94 865 l 100 972 l 494 972 l 490 881 m 81 1167 q 147 1265 101 1228 q 240 1303 193 1303 q 292 1295 271 1303 q 336 1274 313 1288 q 373 1256 357 1261 q 410 1250 389 1250 q 458 1269 435 1250 q 499 1321 481 1288 l 572 1282 q 501 1163 546 1201 q 410 1124 457 1124 q 362 1131 383 1124 q 314 1153 340 1139 q 276 1170 292 1164 q 243 1176 260 1176 q 198 1163 222 1176 q 154 1119 174 1150 l 81 1167 z "},"J":{"ha":618,"x_min":-15,"x_max":611,"o":"m 607 881 q 549 872 569 879 q 517 839 529 864 q 501 760 504 814 l 481 353 q 393 67 469 157 q 174 -22 317 -22 q 39 17 93 -22 q -15 118 -15 57 q 14 206 -15 169 q 94 242 43 242 q 159 216 138 242 q 181 151 181 190 q 167 100 181 128 q 183 83 171 88 q 207 78 196 78 q 254 104 238 78 q 274 188 271 131 l 303 744 q 315 869 307 824 l 204 865 l 210 972 l 611 972 l 607 881 z "},"Ĵ":{"ha":618,"x_min":-15,"x_max":646,"o":"m 414 1349 l 436 1349 l 646 1131 l 585 1067 l 414 1204 l 222 1071 l 172 1136 l 414 1349 m 607 881 q 549 872 569 879 q 517 839 529 864 q 501 760 504 814 l 481 353 q 393 67 469 157 q 174 -22 317 -22 q 39 17 93 -22 q -15 118 -15 57 q 14 206 -15 169 q 94 242 43 242 q 159 216 138 242 q 181 151 181 190 q 167 100 181 128 q 183 83 171 88 q 207 78 196 78 q 254 104 238 78 q 274 188 271 131 l 303 744 q 315 869 307 824 l 204 865 l 210 972 l 611 972 l 607 881 z "},"K":{"ha":988,"x_min":49,"x_max":967,"o":"m 946 881 q 833 850 886 878 q 724 739 779 822 l 579 525 l 579 524 q 661 443 631 490 l 792 242 q 880 133 836 174 q 967 92 924 93 l 961 0 l 750 0 q 692 49 733 1 q 621 142 650 96 l 494 342 q 418 438 442 419 l 368 438 l 357 228 q 346 103 351 138 q 450 107 389 107 l 444 0 l 49 0 l 54 92 q 110 101 90 93 q 143 133 131 108 q 158 213 156 158 l 186 744 q 199 869 190 824 l 94 865 l 100 972 l 494 972 l 490 881 q 433 872 453 879 q 400 839 413 864 q 385 760 388 814 l 374 549 l 475 549 l 590 731 q 652 822 628 788 q 693 869 676 857 l 693 871 q 640 867 663 868 q 606 865 618 867 l 610 972 l 950 972 l 946 881 z "},"Ķ":{"ha":988,"x_min":49,"x_max":967,"o":"m 946 881 q 833 850 886 878 q 724 739 779 822 l 579 525 l 579 524 q 661 443 631 490 l 792 242 q 880 133 836 174 q 967 92 924 93 l 961 0 l 750 0 q 692 49 733 1 q 621 142 650 96 l 494 342 q 418 438 442 419 l 368 438 l 357 228 q 346 103 351 138 q 450 107 389 107 l 444 0 l 49 0 l 54 92 q 110 101 90 93 q 143 133 131 108 q 158 213 156 158 l 186 744 q 199 869 190 824 l 94 865 l 100 972 l 494 972 l 490 881 q 433 872 453 879 q 400 839 413 864 q 385 760 388 814 l 374 549 l 475 549 l 590 731 q 652 822 628 788 q 693 869 676 857 l 693 871 q 640 867 663 868 q 606 865 618 867 l 610 972 l 950 972 l 946 881 m 310 -351 q 369 -242 353 -286 q 386 -151 386 -197 q 381 -83 386 -133 l 531 -50 q 551 -150 556 -99 q 501 -278 549 -208 q 382 -408 453 -347 l 310 -351 z "},"L":{"ha":842,"x_min":49,"x_max":811,"o":"m 490 881 q 433 872 453 879 q 400 839 413 864 q 385 760 388 814 l 357 228 q 346 106 353 142 l 532 106 q 665 165 615 107 q 719 333 714 222 l 811 333 l 786 0 l 49 0 l 54 92 q 110 101 90 93 q 143 133 131 108 q 158 213 156 158 l 186 744 q 199 869 190 824 l 94 865 l 100 972 l 494 972 l 490 881 z "},"Ĺ":{"ha":842,"x_min":49,"x_max":811,"o":"m 490 881 q 433 872 453 879 q 400 839 413 864 q 385 760 388 814 l 357 228 q 346 106 353 142 l 532 106 q 665 165 615 107 q 719 333 714 222 l 811 333 l 786 0 l 49 0 l 54 92 q 110 101 90 93 q 143 133 131 108 q 158 213 156 158 l 186 744 q 199 869 190 824 l 94 865 l 100 972 l 494 972 l 490 881 m 203 1136 l 372 1300 q 412 1327 390 1317 q 454 1338 433 1338 q 507 1310 489 1338 q 519 1271 519 1292 q 502 1224 519 1247 q 458 1186 485 1201 l 250 1069 l 203 1136 z "},"Ľ":{"ha":842,"x_min":49,"x_max":811,"o":"m 490 881 q 433 872 453 879 q 400 839 413 864 q 385 760 388 814 l 357 228 q 346 106 353 142 l 532 106 q 665 165 615 107 q 719 333 714 222 l 811 333 l 786 0 l 49 0 l 54 92 q 110 101 90 93 q 143 133 131 108 q 158 213 156 158 l 186 744 q 199 869 190 824 l 94 865 l 100 972 l 494 972 l 490 881 m 592 700 q 646 886 646 799 q 629 996 646 933 l 753 972 q 772 903 772 933 q 737 778 772 842 q 646 660 701 714 l 592 700 z "},"Ļ":{"ha":842,"x_min":49,"x_max":811,"o":"m 490 881 q 433 872 453 879 q 400 839 413 864 q 385 760 388 814 l 357 228 q 346 106 353 142 l 532 106 q 665 165 615 107 q 719 333 714 222 l 811 333 l 786 0 l 49 0 l 54 92 q 110 101 90 93 q 143 133 131 108 q 158 213 156 158 l 186 744 q 199 869 190 824 l 94 865 l 100 972 l 494 972 l 490 881 m 238 -351 q 297 -242 281 -286 q 314 -151 314 -197 q 308 -83 314 -133 l 458 -50 q 479 -150 483 -99 q 428 -278 476 -208 q 310 -408 381 -347 l 238 -351 z "},"Ł":{"ha":842,"x_min":50,"x_max":813,"o":"m 492 881 q 434 872 454 879 q 401 839 414 864 q 386 760 389 814 l 379 631 l 492 711 l 483 557 l 372 478 l 358 228 q 347 106 354 142 l 533 106 q 666 165 617 107 q 721 333 715 222 l 813 333 l 788 0 l 50 0 l 56 92 q 112 101 92 93 q 144 133 132 108 q 160 213 157 158 l 167 329 l 57 250 l 64 406 l 174 485 l 188 744 q 200 869 192 824 l 96 865 l 101 972 l 496 972 l 492 881 z "},"M":{"ha":1347,"x_min":44,"x_max":1300,"o":"m 1294 881 q 1236 872 1257 879 q 1202 839 1215 864 q 1189 760 1189 814 l 1182 228 q 1169 103 1182 156 q 1275 107 1215 107 l 1269 0 l 881 0 l 886 92 q 944 101 924 93 q 978 133 965 108 q 990 213 990 158 l 994 507 q 996 753 996 540 l 994 753 l 676 -14 l 551 -14 l 382 443 q 339 578 364 489 q 300 743 314 667 l 299 743 l 297 683 q 289 479 290 499 l 274 228 q 261 103 269 149 q 367 107 307 107 l 361 0 l 44 0 l 50 92 q 107 101 88 93 q 138 133 126 108 q 154 213 150 158 l 190 744 q 203 869 199 847 l 97 865 l 104 972 l 401 972 l 592 433 q 642 269 615 363 l 658 208 l 660 208 l 697 300 q 719 358 710 333 q 736 399 729 382 l 976 972 l 1300 972 l 1294 881 z "},"N":{"ha":1072,"x_min":50,"x_max":1056,"o":"m 1051 881 q 994 872 1014 879 q 961 839 974 864 q 946 760 949 814 l 904 -14 l 786 -14 l 372 557 q 301 661 333 611 l 300 661 l 281 228 q 268 103 276 149 q 374 107 314 107 l 367 0 l 50 0 l 56 92 q 113 101 93 93 q 146 133 133 108 q 161 213 158 158 l 185 744 q 197 869 189 824 l 92 865 l 99 972 l 317 972 l 713 435 q 803 301 747 386 l 804 301 l 826 744 q 839 869 831 824 l 733 865 l 740 972 l 1056 972 l 1051 881 z "},"Ń":{"ha":1072,"x_min":50,"x_max":1056,"o":"m 1051 881 q 994 872 1014 879 q 961 839 974 864 q 946 760 949 814 l 904 -14 l 786 -14 l 372 557 q 301 661 333 611 l 300 661 l 281 228 q 268 103 276 149 q 374 107 314 107 l 367 0 l 50 0 l 56 92 q 113 101 93 93 q 146 133 133 108 q 161 213 158 158 l 185 744 q 197 869 189 824 l 92 865 l 99 972 l 317 972 l 713 435 q 803 301 747 386 l 804 301 l 826 744 q 839 869 831 824 l 733 865 l 740 972 l 1056 972 l 1051 881 m 429 1119 l 553 1314 q 591 1351 568 1338 q 638 1365 614 1365 q 685 1347 665 1365 q 708 1293 708 1325 q 697 1248 708 1271 q 667 1210 686 1225 l 490 1063 l 429 1119 z "},"Ň":{"ha":1072,"x_min":50,"x_max":1056,"o":"m 1051 881 q 994 872 1014 879 q 961 839 974 864 q 946 760 949 814 l 904 -14 l 786 -14 l 372 557 q 301 661 333 611 l 300 661 l 281 228 q 268 103 276 149 q 374 107 314 107 l 367 0 l 50 0 l 56 92 q 113 101 93 93 q 146 133 133 108 q 161 213 158 158 l 185 744 q 197 869 189 824 l 92 865 l 99 972 l 317 972 l 713 435 q 803 301 747 386 l 804 301 l 826 744 q 839 869 831 824 l 733 865 l 740 972 l 1056 972 l 1051 881 m 578 1069 l 550 1069 l 290 1279 l 329 1336 l 579 1215 l 844 1336 l 872 1281 l 578 1069 z "},"Ņ":{"ha":1072,"x_min":50,"x_max":1056,"o":"m 1051 881 q 994 872 1014 879 q 961 839 974 864 q 946 760 949 814 l 904 -14 l 786 -14 l 372 557 q 301 661 333 611 l 300 661 l 281 228 q 268 103 276 149 q 374 107 314 107 l 367 0 l 50 0 l 56 92 q 113 101 93 93 q 146 133 133 108 q 161 213 158 158 l 185 744 q 197 869 189 824 l 92 865 l 99 972 l 317 972 l 713 435 q 803 301 747 386 l 804 301 l 826 744 q 839 869 831 824 l 733 865 l 740 972 l 1056 972 l 1051 881 m 353 -351 q 413 -242 396 -286 q 429 -151 429 -197 q 424 -83 429 -133 l 574 -50 q 594 -150 599 -99 q 544 -278 592 -208 q 425 -408 496 -347 l 353 -351 z "},"Ñ":{"ha":1072,"x_min":50,"x_max":1056,"o":"m 1051 881 q 994 872 1014 879 q 961 839 974 864 q 946 760 949 814 l 904 -14 l 786 -14 l 372 557 q 301 661 333 611 l 300 661 l 281 228 q 268 103 276 149 q 374 107 314 107 l 367 0 l 50 0 l 56 92 q 113 101 93 93 q 146 133 133 108 q 161 213 158 158 l 185 744 q 197 869 189 824 l 92 865 l 99 972 l 317 972 l 713 435 q 803 301 747 386 l 804 301 l 826 744 q 839 869 831 824 l 733 865 l 740 972 l 1056 972 l 1051 881 m 485 1178 q 419 1163 453 1178 q 361 1110 386 1147 l 290 1154 q 372 1264 319 1226 q 479 1301 425 1301 q 537 1292 511 1301 q 594 1264 563 1282 q 642 1240 624 1247 q 683 1232 661 1232 q 748 1256 713 1232 q 803 1318 783 1281 l 875 1281 q 792 1146 842 1183 q 690 1108 743 1108 q 636 1117 661 1108 q 581 1144 611 1126 q 531 1169 551 1161 q 485 1178 510 1178 z "},"O":{"ha":1058,"x_min":54,"x_max":1014,"o":"m 564 994 q 818 924 717 994 q 967 745 919 854 q 1014 515 1014 636 q 956 266 1014 390 q 783 60 897 142 q 507 -22 668 -22 q 247 44 349 -22 q 100 217 146 111 q 54 447 54 324 q 56 486 54 474 q 122 726 61 610 q 295 919 182 843 q 564 994 408 994 m 547 900 q 386 832 449 900 q 296 664 324 764 q 268 465 268 564 q 294 281 268 371 q 377 132 319 192 q 525 72 435 72 q 676 131 615 72 q 766 278 736 189 q 800 463 796 368 q 801 513 801 479 q 738 795 801 690 q 547 900 674 900 z "},"Ó":{"ha":1058,"x_min":54,"x_max":1014,"o":"m 564 994 q 818 924 717 994 q 967 745 919 854 q 1014 515 1014 636 q 956 266 1014 390 q 783 60 897 142 q 507 -22 668 -22 q 247 44 349 -22 q 100 217 146 111 q 54 447 54 324 q 56 486 54 474 q 122 726 61 610 q 295 919 182 843 q 564 994 408 994 m 547 900 q 386 832 449 900 q 296 664 324 764 q 268 465 268 564 q 294 281 268 371 q 377 132 319 192 q 525 72 435 72 q 676 131 615 72 q 766 278 736 189 q 800 463 796 368 q 801 513 801 479 q 738 795 801 690 q 547 900 674 900 m 464 1136 l 633 1300 q 673 1327 651 1317 q 715 1338 694 1338 q 768 1310 750 1338 q 781 1271 781 1292 q 763 1224 781 1247 q 719 1186 746 1201 l 511 1069 l 464 1136 z "},"Ô":{"ha":1058,"x_min":54,"x_max":1014,"o":"m 564 994 q 818 924 717 994 q 967 745 919 854 q 1014 515 1014 636 q 956 266 1014 390 q 783 60 897 142 q 507 -22 668 -22 q 247 44 349 -22 q 100 217 146 111 q 54 447 54 324 q 56 486 54 474 q 122 726 61 610 q 295 919 182 843 q 564 994 408 994 m 547 900 q 386 832 449 900 q 296 664 324 764 q 268 465 268 564 q 294 281 268 371 q 377 132 319 192 q 525 72 435 72 q 676 131 615 72 q 766 278 736 189 q 800 463 796 368 q 801 513 801 479 q 738 795 801 690 q 547 900 674 900 m 817 1082 l 568 1204 l 300 1085 l 274 1140 l 568 1349 l 594 1349 l 856 1140 l 817 1082 z "},"Ố":{"ha":1058,"x_min":54,"x_max":1014,"o":"m 713 1256 l 815 1415 q 847 1447 828 1435 q 885 1458 865 1458 q 924 1443 908 1458 q 943 1399 943 1425 q 934 1362 943 1381 q 910 1331 925 1343 l 764 1208 l 713 1256 m 724 1056 l 554 1139 l 372 1057 l 333 1121 l 554 1268 l 572 1268 l 772 1128 l 724 1056 m 564 994 q 818 924 717 994 q 967 745 919 854 q 1014 515 1014 636 q 956 266 1014 390 q 783 60 897 142 q 507 -22 668 -22 q 247 44 349 -22 q 100 217 146 111 q 54 447 54 324 q 56 486 54 474 q 122 726 61 610 q 295 919 182 843 q 564 994 408 994 m 547 900 q 386 832 449 900 q 296 664 324 764 q 268 465 268 564 q 294 281 268 371 q 377 132 319 192 q 525 72 435 72 q 676 131 615 72 q 766 278 736 189 q 800 463 796 368 q 801 513 801 479 q 738 795 801 690 q 547 900 674 900 z "},"Ộ":{"ha":1058,"x_min":54,"x_max":1014,"o":"m 564 994 q 818 924 717 994 q 967 745 919 854 q 1014 515 1014 636 q 956 266 1014 390 q 783 60 897 142 q 507 -22 668 -22 q 247 44 349 -22 q 100 217 146 111 q 54 447 54 324 q 56 486 54 474 q 122 726 61 610 q 295 919 182 843 q 564 994 408 994 m 547 900 q 386 832 449 900 q 296 664 324 764 q 268 465 268 564 q 294 281 268 371 q 377 132 319 192 q 525 72 435 72 q 676 131 615 72 q 766 278 736 189 q 800 463 796 368 q 801 513 801 479 q 738 795 801 690 q 547 900 674 900 m 507 -96 q 563 -120 540 -96 q 585 -181 585 -144 q 560 -247 585 -219 q 499 -275 536 -275 q 440 -251 463 -275 q 418 -192 418 -226 q 445 -124 418 -153 q 507 -96 472 -96 m 724 1056 l 554 1139 l 372 1057 l 333 1121 l 554 1268 l 572 1268 l 772 1128 l 724 1056 z "},"Ồ":{"ha":1058,"x_min":54,"x_max":1014,"o":"m 588 1356 q 558 1421 558 1388 q 581 1468 558 1447 q 621 1482 600 1482 q 656 1471 639 1482 q 683 1440 672 1460 l 774 1281 l 718 1233 l 588 1356 m 724 1056 l 554 1139 l 372 1057 l 333 1121 l 554 1268 l 572 1268 l 772 1128 l 724 1056 m 564 994 q 818 924 717 994 q 967 745 919 854 q 1014 515 1014 636 q 956 266 1014 390 q 783 60 897 142 q 507 -22 668 -22 q 247 44 349 -22 q 100 217 146 111 q 54 447 54 324 q 56 486 54 474 q 122 726 61 610 q 295 919 182 843 q 564 994 408 994 m 547 900 q 386 832 449 900 q 296 664 324 764 q 268 465 268 564 q 294 281 268 371 q 377 132 319 192 q 525 72 435 72 q 676 131 615 72 q 766 278 736 189 q 800 463 796 368 q 801 513 801 479 q 738 795 801 690 q 547 900 674 900 z "},"Ổ":{"ha":1058,"x_min":54,"x_max":1014,"o":"m 803 1438 q 894 1415 861 1438 q 926 1350 926 1393 q 924 1325 926 1342 q 906 1290 919 1304 q 869 1263 893 1276 q 842 1242 851 1250 q 831 1222 832 1233 l 756 1222 q 768 1247 758 1238 q 794 1269 778 1257 q 823 1293 813 1282 q 836 1321 833 1304 q 839 1336 839 1332 q 790 1369 839 1369 q 749 1361 760 1369 q 732 1338 738 1353 q 738 1327 738 1333 q 738 1314 739 1321 q 722 1295 735 1303 q 686 1288 710 1288 q 658 1296 667 1288 q 650 1321 650 1304 q 651 1335 650 1329 q 698 1406 660 1375 q 803 1438 736 1438 m 724 1056 l 554 1139 l 372 1057 l 333 1121 l 554 1268 l 572 1268 l 772 1128 l 724 1056 m 564 994 q 818 924 717 994 q 967 745 919 854 q 1014 515 1014 636 q 956 266 1014 390 q 783 60 897 142 q 507 -22 668 -22 q 247 44 349 -22 q 100 217 146 111 q 54 447 54 324 q 56 486 54 474 q 122 726 61 610 q 295 919 182 843 q 564 994 408 994 m 547 900 q 386 832 449 900 q 296 664 324 764 q 268 465 268 564 q 294 281 268 371 q 377 132 319 192 q 525 72 435 72 q 676 131 615 72 q 766 278 736 189 q 800 463 796 368 q 801 513 801 479 q 738 795 801 690 q 547 900 674 900 z "},"Ỗ":{"ha":1058,"x_min":54,"x_max":1014,"o":"m 376 1307 q 431 1388 393 1357 q 508 1419 469 1419 q 551 1413 533 1419 q 588 1394 569 1407 q 619 1380 607 1385 q 647 1375 631 1375 q 687 1391 668 1375 q 721 1435 706 1407 l 782 1401 q 724 1303 761 1335 q 647 1271 686 1271 q 568 1296 613 1271 q 539 1309 554 1303 q 510 1315 524 1315 q 473 1304 493 1315 q 436 1268 453 1293 l 376 1307 m 724 1056 l 554 1139 l 372 1057 l 333 1121 l 554 1268 l 572 1268 l 772 1128 l 724 1056 m 564 994 q 818 924 717 994 q 967 745 919 854 q 1014 515 1014 636 q 956 266 1014 390 q 783 60 897 142 q 507 -22 668 -22 q 247 44 349 -22 q 100 217 146 111 q 54 447 54 324 q 56 486 54 474 q 122 726 61 610 q 295 919 182 843 q 564 994 408 994 m 547 900 q 386 832 449 900 q 296 664 324 764 q 268 465 268 564 q 294 281 268 371 q 377 132 319 192 q 525 72 435 72 q 676 131 615 72 q 766 278 736 189 q 800 463 796 368 q 801 513 801 479 q 738 795 801 690 q 547 900 674 900 z "},"Ö":{"ha":1058,"x_min":54,"x_max":1014,"o":"m 564 994 q 818 924 717 994 q 967 745 919 854 q 1014 515 1014 636 q 956 266 1014 390 q 783 60 897 142 q 507 -22 668 -22 q 247 44 349 -22 q 100 217 146 111 q 54 447 54 324 q 56 486 54 474 q 122 726 61 610 q 295 919 182 843 q 564 994 408 994 m 547 900 q 386 832 449 900 q 296 664 324 764 q 268 465 268 564 q 294 281 268 371 q 377 132 319 192 q 525 72 435 72 q 676 131 615 72 q 766 278 736 189 q 800 463 796 368 q 801 513 801 479 q 738 795 801 690 q 547 900 674 900 m 440 1107 q 381 1135 406 1107 q 357 1206 357 1164 q 386 1285 357 1251 q 454 1318 415 1318 q 513 1290 490 1318 q 536 1219 536 1261 q 508 1140 536 1174 q 440 1107 481 1107 m 683 1107 q 624 1135 647 1107 q 600 1206 600 1164 q 628 1285 600 1251 q 696 1318 657 1318 q 755 1290 732 1318 q 778 1219 778 1261 q 750 1140 778 1174 q 683 1107 722 1107 z "},"Ọ":{"ha":1058,"x_min":54,"x_max":1014,"o":"m 564 994 q 818 924 717 994 q 967 745 919 854 q 1014 515 1014 636 q 956 266 1014 390 q 783 60 897 142 q 507 -22 668 -22 q 247 44 349 -22 q 100 217 146 111 q 54 447 54 324 q 56 486 54 474 q 122 726 61 610 q 295 919 182 843 q 564 994 408 994 m 547 900 q 386 832 449 900 q 296 664 324 764 q 268 465 268 564 q 294 281 268 371 q 377 132 319 192 q 525 72 435 72 q 676 131 615 72 q 766 278 736 189 q 800 463 796 368 q 801 513 801 479 q 738 795 801 690 q 547 900 674 900 m 507 -96 q 563 -120 540 -96 q 585 -181 585 -144 q 560 -247 585 -219 q 499 -275 536 -275 q 440 -251 463 -275 q 418 -192 418 -226 q 445 -124 418 -153 q 507 -96 472 -96 z "},"Ò":{"ha":1058,"x_min":54,"x_max":1014,"o":"m 564 994 q 818 924 717 994 q 967 745 919 854 q 1014 515 1014 636 q 956 266 1014 390 q 783 60 897 142 q 507 -22 668 -22 q 247 44 349 -22 q 100 217 146 111 q 54 447 54 324 q 56 486 54 474 q 122 726 61 610 q 295 919 182 843 q 564 994 408 994 m 547 900 q 386 832 449 900 q 296 664 324 764 q 268 465 268 564 q 294 281 268 371 q 377 132 319 192 q 525 72 435 72 q 676 131 615 72 q 766 278 736 189 q 800 463 796 368 q 801 513 801 479 q 738 795 801 690 q 547 900 674 900 m 426 1186 q 388 1222 403 1200 q 374 1267 374 1243 q 390 1310 374 1289 q 446 1338 413 1338 q 525 1300 488 1338 l 676 1138 l 622 1069 l 426 1186 z "},"Ỏ":{"ha":1058,"x_min":54,"x_max":1014,"o":"m 564 994 q 818 924 717 994 q 967 745 919 854 q 1014 515 1014 636 q 956 266 1014 390 q 783 60 897 142 q 507 -22 668 -22 q 247 44 349 -22 q 100 217 146 111 q 54 447 54 324 q 56 486 54 474 q 122 726 61 610 q 295 919 182 843 q 564 994 408 994 m 547 900 q 386 832 449 900 q 296 664 324 764 q 268 465 268 564 q 294 281 268 371 q 377 132 319 192 q 525 72 435 72 q 676 131 615 72 q 766 278 736 189 q 800 463 796 368 q 801 513 801 479 q 738 795 801 690 q 547 900 674 900 m 592 1315 q 702 1288 663 1315 q 742 1210 742 1260 q 739 1179 742 1190 q 718 1138 733 1154 q 674 1103 703 1122 q 640 1078 651 1088 q 626 1054 629 1068 l 535 1054 q 551 1085 539 1072 q 583 1113 563 1097 q 624 1148 611 1132 q 636 1192 636 1164 q 576 1232 636 1232 q 526 1222 540 1232 q 507 1194 513 1211 q 514 1179 514 1189 q 513 1165 514 1171 q 495 1142 510 1151 q 451 1133 481 1133 q 408 1172 408 1133 q 410 1190 408 1183 q 465 1276 419 1238 q 592 1315 511 1315 z "},"Ơ":{"ha":1058,"x_min":54,"x_max":1014,"o":"m 839 910 q 970 737 926 843 q 1014 514 1014 631 q 956 266 1014 390 q 783 60 897 142 q 507 -22 668 -22 q 247 44 349 -22 q 100 217 146 111 q 54 447 54 324 q 56 486 54 474 q 122 726 61 610 q 295 919 182 843 q 564 994 408 994 q 729 968 653 994 q 788 1004 767 975 q 815 1072 808 1033 l 960 1072 q 839 910 936 956 m 800 463 q 801 513 801 479 q 738 795 801 690 q 547 900 674 900 q 387 832 450 900 q 296 665 324 764 q 268 465 268 565 q 294 281 268 371 q 377 132 319 192 q 525 72 435 72 q 676 131 615 72 q 766 278 736 189 q 800 463 796 368 z "},"Ớ":{"ha":1058,"x_min":54,"x_max":1014,"o":"m 839 910 q 970 737 926 843 q 1014 514 1014 631 q 956 266 1014 390 q 783 60 897 142 q 507 -22 668 -22 q 247 44 349 -22 q 100 217 146 111 q 54 447 54 324 q 56 486 54 474 q 122 726 61 610 q 295 919 182 843 q 564 994 408 994 q 729 968 653 994 q 788 1004 767 975 q 815 1072 808 1033 l 960 1072 q 839 910 936 956 m 800 463 q 801 513 801 479 q 738 795 801 690 q 547 900 674 900 q 387 832 450 900 q 296 665 324 764 q 268 465 268 565 q 294 281 268 371 q 377 132 319 192 q 525 72 435 72 q 676 131 615 72 q 766 278 736 189 q 800 463 796 368 m 426 1119 l 550 1314 q 588 1351 565 1338 q 635 1365 611 1365 q 682 1347 663 1365 q 706 1293 706 1325 q 694 1248 706 1271 q 664 1210 683 1225 l 488 1063 l 426 1119 z "},"Ợ":{"ha":1058,"x_min":54,"x_max":1014,"o":"m 839 910 q 970 737 926 843 q 1014 514 1014 631 q 956 266 1014 390 q 783 60 897 142 q 507 -22 668 -22 q 247 44 349 -22 q 100 217 146 111 q 54 447 54 324 q 56 486 54 474 q 122 726 61 610 q 295 919 182 843 q 564 994 408 994 q 729 968 653 994 q 788 1004 767 975 q 815 1072 808 1033 l 960 1072 q 839 910 936 956 m 800 463 q 801 513 801 479 q 738 795 801 690 q 547 900 674 900 q 387 832 450 900 q 296 665 324 764 q 268 465 268 565 q 294 281 268 371 q 377 132 319 192 q 525 72 435 72 q 676 131 615 72 q 766 278 736 189 q 800 463 796 368 m 507 -96 q 563 -120 540 -96 q 585 -181 585 -144 q 560 -247 585 -219 q 499 -275 536 -275 q 440 -251 463 -275 q 418 -192 418 -226 q 445 -124 418 -153 q 507 -96 472 -96 z "},"Ờ":{"ha":1058,"x_min":54,"x_max":1014,"o":"m 839 910 q 970 737 926 843 q 1014 514 1014 631 q 956 266 1014 390 q 783 60 897 142 q 507 -22 668 -22 q 247 44 349 -22 q 100 217 146 111 q 54 447 54 324 q 56 486 54 474 q 122 726 61 610 q 295 919 182 843 q 564 994 408 994 q 729 968 653 994 q 788 1004 767 975 q 815 1072 808 1033 l 960 1072 q 839 910 936 956 m 800 463 q 801 513 801 479 q 738 795 801 690 q 547 900 674 900 q 387 832 450 900 q 296 665 324 764 q 268 465 268 565 q 294 281 268 371 q 377 132 319 192 q 525 72 435 72 q 676 131 615 72 q 766 278 736 189 q 800 463 796 368 m 472 1211 q 447 1249 457 1228 q 438 1289 438 1269 q 464 1347 438 1322 q 513 1364 489 1364 q 555 1351 535 1364 q 589 1314 575 1338 l 697 1119 l 631 1063 l 472 1211 z "},"Ở":{"ha":1058,"x_min":54,"x_max":1014,"o":"m 839 910 q 970 737 926 843 q 1014 514 1014 631 q 956 266 1014 390 q 783 60 897 142 q 507 -22 668 -22 q 247 44 349 -22 q 100 217 146 111 q 54 447 54 324 q 56 486 54 474 q 122 726 61 610 q 295 919 182 843 q 564 994 408 994 q 729 968 653 994 q 788 1004 767 975 q 815 1072 808 1033 l 960 1072 q 839 910 936 956 m 800 463 q 801 513 801 479 q 738 795 801 690 q 547 900 674 900 q 387 832 450 900 q 296 665 324 764 q 268 465 268 565 q 294 281 268 371 q 377 132 319 192 q 525 72 435 72 q 676 131 615 72 q 766 278 736 189 q 800 463 796 368 m 592 1315 q 702 1288 663 1315 q 742 1210 742 1260 q 739 1179 742 1190 q 718 1138 733 1154 q 674 1103 703 1122 q 640 1078 651 1088 q 626 1054 629 1068 l 535 1054 q 551 1085 539 1072 q 583 1113 563 1097 q 624 1148 611 1132 q 636 1192 636 1164 q 576 1232 636 1232 q 526 1222 540 1232 q 507 1194 513 1211 q 514 1179 514 1189 q 513 1165 514 1171 q 495 1142 510 1151 q 451 1133 481 1133 q 408 1172 408 1133 q 410 1190 408 1183 q 465 1276 419 1238 q 592 1315 511 1315 z "},"Ỡ":{"ha":1058,"x_min":54,"x_max":1014,"o":"m 839 910 q 970 737 926 843 q 1014 514 1014 631 q 956 266 1014 390 q 783 60 897 142 q 507 -22 668 -22 q 247 44 349 -22 q 100 217 146 111 q 54 447 54 324 q 56 486 54 474 q 122 726 61 610 q 295 919 182 843 q 564 994 408 994 q 729 968 653 994 q 788 1004 767 975 q 815 1072 808 1033 l 960 1072 q 839 910 936 956 m 800 463 q 801 513 801 479 q 738 795 801 690 q 547 900 674 900 q 387 832 450 900 q 296 665 324 764 q 268 465 268 565 q 294 281 268 371 q 377 132 319 192 q 525 72 435 72 q 676 131 615 72 q 766 278 736 189 q 800 463 796 368 m 321 1167 q 388 1265 342 1228 q 481 1303 433 1303 q 532 1295 511 1303 q 576 1274 553 1288 q 613 1256 597 1261 q 650 1250 629 1250 q 698 1269 675 1250 q 739 1321 721 1288 l 813 1282 q 742 1163 786 1201 q 650 1124 697 1124 q 602 1131 624 1124 q 554 1153 581 1139 q 516 1170 532 1164 q 483 1176 500 1176 q 438 1163 463 1176 q 394 1119 414 1150 l 321 1167 z "},"Ő":{"ha":1058,"x_min":54,"x_max":1014,"o":"m 564 994 q 818 924 717 994 q 967 745 919 854 q 1014 515 1014 636 q 956 266 1014 390 q 783 60 897 142 q 507 -22 668 -22 q 247 44 349 -22 q 100 217 146 111 q 54 447 54 324 q 56 486 54 474 q 122 726 61 610 q 295 919 182 843 q 564 994 408 994 m 547 900 q 386 832 449 900 q 296 664 324 764 q 268 465 268 564 q 294 281 268 371 q 377 132 319 192 q 525 72 435 72 q 676 131 615 72 q 766 278 736 189 q 800 463 796 368 q 801 513 801 479 q 738 795 801 690 q 547 900 674 900 m 293 1140 l 417 1314 q 465 1362 439 1343 q 515 1381 492 1381 q 549 1368 533 1381 q 568 1326 568 1350 q 554 1280 568 1304 q 519 1236 540 1256 l 353 1083 l 293 1140 m 515 1150 l 661 1307 q 713 1349 686 1333 q 764 1365 740 1365 q 804 1347 788 1365 q 817 1311 817 1331 q 798 1262 817 1288 q 753 1218 779 1236 l 565 1085 l 515 1150 z "},"Ō":{"ha":1058,"x_min":54,"x_max":1014,"o":"m 564 994 q 818 924 717 994 q 967 745 919 854 q 1014 515 1014 636 q 956 266 1014 390 q 783 60 897 142 q 507 -22 668 -22 q 247 44 349 -22 q 100 217 146 111 q 54 447 54 324 q 56 486 54 474 q 122 726 61 610 q 295 919 182 843 q 564 994 408 994 m 547 900 q 386 832 449 900 q 296 664 324 764 q 268 465 268 564 q 294 281 268 371 q 377 132 319 192 q 525 72 435 72 q 676 131 615 72 q 766 278 736 189 q 800 463 796 368 q 801 513 801 479 q 738 795 801 690 q 547 900 674 900 m 354 1151 l 360 1281 l 754 1281 l 749 1156 l 354 1151 z "},"Ø":{"ha":1057,"x_min":54,"x_max":1015,"o":"m 964 1019 l 875 879 q 980 715 944 811 q 1015 517 1015 619 q 957 267 1015 392 q 783 60 899 142 q 507 -22 668 -22 q 318 10 399 -22 l 221 -142 l 121 -72 l 211 69 q 92 235 131 135 q 54 449 54 335 l 56 486 q 122 726 61 610 q 295 919 182 843 q 564 994 408 994 q 771 951 682 994 l 858 1088 l 964 1019 m 546 900 q 394 840 454 900 q 303 690 333 781 q 269 503 274 599 q 268 461 268 489 q 313 229 268 328 l 701 840 q 546 900 642 900 m 389 119 q 526 72 447 72 q 676 131 617 72 q 766 279 736 190 q 800 463 796 368 q 801 515 801 481 q 772 719 801 632 l 389 119 z "},"Õ":{"ha":1058,"x_min":54,"x_max":1014,"o":"m 564 994 q 818 924 717 994 q 967 745 919 854 q 1014 515 1014 636 q 956 266 1014 390 q 783 60 897 142 q 507 -22 668 -22 q 247 44 349 -22 q 100 217 146 111 q 54 447 54 324 q 56 486 54 474 q 122 726 61 610 q 295 919 182 843 q 564 994 408 994 m 547 900 q 386 832 449 900 q 296 664 324 764 q 268 465 268 564 q 294 281 268 371 q 377 132 319 192 q 525 72 435 72 q 676 131 615 72 q 766 278 736 189 q 800 463 796 368 q 801 513 801 479 q 738 795 801 690 q 547 900 674 900 m 469 1178 q 404 1163 438 1178 q 346 1110 371 1147 l 275 1154 q 357 1264 304 1226 q 464 1301 410 1301 q 522 1292 496 1301 q 579 1264 547 1282 q 627 1240 608 1247 q 668 1232 646 1232 q 733 1256 697 1232 q 788 1318 768 1281 l 860 1281 q 777 1146 826 1183 q 675 1108 728 1108 q 621 1117 646 1108 q 565 1144 596 1126 q 515 1169 536 1161 q 469 1178 494 1178 z "},"Œ":{"ha":1410,"x_min":53,"x_max":1347,"o":"m 578 994 q 665 989 615 994 q 754 972 714 983 l 1335 972 l 1329 703 l 1238 703 q 1196 845 1243 806 q 1078 882 1149 885 l 1028 881 q 975 872 994 879 q 944 838 956 864 q 929 760 932 813 l 918 551 l 1082 551 q 1081 601 1081 579 q 1082 636 1082 622 l 1082 672 l 1189 672 l 1171 335 l 1079 335 q 1067 417 1082 390 q 1024 451 1051 443 q 950 457 996 458 l 913 456 l 901 228 q 889 106 896 138 l 1075 106 q 1198 153 1146 106 q 1256 306 1250 201 l 1347 306 l 1322 0 l 704 0 q 503 -22 617 -25 q 266 40 368 -21 q 108 203 164 100 q 53 436 53 307 q 110 704 53 576 q 285 913 167 832 q 578 994 403 994 m 586 894 q 406 835 478 894 q 301 680 335 776 q 268 468 268 583 q 349 190 268 292 q 575 88 429 88 q 697 108 639 88 l 731 744 q 740 854 732 806 q 586 894 676 894 z "},"P":{"ha":878,"x_min":49,"x_max":872,"o":"m 492 975 q 772 907 671 976 q 872 694 872 838 q 871 660 872 671 q 817 513 864 582 q 680 400 769 444 q 464 351 590 356 l 410 350 l 364 351 l 357 229 q 346 103 351 138 q 463 107 389 107 l 458 0 l 49 0 l 54 92 q 110 101 90 93 q 143 133 131 108 q 158 213 156 158 l 186 744 q 199 869 190 824 l 94 865 l 100 972 l 492 975 m 485 878 q 413 857 436 878 q 385 768 389 836 l 369 456 q 432 451 399 451 q 599 507 544 451 q 661 672 654 563 q 485 878 671 878 z "},"Þ":{"ha":875,"x_min":49,"x_max":860,"o":"m 490 881 q 438 874 457 879 q 406 849 419 868 q 388 792 393 831 l 471 793 q 860 529 860 797 q 858 499 860 510 q 803 358 851 422 q 663 254 754 294 q 446 211 572 214 l 397 210 l 356 211 q 346 103 351 144 q 450 107 389 107 l 444 0 l 49 0 l 54 92 q 110 101 90 93 q 143 133 131 108 q 158 213 156 158 l 186 744 q 199 869 190 824 l 94 865 l 100 972 l 494 972 l 490 881 m 382 694 l 361 313 q 413 310 394 310 q 588 364 532 310 q 644 529 644 418 q 590 664 644 633 q 463 694 535 694 l 382 694 z "},"Q":{"ha":1061,"x_min":53,"x_max":1065,"o":"m 565 994 q 820 925 718 994 q 970 747 922 856 q 1018 517 1018 638 q 980 316 1018 418 q 866 131 942 214 q 682 8 790 49 l 682 7 q 786 -8 746 7 q 875 -71 826 -22 l 931 -125 q 1010 -196 989 -182 q 1065 -210 1031 -210 l 1060 -303 l 1003 -303 q 898 -298 933 -303 q 834 -278 863 -293 q 767 -228 806 -262 q 718 -180 743 -207 q 683 -142 693 -153 q 588 -50 626 -78 q 493 -22 549 -22 q 240 45 339 -22 q 97 219 142 113 q 53 450 53 326 l 54 486 q 122 726 61 610 q 296 919 182 843 q 565 994 410 994 m 549 893 q 388 828 450 893 q 297 665 325 763 q 268 469 268 568 q 293 285 268 374 q 376 138 318 197 q 525 79 433 79 q 676 136 615 79 q 766 281 736 193 q 800 463 796 368 q 801 518 801 482 q 738 792 801 692 q 549 893 675 893 z "},"R":{"ha":946,"x_min":49,"x_max":911,"o":"m 492 975 q 772 914 674 976 q 869 711 869 851 q 868 676 869 689 q 796 513 861 585 q 611 408 731 442 l 611 407 q 660 373 635 397 q 703 319 685 349 l 763 222 q 837 120 807 147 q 911 92 867 93 l 906 0 l 681 0 q 585 131 642 29 l 492 297 q 438 378 464 347 l 365 378 l 357 229 q 346 103 351 138 q 463 107 389 107 l 458 0 l 49 0 l 54 92 q 110 101 90 93 q 143 133 131 108 q 158 213 156 158 l 186 744 q 199 869 190 824 l 94 865 l 100 972 l 492 975 m 485 878 q 413 857 436 878 q 385 768 389 836 l 371 483 q 438 478 413 478 q 610 533 557 478 q 664 706 664 589 q 608 844 664 811 q 485 878 553 878 z "},"Ŕ":{"ha":946,"x_min":49,"x_max":911,"o":"m 492 975 q 772 914 674 976 q 869 711 869 851 q 868 676 869 689 q 796 513 861 585 q 611 408 731 442 l 611 407 q 660 373 635 397 q 703 319 685 349 l 763 222 q 837 120 807 147 q 911 92 867 93 l 906 0 l 681 0 q 585 131 642 29 l 492 297 q 438 378 464 347 l 365 378 l 357 229 q 346 103 351 138 q 463 107 389 107 l 458 0 l 49 0 l 54 92 q 110 101 90 93 q 143 133 131 108 q 158 213 156 158 l 186 744 q 199 869 190 824 l 94 865 l 100 972 l 492 975 m 485 878 q 413 857 436 878 q 385 768 389 836 l 371 483 q 438 478 413 478 q 610 533 557 478 q 664 706 664 589 q 608 844 664 811 q 485 878 553 878 m 350 1125 l 474 1319 q 512 1357 489 1343 q 558 1371 535 1371 q 606 1353 586 1371 q 629 1299 629 1331 q 618 1253 629 1276 q 588 1215 607 1231 l 411 1068 l 350 1125 z "},"Ř":{"ha":946,"x_min":49,"x_max":911,"o":"m 492 975 q 772 914 674 976 q 869 711 869 851 q 868 676 869 689 q 796 513 861 585 q 611 408 731 442 l 611 407 q 660 373 635 397 q 703 319 685 349 l 763 222 q 837 120 807 147 q 911 92 867 93 l 906 0 l 681 0 q 585 131 642 29 l 492 297 q 438 378 464 347 l 365 378 l 357 229 q 346 103 351 138 q 463 107 389 107 l 458 0 l 49 0 l 54 92 q 110 101 90 93 q 143 133 131 108 q 158 213 156 158 l 186 744 q 199 869 190 824 l 94 865 l 100 972 l 492 975 m 485 878 q 413 857 436 878 q 385 768 389 836 l 371 483 q 438 478 413 478 q 610 533 557 478 q 664 706 664 589 q 608 844 664 811 q 485 878 553 878 m 499 1075 l 471 1075 l 211 1285 l 250 1342 l 500 1221 l 765 1342 l 793 1286 l 499 1075 z "},"Ŗ":{"ha":946,"x_min":49,"x_max":911,"o":"m 492 975 q 772 914 674 976 q 869 711 869 851 q 868 676 869 689 q 796 513 861 585 q 611 408 731 442 l 611 407 q 660 373 635 397 q 703 319 685 349 l 763 222 q 837 120 807 147 q 911 92 867 93 l 906 0 l 681 0 q 585 131 642 29 l 492 297 q 438 378 464 347 l 365 378 l 357 229 q 346 103 351 138 q 463 107 389 107 l 458 0 l 49 0 l 54 92 q 110 101 90 93 q 143 133 131 108 q 158 213 156 158 l 186 744 q 199 869 190 824 l 94 865 l 100 972 l 492 975 m 485 878 q 413 857 436 878 q 385 768 389 836 l 371 483 q 438 478 413 478 q 610 533 557 478 q 664 706 664 589 q 608 844 664 811 q 485 878 553 878 m 289 -351 q 349 -242 332 -286 q 365 -151 365 -197 q 360 -83 365 -133 l 510 -50 q 531 -150 535 -99 q 480 -278 528 -208 q 361 -408 432 -347 l 289 -351 z "},"S":{"ha":833,"x_min":61,"x_max":781,"o":"m 417 994 q 540 977 476 994 q 646 928 604 960 l 647 928 l 646 985 l 753 985 l 736 661 l 644 661 q 574 835 632 775 q 419 894 515 894 q 308 858 356 894 q 261 768 261 822 q 310 668 261 710 q 475 579 360 626 q 628 503 564 542 q 737 403 693 464 q 776 258 781 342 q 724 113 772 176 q 593 13 676 49 q 404 -22 510 -22 q 284 -4 349 -22 q 168 46 219 14 l 167 46 l 168 -12 l 61 -12 l 78 313 l 169 313 q 248 138 182 199 q 414 78 314 78 q 538 118 489 78 q 588 215 588 158 q 558 289 588 258 q 488 339 528 319 q 375 389 449 358 q 154 520 231 447 q 78 710 78 593 q 110 841 78 776 q 219 950 143 906 q 417 994 296 994 z "},"Ś":{"ha":833,"x_min":61,"x_max":776,"o":"m 417 994 q 540 977 476 994 q 646 928 604 960 l 647 928 l 646 985 l 753 985 l 736 661 l 644 661 q 574 835 632 775 q 419 894 515 894 q 308 858 356 894 q 261 768 261 822 q 310 668 261 710 q 475 579 360 626 q 628 503 564 542 q 737 403 693 464 q 776 258 781 342 q 724 113 772 176 q 593 13 676 49 q 404 -22 510 -22 q 284 -4 349 -22 q 168 46 219 14 l 167 46 l 168 -12 l 61 -12 l 78 313 l 169 313 q 248 138 182 199 q 414 78 314 78 q 538 118 489 78 q 588 215 588 158 q 558 289 588 258 q 488 339 528 319 q 375 389 449 358 q 154 520 231 447 q 78 710 78 593 q 110 841 78 776 q 219 950 143 906 q 417 994 296 994 m 319 1119 l 443 1314 q 481 1351 458 1338 q 528 1365 504 1365 q 575 1347 556 1365 q 599 1293 599 1325 q 588 1248 599 1271 q 557 1210 576 1225 l 381 1063 l 319 1119 z "},"Š":{"ha":833,"x_min":61,"x_max":776,"o":"m 417 994 q 540 977 476 994 q 646 928 604 960 l 647 928 l 646 985 l 753 985 l 736 661 l 644 661 q 574 835 632 775 q 419 894 515 894 q 308 858 356 894 q 261 768 261 822 q 310 668 261 710 q 475 579 360 626 q 628 503 564 542 q 737 403 693 464 q 776 258 781 342 q 724 113 772 176 q 593 13 676 49 q 404 -22 510 -22 q 284 -4 349 -22 q 168 46 219 14 l 167 46 l 168 -12 l 61 -12 l 78 313 l 169 313 q 248 138 182 199 q 414 78 314 78 q 538 118 489 78 q 588 215 588 158 q 558 289 588 258 q 488 339 528 319 q 375 389 449 358 q 154 520 231 447 q 78 710 78 593 q 110 841 78 776 q 219 950 143 906 q 417 994 296 994 m 468 1069 l 440 1069 l 181 1279 l 219 1336 l 469 1215 l 735 1336 l 763 1281 l 468 1069 z "},"Ş":{"ha":833,"x_min":61,"x_max":776,"o":"m 475 579 q 624 506 561 543 q 732 410 688 468 q 776 271 776 351 q 691 75 776 154 q 465 -19 606 -4 l 433 -96 l 435 -96 q 481 -81 451 -87 q 531 -74 511 -74 q 600 -97 574 -75 q 626 -162 626 -119 q 526 -297 626 -251 q 301 -360 425 -343 l 294 -287 q 468 -197 468 -256 q 458 -173 468 -181 q 431 -165 447 -165 q 399 -171 415 -165 q 372 -185 383 -176 l 321 -162 l 364 -19 q 263 3 314 -14 q 168 46 211 19 l 167 46 l 168 -12 l 61 -12 l 78 313 l 169 313 q 248 138 182 199 q 414 78 314 78 q 538 118 489 78 q 588 215 588 158 q 558 289 588 258 q 488 339 528 319 q 375 389 449 358 q 154 520 231 447 q 78 710 78 593 q 110 841 78 776 q 219 950 143 906 q 417 994 296 994 q 540 977 476 994 q 646 928 604 960 l 647 928 l 646 985 l 753 985 l 736 661 l 644 661 q 574 835 632 775 q 419 894 515 894 q 308 858 356 894 q 261 768 261 822 q 310 668 261 710 q 475 579 360 626 z "},"Ŝ":{"ha":833,"x_min":61,"x_max":776,"o":"m 417 994 q 540 977 476 994 q 646 928 604 960 l 647 928 l 646 985 l 753 985 l 736 661 l 644 661 q 574 835 632 775 q 419 894 515 894 q 308 858 356 894 q 261 768 261 822 q 310 668 261 710 q 475 579 360 626 q 628 503 564 542 q 737 403 693 464 q 776 258 781 342 q 724 113 772 176 q 593 13 676 49 q 404 -22 510 -22 q 284 -4 349 -22 q 168 46 219 14 l 167 46 l 168 -12 l 61 -12 l 78 313 l 169 313 q 248 138 182 199 q 414 78 314 78 q 538 118 489 78 q 588 215 588 158 q 558 289 588 258 q 488 339 528 319 q 375 389 449 358 q 154 520 231 447 q 78 710 78 593 q 110 841 78 776 q 219 950 143 906 q 417 994 296 994 m 722 1082 l 474 1204 l 206 1085 l 179 1140 l 474 1349 l 500 1349 l 761 1140 l 722 1082 z "},"Ș":{"ha":833,"x_min":61,"x_max":776,"o":"m 417 994 q 540 977 476 994 q 646 928 604 960 l 647 928 l 646 985 l 753 985 l 736 661 l 644 661 q 574 835 632 775 q 419 894 515 894 q 308 858 356 894 q 261 768 261 822 q 310 668 261 710 q 475 579 360 626 q 628 503 564 542 q 737 403 693 464 q 776 258 781 342 q 724 113 772 176 q 593 13 676 49 q 404 -22 510 -22 q 284 -4 349 -22 q 168 46 219 14 l 167 46 l 168 -12 l 61 -12 l 78 313 l 169 313 q 248 138 182 199 q 414 78 314 78 q 538 118 489 78 q 588 215 588 158 q 558 289 588 258 q 488 339 528 319 q 375 389 449 358 q 154 520 231 447 q 78 710 78 593 q 110 841 78 776 q 219 950 143 906 q 417 994 296 994 m 278 -351 q 338 -242 321 -286 q 354 -151 354 -197 q 349 -83 354 -133 l 499 -50 q 519 -150 524 -99 q 469 -278 517 -208 q 350 -408 421 -347 l 278 -351 z "},"T":{"ha":900,"x_min":40,"x_max":903,"o":"m 894 658 l 803 658 q 766 824 808 768 q 643 879 724 881 l 576 879 l 543 228 q 531 103 539 149 q 642 107 575 107 l 636 0 l 233 0 l 239 92 q 297 101 276 93 q 329 133 317 108 q 344 213 342 158 l 379 878 l 315 878 q 185 822 233 876 q 132 658 138 768 l 40 658 l 64 972 l 903 972 l 894 658 z "},"Ť":{"ha":900,"x_min":40,"x_max":903,"o":"m 894 658 l 803 658 q 766 824 808 768 q 643 879 724 881 l 576 879 l 543 228 q 531 103 539 149 q 642 107 575 107 l 636 0 l 233 0 l 239 92 q 297 101 276 93 q 329 133 317 108 q 344 213 342 158 l 379 878 l 315 878 q 185 822 233 876 q 132 658 138 768 l 40 658 l 64 972 l 903 972 l 894 658 m 494 1069 l 467 1069 l 207 1279 l 246 1336 l 496 1215 l 761 1336 l 789 1281 l 494 1069 z "},"Ţ":{"ha":900,"x_min":40,"x_max":903,"o":"m 903 972 l 894 658 l 803 658 q 766 824 808 768 q 643 879 724 881 l 576 879 l 543 228 q 531 103 539 149 q 642 107 575 107 l 636 0 l 488 0 l 447 -96 l 449 -96 q 495 -81 465 -87 q 544 -74 525 -74 q 614 -97 588 -75 q 640 -162 640 -119 q 540 -297 640 -251 q 315 -360 439 -343 l 308 -287 q 482 -197 482 -256 q 472 -173 482 -181 q 444 -165 461 -165 q 413 -171 429 -165 q 386 -185 397 -176 l 335 -162 l 383 0 l 233 0 l 239 92 q 297 101 276 93 q 329 133 317 108 q 344 213 342 158 l 379 878 l 315 878 q 185 822 233 876 q 132 658 138 768 l 40 658 l 64 972 l 903 972 z "},"Ț":{"ha":900,"x_min":40,"x_max":903,"o":"m 894 658 l 803 658 q 766 824 808 768 q 643 879 724 881 l 576 879 l 543 228 q 531 103 539 149 q 642 107 575 107 l 636 0 l 233 0 l 239 92 q 297 101 276 93 q 329 133 317 108 q 344 213 342 158 l 379 878 l 315 878 q 185 822 233 876 q 132 658 138 768 l 40 658 l 64 972 l 903 972 l 894 658 m 292 -351 q 351 -242 335 -286 q 368 -151 368 -197 q 363 -83 368 -133 l 513 -50 q 533 -150 538 -99 q 483 -278 531 -208 q 364 -408 435 -347 l 292 -351 z "},"U":{"ha":1049,"x_min":60,"x_max":1050,"o":"m 1044 881 q 988 872 1008 879 q 956 839 968 864 q 940 760 943 814 l 922 413 q 799 81 910 185 q 510 -22 689 -22 q 219 81 306 -22 q 133 361 133 183 q 135 408 133 392 l 153 744 q 165 869 158 839 l 60 865 l 65 972 l 463 972 l 457 881 q 399 872 419 879 q 367 839 379 864 q 351 760 354 814 l 332 378 l 331 342 q 550 83 331 83 q 724 158 661 83 q 796 381 788 232 l 815 744 q 828 869 821 839 l 724 865 l 728 972 l 1050 972 l 1044 881 z "},"Ú":{"ha":1049,"x_min":60,"x_max":1050,"o":"m 1044 881 q 988 872 1008 879 q 956 839 968 864 q 940 760 943 814 l 922 413 q 799 81 910 185 q 510 -22 689 -22 q 219 81 306 -22 q 133 361 133 183 q 135 408 133 392 l 153 744 q 165 869 158 839 l 60 865 l 65 972 l 463 972 l 457 881 q 399 872 419 879 q 367 839 379 864 q 351 760 354 814 l 332 378 l 331 342 q 550 83 331 83 q 724 158 661 83 q 796 381 788 232 l 815 744 q 828 869 821 839 l 724 865 l 728 972 l 1050 972 l 1044 881 m 496 1136 l 665 1300 q 705 1327 683 1317 q 747 1338 726 1338 q 800 1310 782 1338 q 813 1271 813 1292 q 795 1224 813 1247 q 751 1186 778 1201 l 543 1069 l 496 1136 z "},"Ŭ":{"ha":1049,"x_min":60,"x_max":1050,"o":"m 1044 881 q 988 872 1008 879 q 956 839 968 864 q 940 760 943 814 l 922 413 q 799 81 910 185 q 510 -22 689 -22 q 219 81 306 -22 q 133 361 133 183 q 135 408 133 392 l 153 744 q 165 869 158 839 l 60 865 l 65 972 l 463 972 l 457 881 q 399 872 419 879 q 367 839 379 864 q 351 760 354 814 l 332 378 l 331 342 q 550 83 331 83 q 724 158 661 83 q 796 381 788 232 l 815 744 q 828 869 821 839 l 724 865 l 728 972 l 1050 972 l 1044 881 m 611 1093 q 465 1139 535 1093 q 358 1278 396 1185 l 442 1318 q 618 1215 517 1215 q 790 1318 719 1215 l 868 1285 q 761 1140 825 1186 q 611 1093 697 1093 z "},"Û":{"ha":1049,"x_min":60,"x_max":1050,"o":"m 1044 881 q 988 872 1008 879 q 956 839 968 864 q 940 760 943 814 l 922 413 q 799 81 910 185 q 510 -22 689 -22 q 219 81 306 -22 q 133 361 133 183 q 135 408 133 392 l 153 744 q 165 869 158 839 l 60 865 l 65 972 l 463 972 l 457 881 q 399 872 419 879 q 367 839 379 864 q 351 760 354 814 l 332 378 l 331 342 q 550 83 331 83 q 724 158 661 83 q 796 381 788 232 l 815 744 q 828 869 821 839 l 724 865 l 728 972 l 1050 972 l 1044 881 m 849 1082 l 600 1204 l 332 1085 l 306 1140 l 600 1349 l 626 1349 l 888 1140 l 849 1082 z "},"Ü":{"ha":1049,"x_min":60,"x_max":1050,"o":"m 1044 881 q 988 872 1008 879 q 956 839 968 864 q 940 760 943 814 l 922 413 q 799 81 910 185 q 510 -22 689 -22 q 219 81 306 -22 q 133 361 133 183 q 135 408 133 392 l 153 744 q 165 869 158 839 l 60 865 l 65 972 l 463 972 l 457 881 q 399 872 419 879 q 367 839 379 864 q 351 760 354 814 l 332 378 l 331 342 q 550 83 331 83 q 724 158 661 83 q 796 381 788 232 l 815 744 q 828 869 821 839 l 724 865 l 728 972 l 1050 972 l 1044 881 m 472 1107 q 413 1135 438 1107 q 389 1206 389 1164 q 418 1285 389 1251 q 486 1318 447 1318 q 545 1290 522 1318 q 568 1219 568 1261 q 540 1140 568 1174 q 472 1107 513 1107 m 715 1107 q 656 1135 679 1107 q 632 1206 632 1164 q 660 1285 632 1251 q 728 1318 689 1318 q 787 1290 764 1318 q 810 1219 810 1261 q 782 1140 810 1174 q 715 1107 754 1107 z "},"Ụ":{"ha":1049,"x_min":60,"x_max":1050,"o":"m 1044 881 q 988 872 1008 879 q 956 839 968 864 q 940 760 943 814 l 922 413 q 799 81 910 185 q 510 -22 689 -22 q 219 81 306 -22 q 133 361 133 183 q 135 408 133 392 l 153 744 q 165 869 158 839 l 60 865 l 65 972 l 463 972 l 457 881 q 399 872 419 879 q 367 839 379 864 q 351 760 354 814 l 332 378 l 331 342 q 550 83 331 83 q 724 158 661 83 q 796 381 788 232 l 815 744 q 828 869 821 839 l 724 865 l 728 972 l 1050 972 l 1044 881 m 503 -96 q 558 -120 536 -96 q 581 -181 581 -144 q 556 -247 581 -219 q 494 -275 532 -275 q 436 -251 458 -275 q 414 -192 414 -226 q 441 -124 414 -153 q 503 -96 468 -96 z "},"Ù":{"ha":1049,"x_min":60,"x_max":1050,"o":"m 1044 881 q 988 872 1008 879 q 956 839 968 864 q 940 760 943 814 l 922 413 q 799 81 910 185 q 510 -22 689 -22 q 219 81 306 -22 q 133 361 133 183 q 135 408 133 392 l 153 744 q 165 869 158 839 l 60 865 l 65 972 l 463 972 l 457 881 q 399 872 419 879 q 367 839 379 864 q 351 760 354 814 l 332 378 l 331 342 q 550 83 331 83 q 724 158 661 83 q 796 381 788 232 l 815 744 q 828 869 821 839 l 724 865 l 728 972 l 1050 972 l 1044 881 m 458 1186 q 420 1222 435 1200 q 406 1267 406 1243 q 422 1310 406 1289 q 478 1338 444 1338 q 557 1300 519 1338 l 708 1138 l 654 1069 l 458 1186 z "},"Ủ":{"ha":1049,"x_min":60,"x_max":1050,"o":"m 1044 881 q 988 872 1008 879 q 956 839 968 864 q 940 760 943 814 l 922 413 q 799 81 910 185 q 510 -22 689 -22 q 219 81 306 -22 q 133 361 133 183 q 135 408 133 392 l 153 744 q 165 869 158 839 l 60 865 l 65 972 l 463 972 l 457 881 q 399 872 419 879 q 367 839 379 864 q 351 760 354 814 l 332 378 l 331 342 q 550 83 331 83 q 724 158 661 83 q 796 381 788 232 l 815 744 q 828 869 821 839 l 724 865 l 728 972 l 1050 972 l 1044 881 m 624 1315 q 734 1288 694 1315 q 774 1210 774 1260 q 771 1179 774 1190 q 750 1138 765 1154 q 706 1103 735 1122 q 672 1078 683 1088 q 658 1054 661 1068 l 567 1054 q 583 1085 571 1072 q 615 1113 594 1097 q 656 1148 643 1132 q 668 1192 668 1164 q 608 1232 668 1232 q 558 1222 572 1232 q 539 1194 544 1211 q 546 1179 546 1189 q 544 1165 546 1171 q 527 1142 542 1151 q 483 1133 513 1133 q 440 1172 440 1133 q 442 1190 440 1183 q 497 1276 451 1238 q 624 1315 543 1315 z "},"Ư":{"ha":1049,"x_min":60,"x_max":1178,"o":"m 1178 1072 q 1103 939 1161 988 q 947 883 1044 890 l 922 413 q 799 81 910 185 q 510 -22 689 -22 q 219 81 306 -22 q 133 361 133 183 q 135 408 133 392 l 153 744 q 165 869 158 839 l 60 865 l 65 972 l 463 972 l 457 881 q 399 872 419 879 q 367 839 379 864 q 351 760 354 814 l 332 378 l 331 342 q 550 83 331 83 q 724 158 661 83 q 796 381 788 232 l 815 744 q 828 869 821 839 l 724 865 l 728 972 l 951 972 l 951 969 q 1006 1006 986 976 q 1033 1072 1026 1035 l 1178 1072 z "},"Ứ":{"ha":1049,"x_min":60,"x_max":1178,"o":"m 1178 1072 q 1103 939 1161 988 q 947 883 1044 890 l 922 413 q 799 81 910 185 q 510 -22 689 -22 q 219 81 306 -22 q 133 361 133 183 q 135 408 133 392 l 153 744 q 165 869 158 839 l 60 865 l 65 972 l 463 972 l 457 881 q 399 872 419 879 q 367 839 379 864 q 351 760 354 814 l 332 378 l 331 342 q 550 83 331 83 q 724 158 661 83 q 796 381 788 232 l 815 744 q 828 869 821 839 l 724 865 l 728 972 l 951 972 l 951 969 q 1006 1006 986 976 q 1033 1072 1026 1035 l 1178 1072 m 458 1119 l 582 1314 q 620 1351 597 1338 q 667 1365 643 1365 q 714 1347 694 1365 q 738 1293 738 1325 q 726 1248 738 1271 q 696 1210 715 1225 l 519 1063 l 458 1119 z "},"Ự":{"ha":1049,"x_min":60,"x_max":1178,"o":"m 1178 1072 q 1103 939 1161 988 q 947 883 1044 890 l 922 413 q 799 81 910 185 q 510 -22 689 -22 q 219 81 306 -22 q 133 361 133 183 q 135 408 133 392 l 153 744 q 165 869 158 839 l 60 865 l 65 972 l 463 972 l 457 881 q 399 872 419 879 q 367 839 379 864 q 351 760 354 814 l 332 378 l 331 342 q 550 83 331 83 q 724 158 661 83 q 796 381 788 232 l 815 744 q 828 869 821 839 l 724 865 l 728 972 l 951 972 l 951 969 q 1006 1006 986 976 q 1033 1072 1026 1035 l 1178 1072 m 503 -96 q 558 -120 536 -96 q 581 -181 581 -144 q 556 -247 581 -219 q 494 -275 532 -275 q 436 -251 458 -275 q 414 -192 414 -226 q 441 -124 414 -153 q 503 -96 468 -96 z "},"Ừ":{"ha":1049,"x_min":60,"x_max":1178,"o":"m 1178 1072 q 1103 939 1161 988 q 947 883 1044 890 l 922 413 q 799 81 910 185 q 510 -22 689 -22 q 219 81 306 -22 q 133 361 133 183 q 135 408 133 392 l 153 744 q 165 869 158 839 l 60 865 l 65 972 l 463 972 l 457 881 q 399 872 419 879 q 367 839 379 864 q 351 760 354 814 l 332 378 l 331 342 q 550 83 331 83 q 724 158 661 83 q 796 381 788 232 l 815 744 q 828 869 821 839 l 724 865 l 728 972 l 951 972 l 951 969 q 1006 1006 986 976 q 1033 1072 1026 1035 l 1178 1072 m 504 1211 q 479 1249 489 1228 q 469 1289 469 1269 q 496 1347 469 1322 q 544 1364 521 1364 q 587 1351 567 1364 q 621 1314 607 1338 l 729 1119 l 663 1063 l 504 1211 z "},"Ử":{"ha":1049,"x_min":60,"x_max":1178,"o":"m 1178 1072 q 1103 939 1161 988 q 947 883 1044 890 l 922 413 q 799 81 910 185 q 510 -22 689 -22 q 219 81 306 -22 q 133 361 133 183 q 135 408 133 392 l 153 744 q 165 869 158 839 l 60 865 l 65 972 l 463 972 l 457 881 q 399 872 419 879 q 367 839 379 864 q 351 760 354 814 l 332 378 l 331 342 q 550 83 331 83 q 724 158 661 83 q 796 381 788 232 l 815 744 q 828 869 821 839 l 724 865 l 728 972 l 951 972 l 951 969 q 1006 1006 986 976 q 1033 1072 1026 1035 l 1178 1072 m 624 1315 q 734 1288 694 1315 q 774 1210 774 1260 q 771 1179 774 1190 q 750 1138 765 1154 q 706 1103 735 1122 q 672 1078 683 1088 q 658 1054 661 1068 l 567 1054 q 583 1085 571 1072 q 615 1113 594 1097 q 656 1148 643 1132 q 668 1192 668 1164 q 608 1232 668 1232 q 558 1222 572 1232 q 539 1194 544 1211 q 546 1179 546 1189 q 544 1165 546 1171 q 527 1142 542 1151 q 483 1133 513 1133 q 440 1172 440 1133 q 442 1190 440 1183 q 497 1276 451 1238 q 624 1315 543 1315 z "},"Ữ":{"ha":1049,"x_min":60,"x_max":1178,"o":"m 1178 1072 q 1103 939 1161 988 q 947 883 1044 890 l 922 413 q 799 81 910 185 q 510 -22 689 -22 q 219 81 306 -22 q 133 361 133 183 q 135 408 133 392 l 153 744 q 165 869 158 839 l 60 865 l 65 972 l 463 972 l 457 881 q 399 872 419 879 q 367 839 379 864 q 351 760 354 814 l 332 378 l 331 342 q 550 83 331 83 q 724 158 661 83 q 796 381 788 232 l 815 744 q 828 869 821 839 l 724 865 l 728 972 l 951 972 l 951 969 q 1006 1006 986 976 q 1033 1072 1026 1035 l 1178 1072 m 353 1167 q 419 1265 374 1228 q 513 1303 465 1303 q 564 1295 543 1303 q 608 1274 585 1288 q 645 1256 629 1261 q 682 1250 661 1250 q 730 1269 707 1250 q 771 1321 753 1288 l 844 1282 q 774 1163 818 1201 q 682 1124 729 1124 q 634 1131 656 1124 q 586 1153 613 1139 q 548 1170 564 1164 q 515 1176 532 1176 q 470 1163 494 1176 q 426 1119 446 1150 l 353 1167 z "},"Ű":{"ha":1049,"x_min":60,"x_max":1050,"o":"m 1044 881 q 988 872 1008 879 q 956 839 968 864 q 940 760 943 814 l 922 413 q 799 81 910 185 q 510 -22 689 -22 q 219 81 306 -22 q 133 361 133 183 q 135 408 133 392 l 153 744 q 165 869 158 839 l 60 865 l 65 972 l 463 972 l 457 881 q 399 872 419 879 q 367 839 379 864 q 351 760 354 814 l 332 378 l 331 342 q 550 83 331 83 q 724 158 661 83 q 796 381 788 232 l 815 744 q 828 869 821 839 l 724 865 l 728 972 l 1050 972 l 1044 881 m 325 1140 l 449 1314 q 497 1362 471 1343 q 547 1381 524 1381 q 581 1368 565 1381 q 600 1326 600 1350 q 586 1280 600 1304 q 551 1236 572 1256 l 385 1083 l 325 1140 m 547 1150 l 693 1307 q 745 1349 718 1333 q 796 1365 772 1365 q 836 1347 819 1365 q 849 1311 849 1331 q 830 1262 849 1288 q 785 1218 811 1236 l 597 1085 l 547 1150 z "},"Ū":{"ha":1049,"x_min":60,"x_max":1050,"o":"m 1044 881 q 988 872 1008 879 q 956 839 968 864 q 940 760 943 814 l 922 413 q 799 81 910 185 q 510 -22 689 -22 q 219 81 306 -22 q 133 361 133 183 q 135 408 133 392 l 153 744 q 165 869 158 839 l 60 865 l 65 972 l 463 972 l 457 881 q 399 872 419 879 q 367 839 379 864 q 351 760 354 814 l 332 378 l 331 342 q 550 83 331 83 q 724 158 661 83 q 796 381 788 232 l 815 744 q 828 869 821 839 l 724 865 l 728 972 l 1050 972 l 1044 881 m 386 1151 l 392 1281 l 786 1281 l 781 1156 l 386 1151 z "},"Ų":{"ha":1049,"x_min":60,"x_max":1050,"o":"m 1050 972 l 1044 881 q 988 872 1008 879 q 956 839 968 864 q 940 760 943 814 l 922 413 q 685 8 904 93 l 685 7 q 555 -74 610 -22 q 500 -182 500 -126 q 515 -220 500 -206 q 557 -235 531 -235 q 646 -194 599 -235 l 692 -254 q 601 -332 651 -303 q 503 -361 551 -361 q 402 -327 440 -361 q 364 -231 364 -293 q 394 -119 364 -172 q 479 -22 425 -67 q 213 88 292 -14 q 133 360 133 189 q 135 408 133 392 l 153 744 q 165 869 158 839 l 60 865 l 65 972 l 463 972 l 457 881 q 399 872 419 879 q 367 839 379 864 q 351 760 354 814 l 332 378 l 331 342 q 550 83 331 83 q 724 158 661 83 q 796 381 788 232 l 815 744 q 828 869 821 839 l 724 865 l 728 972 l 1050 972 z "},"Ů":{"ha":1049,"x_min":60,"x_max":1050,"o":"m 1044 881 q 988 872 1008 879 q 956 839 968 864 q 940 760 943 814 l 922 413 q 799 81 910 185 q 510 -22 689 -22 q 219 81 306 -22 q 133 361 133 183 q 135 408 133 392 l 153 744 q 165 869 158 839 l 60 865 l 65 972 l 463 972 l 457 881 q 399 872 419 879 q 367 839 379 864 q 351 760 354 814 l 332 378 l 331 342 q 550 83 331 83 q 724 158 661 83 q 796 381 788 232 l 815 744 q 828 869 821 839 l 724 865 l 728 972 l 1050 972 l 1044 881 m 578 1060 q 469 1101 517 1060 q 421 1211 421 1142 q 445 1297 421 1258 q 510 1359 469 1336 q 593 1382 550 1382 q 703 1343 657 1382 q 750 1232 750 1304 q 724 1142 750 1182 q 659 1081 699 1103 q 578 1060 619 1060 m 589 1143 q 625 1165 610 1144 q 640 1221 640 1186 q 626 1280 640 1260 q 589 1300 611 1300 q 551 1279 567 1299 q 535 1222 535 1260 q 549 1164 535 1185 q 589 1143 564 1143 z "},"Ũ":{"ha":1049,"x_min":60,"x_max":1050,"o":"m 1044 881 q 988 872 1008 879 q 956 839 968 864 q 940 760 943 814 l 922 413 q 799 81 910 185 q 510 -22 689 -22 q 219 81 306 -22 q 133 361 133 183 q 135 408 133 392 l 153 744 q 165 869 158 839 l 60 865 l 65 972 l 463 972 l 457 881 q 399 872 419 879 q 367 839 379 864 q 351 760 354 814 l 332 378 l 331 342 q 550 83 331 83 q 724 158 661 83 q 796 381 788 232 l 815 744 q 828 869 821 839 l 724 865 l 728 972 l 1050 972 l 1044 881 m 353 1167 q 419 1265 374 1228 q 513 1303 465 1303 q 564 1295 543 1303 q 608 1274 585 1288 q 645 1256 629 1261 q 682 1250 661 1250 q 730 1269 707 1250 q 771 1321 753 1288 l 844 1282 q 774 1163 818 1201 q 682 1124 729 1124 q 634 1131 656 1124 q 586 1153 613 1139 q 548 1170 564 1164 q 515 1176 532 1176 q 470 1163 494 1176 q 426 1119 446 1150 l 353 1167 z "},"V":{"ha":975,"x_min":35,"x_max":1008,"o":"m 1003 881 q 918 844 954 878 q 849 732 882 811 l 532 -8 l 424 -8 l 142 738 q 110 869 108 831 l 35 865 l 40 972 l 444 972 l 440 881 q 346 818 346 883 q 354 774 346 799 l 465 460 q 500 357 483 408 l 533 260 l 535 260 q 579 368 549 290 l 613 453 l 733 743 q 755 796 736 749 q 796 869 774 843 l 797 871 l 725 867 l 690 865 l 694 972 l 1008 972 l 1003 881 z "},"W":{"ha":1403,"x_min":40,"x_max":1435,"o":"m 1431 881 q 1343 844 1381 878 q 1275 732 1306 810 l 1010 -8 l 889 -8 l 750 489 q 726 591 736 536 q 710 694 717 646 l 708 694 q 658 513 685 588 l 472 -8 l 356 -8 l 146 740 q 114 869 113 833 l 40 865 l 46 972 l 451 972 l 446 881 q 377 867 400 882 q 354 815 354 853 q 358 776 354 800 l 426 460 q 436 414 431 433 q 463 263 454 324 l 464 263 q 510 408 482 324 q 557 547 539 493 l 708 972 l 833 972 l 964 461 q 1003 261 981 397 l 1004 261 l 1068 453 l 1160 743 q 1224 869 1192 836 l 1224 871 l 1151 867 l 1117 865 l 1122 972 l 1435 972 l 1431 881 z "},"X":{"ha":972,"x_min":29,"x_max":949,"o":"m 928 881 q 832 838 881 875 q 724 724 783 800 l 581 542 l 825 208 q 865 152 846 181 q 894 103 885 124 q 949 107 940 107 l 943 0 l 531 0 l 536 92 q 615 126 615 92 q 586 186 615 147 l 456 365 l 454 365 l 324 197 q 242 103 271 129 l 242 101 q 342 107 303 107 l 336 0 l 29 0 l 35 92 q 117 137 75 101 q 214 240 160 172 l 388 456 l 178 739 q 101 869 124 811 q 46 865 110 869 l 51 972 l 471 972 l 465 881 q 378 839 378 881 q 401 786 378 817 l 515 629 l 517 629 l 629 775 q 715 869 676 835 l 715 871 l 644 867 l 611 865 l 617 972 l 933 972 l 928 881 z "},"Y":{"ha":924,"x_min":32,"x_max":950,"o":"m 946 881 q 861 841 897 874 q 781 732 825 808 l 581 385 l 574 228 q 561 103 569 149 q 672 107 606 107 l 667 0 l 264 0 l 269 92 q 327 101 307 93 q 360 133 347 108 q 375 213 372 158 l 381 333 l 146 738 q 113 809 126 771 q 100 869 99 847 l 32 865 l 38 972 l 443 972 l 439 881 q 364 869 392 883 q 336 824 336 854 q 351 774 336 804 l 449 600 q 476 546 451 593 q 511 465 501 499 l 514 465 q 542 518 532 503 l 585 601 l 665 743 q 704 810 681 771 q 744 869 728 850 l 744 871 l 672 867 l 638 865 l 643 972 l 950 972 l 946 881 z "},"Ý":{"ha":924,"x_min":32,"x_max":950,"o":"m 946 881 q 861 841 897 874 q 781 732 825 808 l 581 385 l 574 228 q 561 103 569 149 q 672 107 606 107 l 667 0 l 264 0 l 269 92 q 327 101 307 93 q 360 133 347 108 q 375 213 372 158 l 381 333 l 146 738 q 113 809 126 771 q 100 869 99 847 l 32 865 l 38 972 l 443 972 l 439 881 q 364 869 392 883 q 336 824 336 854 q 351 774 336 804 l 449 600 q 476 546 451 593 q 511 465 501 499 l 514 465 q 542 518 532 503 l 585 601 l 665 743 q 704 810 681 771 q 744 869 728 850 l 744 871 l 672 867 l 638 865 l 643 972 l 950 972 l 946 881 m 433 1136 l 603 1300 q 642 1327 621 1317 q 685 1338 664 1338 q 738 1310 719 1338 q 750 1271 750 1292 q 733 1224 750 1247 q 689 1186 715 1201 l 481 1069 l 433 1136 z "},"Ÿ":{"ha":924,"x_min":32,"x_max":950,"o":"m 946 881 q 861 841 897 874 q 781 732 825 808 l 581 385 l 574 228 q 561 103 569 149 q 672 107 606 107 l 667 0 l 264 0 l 269 92 q 327 101 307 93 q 360 133 347 108 q 375 213 372 158 l 381 333 l 146 738 q 113 809 126 771 q 100 869 99 847 l 32 865 l 38 972 l 443 972 l 439 881 q 364 869 392 883 q 336 824 336 854 q 351 774 336 804 l 449 600 q 476 546 451 593 q 511 465 501 499 l 514 465 q 542 518 532 503 l 585 601 l 665 743 q 704 810 681 771 q 744 869 728 850 l 744 871 l 672 867 l 638 865 l 643 972 l 950 972 l 946 881 m 410 1107 q 351 1135 375 1107 q 326 1206 326 1164 q 356 1285 326 1251 q 424 1318 385 1318 q 483 1290 460 1318 q 506 1219 506 1261 q 478 1140 506 1174 q 410 1107 450 1107 m 653 1107 q 593 1135 617 1107 q 569 1206 569 1164 q 598 1285 569 1251 q 665 1318 626 1318 q 724 1290 701 1318 q 747 1219 747 1261 q 719 1140 747 1174 q 653 1107 692 1107 z "},"Ỵ":{"ha":924,"x_min":32,"x_max":950,"o":"m 946 881 q 861 841 897 874 q 781 732 825 808 l 581 385 l 574 228 q 561 103 569 149 q 672 107 606 107 l 667 0 l 264 0 l 269 92 q 327 101 307 93 q 360 133 347 108 q 375 213 372 158 l 381 333 l 146 738 q 113 809 126 771 q 100 869 99 847 l 32 865 l 38 972 l 443 972 l 439 881 q 364 869 392 883 q 336 824 336 854 q 351 774 336 804 l 449 600 q 476 546 451 593 q 511 465 501 499 l 514 465 q 542 518 532 503 l 585 601 l 665 743 q 704 810 681 771 q 744 869 728 850 l 744 871 l 672 867 l 638 865 l 643 972 l 950 972 l 946 881 m 439 -96 q 494 -120 472 -96 q 517 -181 517 -144 q 492 -247 517 -219 q 431 -275 468 -275 q 372 -251 394 -275 q 350 -192 350 -226 q 377 -124 350 -153 q 439 -96 404 -96 z "},"Ỳ":{"ha":924,"x_min":32,"x_max":950,"o":"m 946 881 q 861 841 897 874 q 781 732 825 808 l 581 385 l 574 228 q 561 103 569 149 q 672 107 606 107 l 667 0 l 264 0 l 269 92 q 327 101 307 93 q 360 133 347 108 q 375 213 372 158 l 381 333 l 146 738 q 113 809 126 771 q 100 869 99 847 l 32 865 l 38 972 l 443 972 l 439 881 q 364 869 392 883 q 336 824 336 854 q 351 774 336 804 l 449 600 q 476 546 451 593 q 511 465 501 499 l 514 465 q 542 518 532 503 l 585 601 l 665 743 q 704 810 681 771 q 744 869 728 850 l 744 871 l 672 867 l 638 865 l 643 972 l 950 972 l 946 881 m 442 1211 q 417 1249 426 1228 q 407 1289 407 1269 q 433 1347 407 1322 q 482 1364 458 1364 q 524 1351 504 1364 q 558 1314 544 1338 l 667 1119 l 600 1063 l 442 1211 z "},"Ỷ":{"ha":924,"x_min":32,"x_max":950,"o":"m 946 881 q 861 841 897 874 q 781 732 825 808 l 581 385 l 574 228 q 561 103 569 149 q 672 107 606 107 l 667 0 l 264 0 l 269 92 q 327 101 307 93 q 360 133 347 108 q 375 213 372 158 l 381 333 l 146 738 q 113 809 126 771 q 100 869 99 847 l 32 865 l 38 972 l 443 972 l 439 881 q 364 869 392 883 q 336 824 336 854 q 351 774 336 804 l 449 600 q 476 546 451 593 q 511 465 501 499 l 514 465 q 542 518 532 503 l 585 601 l 665 743 q 704 810 681 771 q 744 869 728 850 l 744 871 l 672 867 l 638 865 l 643 972 l 950 972 l 946 881 m 561 1315 q 672 1288 632 1315 q 711 1210 711 1260 q 708 1179 711 1190 q 688 1138 703 1154 q 643 1103 672 1122 q 610 1078 621 1088 q 596 1054 599 1068 l 504 1054 q 520 1085 508 1072 q 553 1113 532 1097 q 593 1148 581 1132 q 606 1192 606 1164 q 546 1232 606 1232 q 496 1222 510 1232 q 476 1194 482 1211 q 483 1179 483 1189 q 482 1165 483 1171 q 465 1142 479 1151 q 421 1133 450 1133 q 378 1172 378 1133 q 379 1190 378 1183 q 435 1276 389 1238 q 561 1315 481 1315 z "},"Ỹ":{"ha":924,"x_min":32,"x_max":950,"o":"m 946 881 q 861 841 897 874 q 781 732 825 808 l 581 385 l 574 228 q 561 103 569 149 q 672 107 606 107 l 667 0 l 264 0 l 269 92 q 327 101 307 93 q 360 133 347 108 q 375 213 372 158 l 381 333 l 146 738 q 113 809 126 771 q 100 869 99 847 l 32 865 l 38 972 l 443 972 l 439 881 q 364 869 392 883 q 336 824 336 854 q 351 774 336 804 l 449 600 q 476 546 451 593 q 511 465 501 499 l 514 465 q 542 518 532 503 l 585 601 l 665 743 q 704 810 681 771 q 744 869 728 850 l 744 871 l 672 867 l 638 865 l 643 972 l 950 972 l 946 881 m 290 1167 q 357 1265 311 1228 q 450 1303 403 1303 q 501 1295 481 1303 q 546 1274 522 1288 q 583 1256 567 1261 q 619 1250 599 1250 q 667 1269 644 1250 q 708 1321 690 1288 l 782 1282 q 711 1163 756 1201 q 619 1124 667 1124 q 572 1131 593 1124 q 524 1153 550 1139 q 485 1170 501 1164 q 453 1176 469 1176 q 408 1163 432 1176 q 364 1119 383 1150 l 290 1167 z "},"Z":{"ha":838,"x_min":35,"x_max":806,"o":"m 800 868 l 368 263 q 240 99 296 161 l 239 97 l 493 92 q 624 140 575 90 q 679 297 674 189 l 771 297 l 747 0 l 35 0 l 40 104 l 490 738 q 593 874 547 821 l 594 875 l 356 882 q 224 835 274 885 q 169 676 175 785 l 78 676 l 101 972 l 806 972 l 800 868 z "},"Ź":{"ha":838,"x_min":35,"x_max":806,"o":"m 800 868 l 368 263 q 240 99 296 161 l 239 97 l 493 92 q 624 140 575 90 q 679 297 674 189 l 771 297 l 747 0 l 35 0 l 40 104 l 490 738 q 593 874 547 821 l 594 875 l 356 882 q 224 835 274 885 q 169 676 175 785 l 78 676 l 101 972 l 806 972 l 800 868 m 318 1119 l 442 1314 q 480 1351 457 1338 q 526 1365 503 1365 q 574 1347 554 1365 q 597 1293 597 1325 q 586 1248 597 1271 q 556 1210 575 1225 l 379 1063 l 318 1119 z "},"Ž":{"ha":838,"x_min":35,"x_max":806,"o":"m 800 868 l 368 263 q 240 99 296 161 l 239 97 l 493 92 q 624 140 575 90 q 679 297 674 189 l 771 297 l 747 0 l 35 0 l 40 104 l 490 738 q 593 874 547 821 l 594 875 l 356 882 q 224 835 274 885 q 169 676 175 785 l 78 676 l 101 972 l 806 972 l 800 868 m 467 1069 l 439 1069 l 179 1279 l 218 1336 l 468 1215 l 733 1336 l 761 1281 l 467 1069 z "},"Ż":{"ha":838,"x_min":35,"x_max":806,"o":"m 800 868 l 368 263 q 240 99 296 161 l 239 97 l 493 92 q 624 140 575 90 q 679 297 674 189 l 771 297 l 747 0 l 35 0 l 40 104 l 490 738 q 593 874 547 821 l 594 875 l 356 882 q 224 835 274 885 q 169 676 175 785 l 78 676 l 101 972 l 806 972 l 800 868 m 465 1324 q 528 1297 503 1324 q 553 1229 553 1269 q 525 1155 553 1186 q 456 1124 497 1124 q 391 1151 415 1124 q 367 1218 367 1178 q 397 1292 367 1261 q 465 1324 426 1324 z "},"a":{"ha":763,"x_min":35,"x_max":756,"o":"m 454 710 q 654 681 531 710 l 643 607 q 615 404 640 582 q 590 154 590 226 q 610 114 590 114 q 681 224 650 114 l 756 201 q 692 53 740 122 q 563 -15 644 -15 q 451 111 451 -15 q 457 192 451 160 l 456 192 q 349 31 408 78 q 219 -15 289 -15 q 87 49 139 -15 q 35 238 35 114 q 85 474 35 367 q 230 646 135 582 q 454 710 325 710 m 403 618 q 274 517 322 618 q 225 231 225 417 q 239 141 225 174 q 278 108 253 108 q 365 187 325 108 q 429 382 404 265 q 460 610 454 499 q 403 618 431 618 z "},"á":{"ha":763,"x_min":35,"x_max":756,"o":"m 454 710 q 654 681 531 710 l 643 607 q 615 404 640 582 q 590 154 590 226 q 610 114 590 114 q 681 224 650 114 l 756 201 q 692 53 740 122 q 563 -15 644 -15 q 451 111 451 -15 q 457 192 451 160 l 456 192 q 349 31 408 78 q 219 -15 289 -15 q 87 49 139 -15 q 35 238 35 114 q 85 474 35 367 q 230 646 135 582 q 454 710 325 710 m 403 618 q 274 517 322 618 q 225 231 225 417 q 239 141 225 174 q 278 108 253 108 q 365 187 325 108 q 429 382 404 265 q 460 610 454 499 q 403 618 431 618 m 310 842 l 433 1036 q 472 1074 449 1060 q 518 1088 494 1088 q 565 1069 546 1088 q 589 1015 589 1047 q 578 970 589 993 q 547 932 567 947 l 371 785 l 310 842 z "},"ă":{"ha":763,"x_min":35,"x_max":756,"o":"m 454 710 q 654 681 531 710 l 643 607 q 615 404 640 582 q 590 154 590 226 q 610 114 590 114 q 681 224 650 114 l 756 201 q 692 53 740 122 q 563 -15 644 -15 q 451 111 451 -15 q 457 192 451 160 l 456 192 q 349 31 408 78 q 219 -15 289 -15 q 87 49 139 -15 q 35 238 35 114 q 85 474 35 367 q 230 646 135 582 q 454 710 325 710 m 403 618 q 274 517 322 618 q 225 231 225 417 q 239 141 225 174 q 278 108 253 108 q 365 187 325 108 q 429 382 404 265 q 460 610 454 499 q 403 618 431 618 m 447 835 q 326 881 383 835 q 238 1021 268 926 l 318 1060 q 376 986 344 1014 q 453 958 408 958 q 585 1061 532 958 l 661 1028 q 572 881 625 928 q 447 835 519 835 z "},"ắ":{"ha":763,"x_min":35,"x_max":756,"o":"m 414 997 l 517 1157 q 548 1188 529 1176 q 586 1200 567 1200 q 625 1185 610 1200 q 644 1140 644 1167 q 635 1103 644 1122 q 611 1072 626 1085 l 465 950 l 414 997 m 457 776 q 337 815 394 776 q 249 929 279 853 l 317 963 q 381 901 346 925 q 463 878 415 878 q 606 963 544 878 l 669 935 q 581 815 633 853 q 457 776 528 776 m 454 710 q 654 681 531 710 l 643 607 q 615 404 640 582 q 590 154 590 226 q 610 114 590 114 q 681 224 650 114 l 756 201 q 692 53 740 122 q 563 -15 644 -15 q 451 111 451 -15 q 457 192 451 160 l 456 192 q 349 31 408 78 q 219 -15 289 -15 q 87 49 139 -15 q 35 238 35 114 q 85 474 35 367 q 230 646 135 582 q 454 710 325 710 m 403 618 q 274 517 322 618 q 225 231 225 417 q 239 141 225 174 q 278 108 253 108 q 365 187 325 108 q 429 382 404 265 q 460 610 454 499 q 403 618 431 618 z "},"ặ":{"ha":763,"x_min":35,"x_max":756,"o":"m 454 710 q 654 681 531 710 l 643 607 q 615 404 640 582 q 590 154 590 226 q 610 114 590 114 q 681 224 650 114 l 756 201 q 692 53 740 122 q 563 -15 644 -15 q 451 111 451 -15 q 457 192 451 160 l 456 192 q 349 31 408 78 q 219 -15 289 -15 q 87 49 139 -15 q 35 238 35 114 q 85 474 35 367 q 230 646 135 582 q 454 710 325 710 m 403 618 q 274 517 322 618 q 225 231 225 417 q 239 141 225 174 q 278 108 253 108 q 365 187 325 108 q 429 382 404 265 q 460 610 454 499 q 403 618 431 618 m 360 -96 q 415 -120 393 -96 q 438 -181 438 -144 q 413 -247 438 -219 q 351 -275 389 -275 q 293 -251 315 -275 q 271 -192 271 -226 q 298 -124 271 -153 q 360 -96 325 -96 m 457 776 q 337 815 394 776 q 249 929 279 853 l 317 963 q 381 901 346 925 q 463 878 415 878 q 606 963 544 878 l 669 935 q 581 815 633 853 q 457 776 528 776 z "},"ằ":{"ha":763,"x_min":35,"x_max":756,"o":"m 336 1081 q 307 1146 307 1113 q 329 1193 307 1172 q 369 1207 349 1207 q 404 1196 388 1207 q 432 1165 421 1185 l 522 1006 l 467 958 l 336 1081 m 457 776 q 337 815 394 776 q 249 929 279 853 l 317 963 q 381 901 346 925 q 463 878 415 878 q 606 963 544 878 l 669 935 q 581 815 633 853 q 457 776 528 776 m 454 710 q 654 681 531 710 l 643 607 q 615 404 640 582 q 590 154 590 226 q 610 114 590 114 q 681 224 650 114 l 756 201 q 692 53 740 122 q 563 -15 644 -15 q 451 111 451 -15 q 457 192 451 160 l 456 192 q 349 31 408 78 q 219 -15 289 -15 q 87 49 139 -15 q 35 238 35 114 q 85 474 35 367 q 230 646 135 582 q 454 710 325 710 m 403 618 q 274 517 322 618 q 225 231 225 417 q 239 141 225 174 q 278 108 253 108 q 365 187 325 108 q 429 382 404 265 q 460 610 454 499 q 403 618 431 618 z "},"ẳ":{"ha":763,"x_min":35,"x_max":756,"o":"m 515 1217 q 617 1192 581 1217 q 653 1121 653 1167 q 650 1093 653 1113 q 631 1056 646 1069 q 590 1024 617 1042 q 560 1001 571 1011 q 547 979 550 992 l 464 979 q 478 1006 468 996 q 508 1032 488 1017 q 544 1063 532 1049 q 556 1103 556 1078 q 501 1142 556 1142 q 457 1133 469 1142 q 439 1107 444 1124 q 446 1092 446 1101 l 444 1081 q 428 1060 442 1068 q 389 1051 415 1051 q 349 1088 349 1051 q 350 1103 349 1097 q 401 1182 360 1147 q 515 1217 442 1217 m 457 776 q 337 815 394 776 q 249 929 279 853 l 317 963 q 381 901 346 925 q 463 878 415 878 q 606 963 544 878 l 669 935 q 581 815 633 853 q 457 776 528 776 m 454 710 q 654 681 531 710 l 643 607 q 615 404 640 582 q 590 154 590 226 q 610 114 590 114 q 681 224 650 114 l 756 201 q 692 53 740 122 q 563 -15 644 -15 q 451 111 451 -15 q 457 192 451 160 l 456 192 q 349 31 408 78 q 219 -15 289 -15 q 87 49 139 -15 q 35 238 35 114 q 85 474 35 367 q 230 646 135 582 q 454 710 325 710 m 403 618 q 274 517 322 618 q 225 231 225 417 q 239 141 225 174 q 278 108 253 108 q 365 187 325 108 q 429 382 404 265 q 460 610 454 499 q 403 618 431 618 z "},"ẵ":{"ha":763,"x_min":35,"x_max":756,"o":"m 261 1043 q 316 1124 278 1093 q 393 1156 354 1156 q 436 1149 418 1156 q 472 1131 454 1143 q 503 1116 492 1121 q 532 1111 515 1111 q 572 1127 553 1111 q 606 1171 590 1143 l 667 1138 q 608 1039 646 1071 q 532 1007 571 1007 q 453 1032 497 1007 q 424 1045 439 1039 q 394 1051 408 1051 q 358 1040 378 1051 q 321 1004 338 1029 l 261 1043 m 457 776 q 337 815 394 776 q 249 929 279 853 l 317 963 q 381 901 346 925 q 463 878 415 878 q 606 963 544 878 l 669 935 q 581 815 633 853 q 457 776 528 776 m 454 710 q 654 681 531 710 l 643 607 q 615 404 640 582 q 590 154 590 226 q 610 114 590 114 q 681 224 650 114 l 756 201 q 692 53 740 122 q 563 -15 644 -15 q 451 111 451 -15 q 457 192 451 160 l 456 192 q 349 31 408 78 q 219 -15 289 -15 q 87 49 139 -15 q 35 238 35 114 q 85 474 35 367 q 230 646 135 582 q 454 710 325 710 m 403 618 q 274 517 322 618 q 225 231 225 417 q 239 141 225 174 q 278 108 253 108 q 365 187 325 108 q 429 382 404 265 q 460 610 454 499 q 403 618 431 618 z "},"â":{"ha":763,"x_min":35,"x_max":756,"o":"m 454 710 q 654 681 531 710 l 643 607 q 615 404 640 582 q 590 154 590 226 q 610 114 590 114 q 681 224 650 114 l 756 201 q 692 53 740 122 q 563 -15 644 -15 q 451 111 451 -15 q 457 192 451 160 l 456 192 q 349 31 408 78 q 219 -15 289 -15 q 87 49 139 -15 q 35 238 35 114 q 85 474 35 367 q 230 646 135 582 q 454 710 325 710 m 403 618 q 274 517 322 618 q 225 231 225 417 q 239 141 225 174 q 278 108 253 108 q 365 187 325 108 q 429 382 404 265 q 460 610 454 499 q 403 618 431 618 m 626 788 l 453 932 l 451 932 l 263 793 l 214 858 l 463 1088 l 476 1088 l 688 851 l 626 788 z "},"ấ":{"ha":763,"x_min":35,"x_max":839,"o":"m 608 978 l 711 1138 q 742 1169 724 1157 q 781 1181 761 1181 q 819 1165 804 1181 q 839 1121 839 1147 q 830 1084 839 1103 q 806 1053 821 1065 l 660 931 l 608 978 m 619 778 l 450 861 l 268 779 l 229 843 l 450 990 l 468 990 l 668 850 l 619 778 m 454 710 q 654 681 531 710 l 643 607 q 615 404 640 582 q 590 154 590 226 q 610 114 590 114 q 681 224 650 114 l 756 201 q 692 53 740 122 q 563 -15 644 -15 q 451 111 451 -15 q 457 192 451 160 l 456 192 q 349 31 408 78 q 219 -15 289 -15 q 87 49 139 -15 q 35 238 35 114 q 85 474 35 367 q 230 646 135 582 q 454 710 325 710 m 403 618 q 274 517 322 618 q 225 231 225 417 q 239 141 225 174 q 278 108 253 108 q 365 187 325 108 q 429 382 404 265 q 460 610 454 499 q 403 618 431 618 z "},"ậ":{"ha":763,"x_min":35,"x_max":756,"o":"m 454 710 q 654 681 531 710 l 643 607 q 615 404 640 582 q 590 154 590 226 q 610 114 590 114 q 681 224 650 114 l 756 201 q 692 53 740 122 q 563 -15 644 -15 q 451 111 451 -15 q 457 192 451 160 l 456 192 q 349 31 408 78 q 219 -15 289 -15 q 87 49 139 -15 q 35 238 35 114 q 85 474 35 367 q 230 646 135 582 q 454 710 325 710 m 403 618 q 274 517 322 618 q 225 231 225 417 q 239 141 225 174 q 278 108 253 108 q 365 187 325 108 q 429 382 404 265 q 460 610 454 499 q 403 618 431 618 m 360 -96 q 415 -120 393 -96 q 438 -181 438 -144 q 413 -247 438 -219 q 351 -275 389 -275 q 293 -251 315 -275 q 271 -192 271 -226 q 298 -124 271 -153 q 360 -96 325 -96 m 619 778 l 450 861 l 268 779 l 229 843 l 450 990 l 468 990 l 668 850 l 619 778 z "},"ầ":{"ha":763,"x_min":35,"x_max":756,"o":"m 483 1078 q 454 1143 454 1110 q 476 1190 454 1169 q 517 1204 496 1204 q 551 1193 535 1204 q 579 1163 568 1182 l 669 1003 l 614 956 l 483 1078 m 619 778 l 450 861 l 268 779 l 229 843 l 450 990 l 468 990 l 668 850 l 619 778 m 454 710 q 654 681 531 710 l 643 607 q 615 404 640 582 q 590 154 590 226 q 610 114 590 114 q 681 224 650 114 l 756 201 q 692 53 740 122 q 563 -15 644 -15 q 451 111 451 -15 q 457 192 451 160 l 456 192 q 349 31 408 78 q 219 -15 289 -15 q 87 49 139 -15 q 35 238 35 114 q 85 474 35 367 q 230 646 135 582 q 454 710 325 710 m 403 618 q 274 517 322 618 q 225 231 225 417 q 239 141 225 174 q 278 108 253 108 q 365 187 325 108 q 429 382 404 265 q 460 610 454 499 q 403 618 431 618 z "},"ẩ":{"ha":763,"x_min":35,"x_max":822,"o":"m 699 1160 q 790 1138 757 1160 q 822 1072 822 1115 q 819 1047 822 1064 q 802 1013 815 1026 q 765 985 789 999 q 738 964 747 972 q 726 944 728 956 l 651 944 q 664 969 654 960 q 690 992 674 979 q 719 1015 708 1004 q 732 1043 729 1026 q 735 1058 735 1054 q 686 1092 735 1092 q 644 1083 656 1092 q 628 1060 633 1075 q 634 1049 633 1056 q 633 1036 635 1043 q 618 1017 631 1025 q 582 1010 606 1010 q 554 1018 563 1010 q 546 1043 546 1026 q 547 1057 546 1051 q 594 1128 556 1097 q 699 1160 632 1160 m 619 778 l 450 861 l 268 779 l 229 843 l 450 990 l 468 990 l 668 850 l 619 778 m 454 710 q 654 681 531 710 l 643 607 q 615 404 640 582 q 590 154 590 226 q 610 114 590 114 q 681 224 650 114 l 756 201 q 692 53 740 122 q 563 -15 644 -15 q 451 111 451 -15 q 457 192 451 160 l 456 192 q 349 31 408 78 q 219 -15 289 -15 q 87 49 139 -15 q 35 238 35 114 q 85 474 35 367 q 230 646 135 582 q 454 710 325 710 m 403 618 q 274 517 322 618 q 225 231 225 417 q 239 141 225 174 q 278 108 253 108 q 365 187 325 108 q 429 382 404 265 q 460 610 454 499 q 403 618 431 618 z "},"ẫ":{"ha":763,"x_min":35,"x_max":756,"o":"m 272 1029 q 327 1110 289 1079 q 404 1142 365 1142 q 447 1135 429 1142 q 483 1117 465 1129 q 515 1102 503 1107 q 543 1097 526 1097 q 583 1113 564 1097 q 617 1157 601 1129 l 678 1124 q 619 1025 657 1057 q 543 993 582 993 q 464 1018 508 993 q 435 1031 450 1025 q 406 1038 419 1038 q 369 1026 389 1038 q 332 990 349 1015 l 272 1029 m 619 778 l 450 861 l 268 779 l 229 843 l 450 990 l 468 990 l 668 850 l 619 778 m 454 710 q 654 681 531 710 l 643 607 q 615 404 640 582 q 590 154 590 226 q 610 114 590 114 q 681 224 650 114 l 756 201 q 692 53 740 122 q 563 -15 644 -15 q 451 111 451 -15 q 457 192 451 160 l 456 192 q 349 31 408 78 q 219 -15 289 -15 q 87 49 139 -15 q 35 238 35 114 q 85 474 35 367 q 230 646 135 582 q 454 710 325 710 m 403 618 q 274 517 322 618 q 225 231 225 417 q 239 141 225 174 q 278 108 253 108 q 365 187 325 108 q 429 382 404 265 q 460 610 454 499 q 403 618 431 618 z "},"ä":{"ha":763,"x_min":35,"x_max":756,"o":"m 454 710 q 654 681 531 710 l 643 607 q 615 404 640 582 q 590 154 590 226 q 610 114 590 114 q 681 224 650 114 l 756 201 q 692 53 740 122 q 563 -15 644 -15 q 451 111 451 -15 q 457 192 451 160 l 456 192 q 349 31 408 78 q 219 -15 289 -15 q 87 49 139 -15 q 35 238 35 114 q 85 474 35 367 q 230 646 135 582 q 454 710 325 710 m 403 618 q 274 517 322 618 q 225 231 225 417 q 239 141 225 174 q 278 108 253 108 q 365 187 325 108 q 429 382 404 265 q 460 610 454 499 q 403 618 431 618 m 324 833 q 263 861 288 833 q 239 931 239 889 q 268 1010 239 976 q 336 1043 297 1043 q 396 1015 372 1043 q 419 946 419 986 q 392 866 419 899 q 324 833 364 833 m 565 833 q 505 861 529 833 q 481 931 481 889 q 510 1010 481 976 q 578 1043 539 1043 q 638 1015 614 1043 q 661 946 661 986 q 633 866 661 899 q 565 833 606 833 z "},"ạ":{"ha":763,"x_min":35,"x_max":756,"o":"m 454 710 q 654 681 531 710 l 643 607 q 615 404 640 582 q 590 154 590 226 q 610 114 590 114 q 681 224 650 114 l 756 201 q 692 53 740 122 q 563 -15 644 -15 q 451 111 451 -15 q 457 192 451 160 l 456 192 q 349 31 408 78 q 219 -15 289 -15 q 87 49 139 -15 q 35 238 35 114 q 85 474 35 367 q 230 646 135 582 q 454 710 325 710 m 403 618 q 274 517 322 618 q 225 231 225 417 q 239 141 225 174 q 278 108 253 108 q 365 187 325 108 q 429 382 404 265 q 460 610 454 499 q 403 618 431 618 m 360 -96 q 415 -120 393 -96 q 438 -181 438 -144 q 413 -247 438 -219 q 351 -275 389 -275 q 293 -251 315 -275 q 271 -192 271 -226 q 298 -124 271 -153 q 360 -96 325 -96 z "},"à":{"ha":763,"x_min":35,"x_max":756,"o":"m 454 710 q 654 681 531 710 l 643 607 q 615 404 640 582 q 590 154 590 226 q 610 114 590 114 q 681 224 650 114 l 756 201 q 692 53 740 122 q 563 -15 644 -15 q 451 111 451 -15 q 457 192 451 160 l 456 192 q 349 31 408 78 q 219 -15 289 -15 q 87 49 139 -15 q 35 238 35 114 q 85 474 35 367 q 230 646 135 582 q 454 710 325 710 m 403 618 q 274 517 322 618 q 225 231 225 417 q 239 141 225 174 q 278 108 253 108 q 365 187 325 108 q 429 382 404 265 q 460 610 454 499 q 403 618 431 618 m 343 933 q 318 971 328 950 q 308 1011 308 992 q 335 1069 308 1044 q 383 1086 360 1086 q 426 1073 406 1086 q 460 1036 446 1060 l 568 842 l 501 785 l 343 933 z "},"ả":{"ha":763,"x_min":35,"x_max":756,"o":"m 454 710 q 654 681 531 710 l 643 607 q 615 404 640 582 q 590 154 590 226 q 610 114 590 114 q 681 224 650 114 l 756 201 q 692 53 740 122 q 563 -15 644 -15 q 451 111 451 -15 q 457 192 451 160 l 456 192 q 349 31 408 78 q 219 -15 289 -15 q 87 49 139 -15 q 35 238 35 114 q 85 474 35 367 q 230 646 135 582 q 454 710 325 710 m 403 618 q 274 517 322 618 q 225 231 225 417 q 239 141 225 174 q 278 108 253 108 q 365 187 325 108 q 429 382 404 265 q 460 610 454 499 q 403 618 431 618 m 488 1038 q 598 1010 558 1038 q 638 932 638 982 q 635 901 638 913 q 614 860 629 876 q 569 825 599 844 q 536 800 547 810 q 522 776 525 790 l 431 776 q 447 807 435 794 q 479 835 458 819 q 519 870 507 854 q 532 914 532 886 q 472 954 532 954 q 422 944 436 954 q 403 917 408 933 q 410 901 410 911 q 408 888 410 893 q 391 865 406 874 q 347 856 376 856 q 304 894 304 856 q 306 913 304 906 q 361 999 315 960 q 488 1038 407 1038 z "},"ā":{"ha":763,"x_min":35,"x_max":756,"o":"m 454 710 q 654 681 531 710 l 643 607 q 615 404 640 582 q 590 154 590 226 q 610 114 590 114 q 681 224 650 114 l 756 201 q 692 53 740 122 q 563 -15 644 -15 q 451 111 451 -15 q 457 192 451 160 l 456 192 q 349 31 408 78 q 219 -15 289 -15 q 87 49 139 -15 q 35 238 35 114 q 85 474 35 367 q 230 646 135 582 q 454 710 325 710 m 403 618 q 274 517 322 618 q 225 231 225 417 q 239 141 225 174 q 278 108 253 108 q 365 187 325 108 q 429 382 404 265 q 460 610 454 499 q 403 618 431 618 m 250 874 l 256 1003 l 650 1003 l 644 878 l 250 874 z "},"ą":{"ha":763,"x_min":35,"x_max":756,"o":"m 611 -7 q 502 -85 546 -37 q 458 -182 458 -133 q 474 -220 458 -206 q 515 -235 489 -235 q 604 -194 557 -235 l 650 -254 q 560 -332 610 -303 q 461 -361 510 -361 q 360 -327 399 -361 q 322 -231 322 -293 q 366 -99 322 -162 q 483 13 410 -36 q 451 111 451 44 q 457 192 451 160 l 456 192 q 349 31 408 78 q 219 -15 289 -15 q 87 49 139 -15 q 35 238 35 114 q 85 474 35 367 q 230 646 135 582 q 454 710 325 710 q 654 681 531 710 l 643 607 q 615 404 640 582 q 590 154 590 226 q 610 114 590 114 q 681 224 650 114 l 756 201 q 717 92 746 147 q 643 8 689 38 l 643 7 l 638 4 q 611 -7 621 -4 m 278 108 q 365 187 325 108 q 429 382 404 265 q 460 610 454 499 q 403 618 431 618 q 274 517 322 618 q 225 231 225 417 q 239 141 225 174 q 278 108 253 108 z "},"å":{"ha":763,"x_min":35,"x_max":756,"o":"m 454 710 q 654 681 531 710 l 643 607 q 615 404 640 582 q 590 154 590 226 q 610 114 590 114 q 681 224 650 114 l 756 201 q 692 53 740 122 q 563 -15 644 -15 q 451 111 451 -15 q 457 192 451 160 l 456 192 q 349 31 408 78 q 219 -15 289 -15 q 87 49 139 -15 q 35 238 35 114 q 85 474 35 367 q 230 646 135 582 q 454 710 325 710 m 403 618 q 274 517 322 618 q 225 231 225 417 q 239 141 225 174 q 278 108 253 108 q 365 187 325 108 q 429 382 404 265 q 460 610 454 499 q 403 618 431 618 m 442 782 q 333 823 381 782 q 285 933 285 864 q 309 1019 285 981 q 374 1081 333 1058 q 457 1104 414 1104 q 567 1065 521 1104 q 614 954 614 1026 q 588 865 614 904 q 523 803 563 825 q 442 782 483 782 m 453 865 q 489 888 474 867 q 504 943 504 908 q 490 1002 504 982 q 453 1022 475 1022 q 415 1001 431 1021 q 399 944 399 982 q 413 886 399 907 q 453 865 428 865 z "},"ã":{"ha":763,"x_min":35,"x_max":756,"o":"m 454 710 q 654 681 531 710 l 643 607 q 615 404 640 582 q 590 154 590 226 q 610 114 590 114 q 681 224 650 114 l 756 201 q 692 53 740 122 q 563 -15 644 -15 q 451 111 451 -15 q 457 192 451 160 l 456 192 q 349 31 408 78 q 219 -15 289 -15 q 87 49 139 -15 q 35 238 35 114 q 85 474 35 367 q 230 646 135 582 q 454 710 325 710 m 403 618 q 274 517 322 618 q 225 231 225 417 q 239 141 225 174 q 278 108 253 108 q 365 187 325 108 q 429 382 404 265 q 460 610 454 499 q 403 618 431 618 m 204 889 q 271 988 225 950 q 364 1025 317 1025 q 415 1017 394 1025 q 460 996 436 1010 q 497 978 481 983 q 533 972 513 972 q 581 991 558 972 q 622 1043 604 1010 l 696 1004 q 625 885 669 924 q 533 846 581 846 q 485 853 507 846 q 438 875 464 861 q 399 892 415 886 q 367 899 383 899 q 322 885 346 899 q 278 842 297 872 l 204 889 z "},"æ":{"ha":1015,"x_min":26,"x_max":974,"o":"m 747 710 q 901 666 843 710 q 958 535 958 622 q 853 387 958 433 q 583 317 749 340 q 621 160 583 208 q 711 113 658 113 q 810 142 758 113 q 896 247 861 171 l 974 208 q 841 33 918 81 q 668 -15 764 -15 q 558 10 603 -15 q 476 85 514 35 q 221 -15 375 -12 q 77 33 128 -15 q 26 157 26 81 q 136 337 26 285 q 419 396 246 389 l 424 486 q 406 577 426 543 q 339 611 386 611 q 240 575 276 611 q 254 519 254 557 q 227 459 251 486 q 158 432 203 432 q 97 457 119 432 q 75 519 75 482 q 112 615 75 572 q 214 684 149 658 q 361 710 279 710 q 477 687 432 710 q 539 608 522 664 q 632 683 578 657 q 747 710 686 710 m 732 618 q 633 558 667 618 q 589 406 599 497 q 797 551 797 444 q 777 601 797 585 q 732 618 757 618 m 414 311 q 208 190 208 289 q 233 135 208 156 q 289 115 257 115 q 363 128 324 115 q 425 163 403 140 q 414 311 413 250 z "},"b":{"ha":713,"x_min":21,"x_max":664,"o":"m 313 1049 q 289 821 300 957 l 283 765 l 278 713 q 258 546 268 607 l 260 546 q 359 669 303 629 q 465 710 415 710 q 614 634 564 710 q 664 444 664 558 q 572 113 664 240 q 288 -15 481 -15 q 179 -6 244 -15 q 65 22 114 4 q 86 462 74 260 q 101 713 99 664 l 106 778 q 117 906 108 847 l 21 901 l 26 1007 q 165 1019 113 1007 q 238 1049 218 1032 l 313 1049 m 410 582 q 327 514 365 582 q 265 333 289 446 q 239 89 242 219 q 272 80 250 83 q 307 76 293 76 q 440 191 407 76 q 474 451 474 306 q 456 551 474 521 q 410 582 438 582 z "},"c":{"ha":649,"x_min":38,"x_max":613,"o":"m 379 710 q 540 664 476 710 q 604 543 604 618 q 579 474 604 500 q 513 447 554 447 q 450 474 471 447 q 429 529 429 500 q 443 588 429 561 q 418 609 436 600 q 376 618 400 618 q 261 519 294 618 q 228 306 228 419 q 266 158 228 204 q 356 113 304 113 q 450 144 403 113 q 533 257 497 176 l 613 218 q 481 38 557 90 q 310 -15 406 -14 q 110 62 183 -14 q 38 288 38 138 q 76 481 38 383 q 193 644 115 579 q 379 710 271 710 z "},"ć":{"ha":649,"x_min":38,"x_max":613,"o":"m 379 710 q 540 664 476 710 q 604 543 604 618 q 579 474 604 500 q 513 447 554 447 q 450 474 471 447 q 429 529 429 500 q 443 588 429 561 q 418 609 436 600 q 376 618 400 618 q 261 519 294 618 q 228 306 228 419 q 266 158 228 204 q 356 113 304 113 q 450 144 403 113 q 533 257 497 176 l 613 218 q 481 38 557 90 q 310 -15 406 -14 q 110 62 183 -14 q 38 288 38 138 q 76 481 38 383 q 193 644 115 579 q 379 710 271 710 m 254 842 l 378 1036 q 416 1074 393 1060 q 463 1088 439 1088 q 510 1069 490 1088 q 533 1015 533 1047 q 522 970 533 993 q 492 932 511 947 l 315 785 l 254 842 z "},"č":{"ha":649,"x_min":38,"x_max":628,"o":"m 379 710 q 540 664 476 710 q 604 543 604 618 q 579 474 604 500 q 513 447 554 447 q 450 474 471 447 q 429 529 429 500 q 443 588 429 561 q 418 609 436 600 q 376 618 400 618 q 261 519 294 618 q 228 306 228 419 q 266 158 228 204 q 356 113 304 113 q 450 144 403 113 q 533 257 497 176 l 613 218 q 481 38 557 90 q 310 -15 406 -14 q 110 62 183 -14 q 38 288 38 138 q 76 481 38 383 q 193 644 115 579 q 379 710 271 710 m 375 792 l 161 1026 l 219 1092 l 396 946 l 397 946 l 578 1094 l 628 1032 l 389 792 l 375 792 z "},"ç":{"ha":650,"x_min":38,"x_max":614,"o":"m 379 710 q 540 664 476 710 q 604 543 604 618 q 580 474 604 500 q 514 447 556 447 q 451 474 472 447 q 431 529 431 500 q 443 588 431 564 q 419 609 438 600 q 378 618 401 618 q 261 521 294 618 q 228 310 228 424 q 265 159 228 206 q 356 113 303 113 q 451 144 403 113 q 535 257 499 176 l 614 218 q 491 45 561 99 q 333 -14 421 -8 l 299 -96 l 300 -96 q 347 -81 317 -87 q 397 -74 378 -74 q 467 -98 442 -75 q 493 -165 493 -121 q 392 -298 493 -253 q 168 -360 290 -343 l 161 -287 q 281 -255 228 -275 q 335 -197 335 -235 q 324 -173 335 -181 q 297 -165 314 -165 q 266 -171 282 -165 q 239 -185 250 -176 l 188 -162 l 233 -7 q 90 89 142 15 q 38 288 38 163 q 76 481 38 383 q 193 644 115 579 q 379 710 271 710 z "},"ĉ":{"ha":649,"x_min":38,"x_max":632,"o":"m 379 710 q 540 664 476 710 q 604 543 604 618 q 579 474 604 500 q 513 447 554 447 q 450 474 471 447 q 429 529 429 500 q 443 588 429 561 q 418 609 436 600 q 376 618 400 618 q 261 519 294 618 q 228 306 228 419 q 266 158 228 204 q 356 113 304 113 q 450 144 403 113 q 533 257 497 176 l 613 218 q 481 38 557 90 q 310 -15 406 -14 q 110 62 183 -14 q 38 288 38 138 q 76 481 38 383 q 193 644 115 579 q 379 710 271 710 m 571 788 l 397 932 l 396 932 l 207 793 l 158 858 l 407 1088 l 421 1088 l 632 851 l 571 788 z "},"d":{"ha":783,"x_min":39,"x_max":775,"o":"m 657 604 l 639 442 q 611 154 611 217 q 632 114 611 114 q 699 224 668 114 l 775 201 q 713 52 758 119 q 586 -15 667 -15 q 475 111 475 -15 q 481 194 475 151 l 479 194 q 371 33 433 82 q 244 -15 308 -15 q 91 58 143 -15 q 39 250 39 132 q 135 584 39 458 q 424 710 232 710 q 490 707 463 710 l 497 776 q 513 906 504 858 l 415 901 l 421 1007 q 561 1019 508 1007 q 633 1049 614 1032 l 708 1049 l 657 604 m 406 618 q 265 500 303 618 q 228 251 228 382 q 246 147 228 182 q 296 111 264 111 q 414 250 367 111 q 479 607 461 389 q 447 615 471 611 q 406 618 424 618 z "},"ð":{"ha":725,"x_min":40,"x_max":660,"o":"m 479 1025 l 404 956 q 592 738 524 871 q 660 433 660 604 q 622 209 660 311 q 508 46 585 107 q 318 -15 431 -15 q 119 63 197 -15 q 40 307 40 142 q 74 484 40 394 q 177 634 107 574 q 351 694 247 694 q 429 678 399 694 q 486 632 460 661 l 488 632 q 432 759 481 689 q 336 857 383 829 l 250 758 l 171 832 l 242 911 q 119 957 189 943 l 143 1056 q 326 1004 244 1044 l 403 1097 l 479 1025 m 374 604 q 263 518 299 604 q 226 315 226 432 q 251 140 226 203 q 338 76 276 76 q 444 165 410 76 q 478 361 478 254 q 456 539 478 474 q 374 604 433 604 z "},"ď":{"ha":907,"x_min":39,"x_max":954,"o":"m 657 604 l 639 442 q 611 154 611 217 q 632 114 611 114 q 699 224 668 114 l 775 201 q 713 52 758 119 q 586 -15 667 -15 q 475 111 475 -15 q 481 194 475 151 l 479 194 q 371 33 433 82 q 244 -15 308 -15 q 91 58 143 -15 q 39 250 39 132 q 135 584 39 458 q 424 710 232 710 q 490 707 463 710 l 497 776 q 513 906 504 858 l 415 901 l 421 1007 q 561 1019 508 1007 q 633 1049 614 1032 l 708 1049 l 657 604 m 406 618 q 265 500 303 618 q 228 251 228 382 q 246 147 228 182 q 296 111 264 111 q 414 250 367 111 q 479 607 461 389 q 447 615 471 611 q 406 618 424 618 m 774 794 q 828 981 828 893 q 811 1090 828 1028 l 935 1067 q 954 997 954 1028 q 919 872 954 936 q 828 754 883 808 l 774 794 z "},"đ":{"ha":783,"x_min":39,"x_max":783,"o":"m 657 604 l 639 442 q 611 154 611 217 q 632 114 611 114 q 699 224 668 114 l 775 201 q 713 52 758 119 q 586 -15 667 -15 q 475 111 475 -15 q 481 194 475 151 l 479 194 q 371 33 433 82 q 244 -15 308 -15 q 91 58 143 -15 q 39 250 39 132 q 135 584 39 458 q 424 710 232 710 q 490 707 463 710 l 496 761 l 267 758 l 274 858 l 506 858 q 508 881 507 869 q 513 906 510 893 l 415 901 l 421 1007 q 561 1019 508 1007 q 633 1049 614 1032 l 708 1049 l 686 858 l 783 858 l 778 764 l 675 763 l 657 604 m 296 111 q 414 250 367 111 q 479 607 461 389 q 447 615 471 611 q 406 618 424 618 q 265 500 303 618 q 228 251 228 382 q 246 147 228 182 q 296 111 264 111 z "},"e":{"ha":653,"x_min":38,"x_max":611,"o":"m 389 710 q 541 667 485 710 q 597 535 597 624 q 492 382 597 433 q 228 308 386 331 q 264 156 228 200 q 353 113 300 113 q 450 141 400 113 q 533 246 500 169 l 611 208 q 481 33 556 81 q 311 -15 406 -15 q 110 61 182 -15 q 38 288 38 138 q 76 482 38 385 q 194 644 115 579 q 389 710 274 710 m 374 618 q 276 554 310 618 q 232 399 242 490 q 386 458 338 418 q 435 551 435 497 q 416 601 435 585 q 374 618 397 618 z "},"é":{"ha":653,"x_min":38,"x_max":611,"o":"m 389 710 q 541 667 485 710 q 597 535 597 624 q 492 382 597 433 q 228 308 386 331 q 264 156 228 200 q 353 113 300 113 q 450 141 400 113 q 533 246 500 169 l 611 208 q 481 33 556 81 q 311 -15 406 -15 q 110 61 182 -15 q 38 288 38 138 q 76 482 38 385 q 194 644 115 579 q 389 710 274 710 m 374 618 q 276 554 310 618 q 232 399 242 490 q 386 458 338 418 q 435 551 435 497 q 416 601 435 585 q 374 618 397 618 m 225 842 l 349 1036 q 387 1074 364 1060 q 433 1088 410 1088 q 481 1069 461 1088 q 504 1015 504 1047 q 493 970 504 993 q 463 932 482 947 l 286 785 l 225 842 z "},"ě":{"ha":653,"x_min":38,"x_max":611,"o":"m 389 710 q 541 667 485 710 q 597 535 597 624 q 492 382 597 433 q 228 308 386 331 q 264 156 228 200 q 353 113 300 113 q 450 141 400 113 q 533 246 500 169 l 611 208 q 481 33 556 81 q 311 -15 406 -15 q 110 61 182 -15 q 38 288 38 138 q 76 482 38 385 q 194 644 115 579 q 389 710 274 710 m 374 618 q 276 554 310 618 q 232 399 242 490 q 386 458 338 418 q 435 551 435 497 q 416 601 435 585 q 374 618 397 618 m 346 792 l 132 1026 l 190 1092 l 367 946 l 368 946 l 549 1094 l 599 1032 l 360 792 l 346 792 z "},"ê":{"ha":653,"x_min":38,"x_max":611,"o":"m 389 710 q 541 667 485 710 q 597 535 597 624 q 492 382 597 433 q 228 308 386 331 q 264 156 228 200 q 353 113 300 113 q 450 141 400 113 q 533 246 500 169 l 611 208 q 481 33 556 81 q 311 -15 406 -15 q 110 61 182 -15 q 38 288 38 138 q 76 482 38 385 q 194 644 115 579 q 389 710 274 710 m 374 618 q 276 554 310 618 q 232 399 242 490 q 386 458 338 418 q 435 551 435 497 q 416 601 435 585 q 374 618 397 618 m 542 788 l 368 932 l 367 932 l 178 793 l 129 858 l 378 1088 l 392 1088 l 603 851 l 542 788 z "},"ế":{"ha":653,"x_min":38,"x_max":754,"o":"m 524 978 l 626 1138 q 658 1169 639 1157 q 696 1181 676 1181 q 735 1165 719 1181 q 754 1121 754 1147 q 745 1084 754 1103 q 721 1053 736 1065 l 575 931 l 524 978 m 535 778 l 365 861 l 183 779 l 144 843 l 365 990 l 383 990 l 583 850 l 535 778 m 389 710 q 541 667 485 710 q 597 535 597 624 q 492 382 597 433 q 228 308 386 331 q 264 156 228 200 q 353 113 300 113 q 450 141 400 113 q 533 246 500 169 l 611 208 q 481 33 556 81 q 311 -15 406 -15 q 110 61 182 -15 q 38 288 38 138 q 76 482 38 385 q 194 644 115 579 q 389 710 274 710 m 374 618 q 276 554 310 618 q 232 399 242 490 q 386 458 338 418 q 435 551 435 497 q 416 601 435 585 q 374 618 397 618 z "},"ệ":{"ha":653,"x_min":38,"x_max":611,"o":"m 389 710 q 541 667 485 710 q 597 535 597 624 q 492 382 597 433 q 228 308 386 331 q 264 156 228 200 q 353 113 300 113 q 450 141 400 113 q 533 246 500 169 l 611 208 q 481 33 556 81 q 311 -15 406 -15 q 110 61 182 -15 q 38 288 38 138 q 76 482 38 385 q 194 644 115 579 q 389 710 274 710 m 374 618 q 276 554 310 618 q 232 399 242 490 q 386 458 338 418 q 435 551 435 497 q 416 601 435 585 q 374 618 397 618 m 357 -96 q 413 -120 390 -96 q 435 -181 435 -144 q 410 -247 435 -219 q 349 -275 386 -275 q 290 -251 313 -275 q 268 -192 268 -226 q 295 -124 268 -153 q 357 -96 322 -96 m 535 778 l 365 861 l 183 779 l 144 843 l 365 990 l 383 990 l 583 850 l 535 778 z "},"ề":{"ha":653,"x_min":38,"x_max":611,"o":"m 399 1078 q 369 1143 369 1110 q 392 1190 369 1169 q 432 1204 411 1204 q 467 1193 450 1204 q 494 1163 483 1182 l 585 1003 l 529 956 l 399 1078 m 535 778 l 365 861 l 183 779 l 144 843 l 365 990 l 383 990 l 583 850 l 535 778 m 389 710 q 541 667 485 710 q 597 535 597 624 q 492 382 597 433 q 228 308 386 331 q 264 156 228 200 q 353 113 300 113 q 450 141 400 113 q 533 246 500 169 l 611 208 q 481 33 556 81 q 311 -15 406 -15 q 110 61 182 -15 q 38 288 38 138 q 76 482 38 385 q 194 644 115 579 q 389 710 274 710 m 374 618 q 276 554 310 618 q 232 399 242 490 q 386 458 338 418 q 435 551 435 497 q 416 601 435 585 q 374 618 397 618 z "},"ể":{"ha":653,"x_min":38,"x_max":738,"o":"m 614 1160 q 705 1138 672 1160 q 738 1072 738 1115 q 735 1047 738 1064 q 717 1013 731 1026 q 681 985 704 999 q 653 964 663 972 q 642 944 643 956 l 567 944 q 579 969 569 960 q 606 992 589 979 q 634 1015 624 1004 q 647 1043 644 1026 q 650 1058 650 1054 q 601 1092 650 1092 q 560 1083 571 1092 q 543 1060 549 1075 q 549 1049 549 1056 q 549 1036 550 1043 q 533 1017 546 1025 q 497 1010 521 1010 q 469 1018 478 1010 q 461 1043 461 1026 q 463 1057 461 1051 q 509 1128 471 1097 q 614 1160 547 1160 m 535 778 l 365 861 l 183 779 l 144 843 l 365 990 l 383 990 l 583 850 l 535 778 m 389 710 q 541 667 485 710 q 597 535 597 624 q 492 382 597 433 q 228 308 386 331 q 264 156 228 200 q 353 113 300 113 q 450 141 400 113 q 533 246 500 169 l 611 208 q 481 33 556 81 q 311 -15 406 -15 q 110 61 182 -15 q 38 288 38 138 q 76 482 38 385 q 194 644 115 579 q 389 710 274 710 m 374 618 q 276 554 310 618 q 232 399 242 490 q 386 458 338 418 q 435 551 435 497 q 416 601 435 585 q 374 618 397 618 z "},"ễ":{"ha":653,"x_min":38,"x_max":611,"o":"m 188 1029 q 242 1110 204 1079 q 319 1142 281 1142 q 363 1135 344 1142 q 399 1117 381 1129 q 430 1102 418 1107 q 458 1097 442 1097 q 498 1113 479 1097 q 532 1157 517 1129 l 593 1124 q 535 1025 572 1057 q 458 993 497 993 q 379 1018 424 993 q 350 1031 365 1025 q 321 1038 335 1038 q 284 1026 304 1038 q 247 990 264 1015 l 188 1029 m 535 778 l 365 861 l 183 779 l 144 843 l 365 990 l 383 990 l 583 850 l 535 778 m 389 710 q 541 667 485 710 q 597 535 597 624 q 492 382 597 433 q 228 308 386 331 q 264 156 228 200 q 353 113 300 113 q 450 141 400 113 q 533 246 500 169 l 611 208 q 481 33 556 81 q 311 -15 406 -15 q 110 61 182 -15 q 38 288 38 138 q 76 482 38 385 q 194 644 115 579 q 389 710 274 710 m 374 618 q 276 554 310 618 q 232 399 242 490 q 386 458 338 418 q 435 551 435 497 q 416 601 435 585 q 374 618 397 618 z "},"ë":{"ha":653,"x_min":38,"x_max":611,"o":"m 389 710 q 541 667 485 710 q 597 535 597 624 q 492 382 597 433 q 228 308 386 331 q 264 156 228 200 q 353 113 300 113 q 450 141 400 113 q 533 246 500 169 l 611 208 q 481 33 556 81 q 311 -15 406 -15 q 110 61 182 -15 q 38 288 38 138 q 76 482 38 385 q 194 644 115 579 q 389 710 274 710 m 374 618 q 276 554 310 618 q 232 399 242 490 q 386 458 338 418 q 435 551 435 497 q 416 601 435 585 q 374 618 397 618 m 239 833 q 178 861 203 833 q 154 931 154 889 q 183 1010 154 976 q 251 1043 213 1043 q 311 1015 288 1043 q 335 946 335 986 q 307 866 335 899 q 239 833 279 833 m 481 833 q 420 861 444 833 q 396 931 396 889 q 425 1010 396 976 q 493 1043 454 1043 q 553 1015 529 1043 q 576 946 576 986 q 549 866 576 899 q 481 833 521 833 z "},"ė":{"ha":653,"x_min":38,"x_max":611,"o":"m 389 710 q 541 667 485 710 q 597 535 597 624 q 492 382 597 433 q 228 308 386 331 q 264 156 228 200 q 353 113 300 113 q 450 141 400 113 q 533 246 500 169 l 611 208 q 481 33 556 81 q 311 -15 406 -15 q 110 61 182 -15 q 38 288 38 138 q 76 482 38 385 q 194 644 115 579 q 389 710 274 710 m 374 618 q 276 554 310 618 q 232 399 242 490 q 386 458 338 418 q 435 551 435 497 q 416 601 435 585 q 374 618 397 618 m 372 1046 q 435 1019 410 1046 q 460 951 460 992 q 432 877 460 908 q 363 846 404 846 q 298 873 322 846 q 274 940 274 900 q 303 1015 274 983 q 372 1046 333 1046 z "},"ẹ":{"ha":653,"x_min":38,"x_max":611,"o":"m 389 710 q 541 667 485 710 q 597 535 597 624 q 492 382 597 433 q 228 308 386 331 q 264 156 228 200 q 353 113 300 113 q 450 141 400 113 q 533 246 500 169 l 611 208 q 481 33 556 81 q 311 -15 406 -15 q 110 61 182 -15 q 38 288 38 138 q 76 482 38 385 q 194 644 115 579 q 389 710 274 710 m 374 618 q 276 554 310 618 q 232 399 242 490 q 386 458 338 418 q 435 551 435 497 q 416 601 435 585 q 374 618 397 618 m 357 -96 q 413 -120 390 -96 q 435 -181 435 -144 q 410 -247 435 -219 q 349 -275 386 -275 q 290 -251 313 -275 q 268 -192 268 -226 q 295 -124 268 -153 q 357 -96 322 -96 z "},"è":{"ha":653,"x_min":38,"x_max":611,"o":"m 389 710 q 541 667 485 710 q 597 535 597 624 q 492 382 597 433 q 228 308 386 331 q 264 156 228 200 q 353 113 300 113 q 450 141 400 113 q 533 246 500 169 l 611 208 q 481 33 556 81 q 311 -15 406 -15 q 110 61 182 -15 q 38 288 38 138 q 76 482 38 385 q 194 644 115 579 q 389 710 274 710 m 374 618 q 276 554 310 618 q 232 399 242 490 q 386 458 338 418 q 435 551 435 497 q 416 601 435 585 q 374 618 397 618 m 258 933 q 233 971 243 950 q 224 1011 224 992 q 250 1069 224 1044 q 299 1086 275 1086 q 341 1073 321 1086 q 375 1036 361 1060 l 483 842 l 417 785 l 258 933 z "},"ẻ":{"ha":653,"x_min":38,"x_max":611,"o":"m 389 710 q 541 667 485 710 q 597 535 597 624 q 492 382 597 433 q 228 308 386 331 q 264 156 228 200 q 353 113 300 113 q 450 141 400 113 q 533 246 500 169 l 611 208 q 481 33 556 81 q 311 -15 406 -15 q 110 61 182 -15 q 38 288 38 138 q 76 482 38 385 q 194 644 115 579 q 389 710 274 710 m 374 618 q 276 554 310 618 q 232 399 242 490 q 386 458 338 418 q 435 551 435 497 q 416 601 435 585 q 374 618 397 618 m 403 1038 q 513 1010 474 1038 q 553 932 553 982 q 550 901 553 913 q 529 860 544 876 q 485 825 514 844 q 451 800 463 810 q 438 776 440 790 l 346 776 q 362 807 350 794 q 394 835 374 819 q 435 870 422 854 q 447 914 447 886 q 388 954 447 954 q 338 944 351 954 q 318 917 324 933 q 325 901 325 911 q 324 888 325 893 q 306 865 321 874 q 263 856 292 856 q 219 894 219 856 q 221 913 219 906 q 276 999 231 960 q 403 1038 322 1038 z "},"ē":{"ha":653,"x_min":38,"x_max":611,"o":"m 389 710 q 541 667 485 710 q 597 535 597 624 q 492 382 597 433 q 228 308 386 331 q 264 156 228 200 q 353 113 300 113 q 450 141 400 113 q 533 246 500 169 l 611 208 q 481 33 556 81 q 311 -15 406 -15 q 110 61 182 -15 q 38 288 38 138 q 76 482 38 385 q 194 644 115 579 q 389 710 274 710 m 374 618 q 276 554 310 618 q 232 399 242 490 q 386 458 338 418 q 435 551 435 497 q 416 601 435 585 q 374 618 397 618 m 165 874 l 171 1003 l 565 1003 l 560 878 l 165 874 z "},"ę":{"ha":653,"x_min":38,"x_max":611,"o":"m 436 7 q 306 -74 361 -22 q 251 -182 251 -126 q 267 -220 251 -206 q 308 -235 282 -235 q 397 -194 350 -235 l 443 -254 q 353 -332 403 -303 q 254 -361 303 -361 q 153 -327 192 -361 q 115 -231 115 -293 q 149 -113 115 -169 q 244 -10 183 -57 q 92 83 146 8 q 38 288 38 158 q 76 482 38 385 q 194 644 115 579 q 389 710 274 710 q 541 667 485 710 q 597 535 597 624 q 492 382 597 433 q 228 308 386 331 q 264 156 228 200 q 353 113 300 113 q 450 141 400 113 q 533 246 500 169 l 611 208 q 436 8 543 54 l 436 7 m 374 618 q 276 554 310 618 q 232 399 242 490 q 386 458 338 418 q 435 551 435 497 q 416 601 435 585 q 374 618 397 618 z "},"ẽ":{"ha":653,"x_min":38,"x_max":624,"o":"m 389 710 q 541 667 485 710 q 597 535 597 624 q 492 382 597 433 q 228 308 386 331 q 264 156 228 200 q 353 113 300 113 q 450 141 400 113 q 533 246 500 169 l 611 208 q 481 33 556 81 q 311 -15 406 -15 q 110 61 182 -15 q 38 288 38 138 q 76 482 38 385 q 194 644 115 579 q 389 710 274 710 m 374 618 q 276 554 310 618 q 232 399 242 490 q 386 458 338 418 q 435 551 435 497 q 416 601 435 585 q 374 618 397 618 m 132 889 q 199 988 153 950 q 292 1025 244 1025 q 343 1017 322 1025 q 388 996 364 1010 q 424 978 408 983 q 461 972 440 972 q 509 991 486 972 q 550 1043 532 1010 l 624 1004 q 553 885 597 924 q 461 846 508 846 q 413 853 435 846 q 365 875 392 861 q 327 892 343 886 q 294 899 311 899 q 249 885 274 899 q 206 842 225 872 l 132 889 z "},"f":{"ha":490,"x_min":-160,"x_max":588,"o":"m 457 1056 q 553 1027 518 1056 q 588 953 588 999 q 566 896 588 924 q 504 868 544 868 q 453 889 475 868 q 432 942 432 910 l 433 954 q 415 957 428 957 q 357 885 374 957 q 329 694 340 814 l 508 694 l 499 599 l 324 596 q 301 276 315 458 q 274 -15 286 93 q -28 -376 232 -376 q -125 -349 -90 -376 q -160 -276 -160 -322 q -138 -217 -160 -246 q -76 -189 -117 -189 q -26 -210 -47 -189 q -4 -262 -4 -231 l -6 -275 q 13 -278 3 -278 q 71 -206 54 -278 q 99 -15 88 -135 q 125 339 110 106 l 144 594 l 33 593 l 46 694 l 157 694 q 457 1056 197 1056 z "},"g":{"ha":722,"x_min":26,"x_max":653,"o":"m 440 710 q 538 702 479 710 q 653 681 597 694 q 633 359 646 550 q 608 56 619 168 q 506 -265 589 -154 q 253 -376 424 -376 q 87 -339 147 -376 q 26 -233 26 -301 q 51 -165 26 -197 q 119 -132 75 -132 q 182 -156 157 -132 q 207 -219 207 -181 q 199 -261 207 -243 q 226 -278 204 -271 q 265 -285 247 -285 q 374 -225 342 -285 q 419 -46 406 -165 q 467 192 438 92 l 465 192 q 358 31 417 78 q 229 -15 299 -15 q 92 50 147 -15 q 38 238 38 115 q 81 478 38 371 q 214 647 124 585 q 440 710 304 710 m 407 618 q 270 519 314 617 q 226 231 226 421 q 243 142 226 175 q 286 108 260 108 q 374 187 333 108 q 440 383 414 265 q 471 610 465 500 q 443 615 463 613 q 407 618 424 618 z "},"ğ":{"ha":722,"x_min":26,"x_max":653,"o":"m 440 710 q 538 702 479 710 q 653 681 597 694 q 633 359 646 550 q 608 56 619 168 q 506 -265 589 -154 q 253 -376 424 -376 q 87 -339 147 -376 q 26 -233 26 -301 q 51 -165 26 -197 q 119 -132 75 -132 q 182 -156 157 -132 q 207 -219 207 -181 q 199 -261 207 -243 q 226 -278 204 -271 q 265 -285 247 -285 q 374 -225 342 -285 q 419 -46 406 -165 q 467 192 438 92 l 465 192 q 358 31 417 78 q 229 -15 299 -15 q 92 50 147 -15 q 38 238 38 115 q 81 478 38 371 q 214 647 124 585 q 440 710 304 710 m 407 618 q 270 519 314 617 q 226 231 226 421 q 243 142 226 175 q 286 108 260 108 q 374 187 333 108 q 440 383 414 265 q 471 610 465 500 q 443 615 463 613 q 407 618 424 618 m 415 835 q 294 881 351 835 q 206 1021 236 926 l 286 1060 q 344 986 313 1014 q 421 958 376 958 q 553 1061 500 958 l 629 1028 q 540 881 593 928 q 415 835 488 835 z "},"ĝ":{"ha":722,"x_min":26,"x_max":656,"o":"m 440 710 q 538 702 479 710 q 653 681 597 694 q 633 359 646 550 q 608 56 619 168 q 506 -265 589 -154 q 253 -376 424 -376 q 87 -339 147 -376 q 26 -233 26 -301 q 51 -165 26 -197 q 119 -132 75 -132 q 182 -156 157 -132 q 207 -219 207 -181 q 199 -261 207 -243 q 226 -278 204 -271 q 265 -285 247 -285 q 374 -225 342 -285 q 419 -46 406 -165 q 467 192 438 92 l 465 192 q 358 31 417 78 q 229 -15 299 -15 q 92 50 147 -15 q 38 238 38 115 q 81 478 38 371 q 214 647 124 585 q 440 710 304 710 m 407 618 q 270 519 314 617 q 226 231 226 421 q 243 142 226 175 q 286 108 260 108 q 374 187 333 108 q 440 383 414 265 q 471 610 465 500 q 443 615 463 613 q 407 618 424 618 m 594 788 l 421 932 l 419 932 l 231 793 l 182 858 l 431 1088 l 444 1088 l 656 851 l 594 788 z "},"ģ":{"ha":722,"x_min":26,"x_max":653,"o":"m 556 1093 q 496 983 513 1028 q 479 893 479 939 q 485 825 479 875 l 335 792 q 314 892 310 840 q 365 1019 317 950 q 483 1150 413 1089 l 556 1093 m 440 710 q 538 702 479 710 q 653 681 597 694 q 633 359 646 550 q 608 56 619 168 q 506 -265 589 -154 q 253 -376 424 -376 q 87 -339 147 -376 q 26 -233 26 -301 q 51 -165 26 -197 q 119 -132 75 -132 q 182 -156 157 -132 q 207 -219 207 -181 q 199 -261 207 -243 q 226 -278 204 -271 q 265 -285 247 -285 q 374 -225 342 -285 q 419 -46 406 -165 q 467 192 438 92 l 465 192 q 358 31 417 78 q 229 -15 299 -15 q 92 50 147 -15 q 38 238 38 115 q 81 478 38 371 q 214 647 124 585 q 440 710 304 710 m 407 618 q 270 519 314 617 q 226 231 226 421 q 243 142 226 175 q 286 108 260 108 q 374 187 333 108 q 440 383 414 265 q 471 610 465 500 q 443 615 463 613 q 407 618 424 618 z "},"h":{"ha":797,"x_min":35,"x_max":789,"o":"m 317 972 q 292 765 303 850 q 277 644 288 725 q 253 500 267 564 l 254 500 q 360 663 299 615 q 492 710 422 710 q 619 653 578 710 q 661 496 661 597 q 644 324 661 446 q 626 150 626 210 q 647 114 626 114 q 714 224 683 114 l 789 201 q 753 106 781 156 q 682 20 726 56 q 579 -15 638 -15 q 476 24 506 -15 q 447 142 447 63 q 467 354 447 204 q 476 435 469 378 q 482 524 482 493 q 473 569 482 556 q 443 582 464 582 q 357 503 403 582 q 280 309 311 424 q 249 100 249 194 q 253 0 249 67 l 75 0 q 71 67 71 39 q 84 432 71 226 q 114 776 97 638 q 132 906 121 856 l 35 901 l 40 1007 q 181 1019 128 1007 q 251 1049 233 1032 l 326 1049 l 317 972 z "},"ĥ":{"ha":797,"x_min":7,"x_max":789,"o":"m 317 972 q 292 765 303 850 q 277 644 288 725 q 253 500 267 564 l 254 500 q 360 663 299 615 q 492 710 422 710 q 619 653 578 710 q 661 496 661 597 q 644 324 661 446 q 626 150 626 210 q 647 114 626 114 q 714 224 683 114 l 789 201 q 753 106 781 156 q 682 20 726 56 q 579 -15 638 -15 q 476 24 506 -15 q 447 142 447 63 q 467 354 447 204 q 476 435 469 378 q 482 524 482 493 q 473 569 482 556 q 443 582 464 582 q 357 503 403 582 q 280 309 311 424 q 249 100 249 194 q 253 0 249 67 l 75 0 q 71 67 71 39 q 84 432 71 226 q 114 776 97 638 q 132 906 121 856 l 35 901 l 40 1007 q 181 1019 128 1007 q 251 1049 233 1032 l 326 1049 l 317 972 m 419 1072 l 246 1217 l 244 1217 l 56 1078 l 7 1143 l 256 1372 l 269 1372 l 481 1136 l 419 1072 z "},"i":{"ha":478,"x_min":3,"x_max":465,"o":"m 265 1060 q 338 1028 310 1060 q 365 950 365 997 q 334 866 365 900 q 257 832 303 832 q 183 863 211 832 q 154 939 154 893 q 188 1024 154 988 q 265 1060 222 1060 m 217 710 q 316 668 286 710 q 346 549 346 626 q 335 423 346 507 q 321 315 324 339 q 310 235 318 297 q 301 150 301 174 q 322 114 301 114 q 390 224 360 114 l 465 201 q 429 106 457 156 q 357 20 401 56 q 254 -15 313 -15 q 151 24 181 -15 q 121 142 121 63 q 146 363 121 204 q 167 544 167 499 q 144 581 167 581 q 78 471 108 581 l 3 493 q 40 588 11 538 q 113 674 68 639 q 217 710 158 710 z "},"ı":{"ha":478,"x_min":3,"x_max":465,"o":"m 217 710 q 316 668 286 710 q 346 549 346 626 q 335 423 346 507 q 321 315 324 339 q 310 235 318 297 q 301 150 301 174 q 322 114 301 114 q 390 224 360 114 l 465 201 q 429 106 457 156 q 357 20 401 56 q 254 -15 313 -15 q 151 24 181 -15 q 121 142 121 63 q 146 363 121 204 q 167 544 167 499 q 144 581 167 581 q 78 471 108 581 l 3 493 q 40 588 11 538 q 113 674 68 639 q 217 710 158 710 z "},"í":{"ha":478,"x_min":3,"x_max":465,"o":"m 217 710 q 316 668 286 710 q 346 549 346 626 q 335 423 346 507 q 321 315 324 339 q 310 235 318 297 q 301 150 301 174 q 322 114 301 114 q 390 224 360 114 l 465 201 q 429 106 457 156 q 357 20 401 56 q 254 -15 313 -15 q 151 24 181 -15 q 121 142 121 63 q 146 363 121 204 q 167 544 167 499 q 144 581 167 581 q 78 471 108 581 l 3 493 q 40 588 11 538 q 113 674 68 639 q 217 710 158 710 m 117 842 l 240 1036 q 278 1074 256 1060 q 325 1088 301 1088 q 372 1069 353 1088 q 396 1015 396 1047 q 385 970 396 993 q 354 932 374 947 l 178 785 l 117 842 z "},"î":{"ha":478,"x_min":3,"x_max":468,"o":"m 278 1088 l 468 851 l 407 788 l 250 932 l 249 932 l 78 793 l 29 858 l 264 1088 l 278 1088 m 217 710 q 316 668 286 710 q 346 549 346 626 q 335 423 346 507 q 321 315 324 339 q 310 235 318 297 q 301 150 301 174 q 322 114 301 114 q 390 224 360 114 l 465 201 q 429 106 457 156 q 357 20 401 56 q 254 -15 313 -15 q 151 24 181 -15 q 121 142 121 63 q 146 363 121 204 q 167 544 167 499 q 144 581 167 581 q 78 471 108 581 l 3 493 q 40 588 11 538 q 113 674 68 639 q 217 710 158 710 z "},"ï":{"ha":478,"x_min":3,"x_max":468,"o":"m 217 710 q 316 668 286 710 q 346 549 346 626 q 335 423 346 507 q 321 315 324 339 q 310 235 318 297 q 301 150 301 174 q 322 114 301 114 q 390 224 360 114 l 465 201 q 429 106 457 156 q 357 20 401 56 q 254 -15 313 -15 q 151 24 181 -15 q 121 142 121 63 q 146 363 121 204 q 167 544 167 499 q 144 581 167 581 q 78 471 108 581 l 3 493 q 40 588 11 538 q 113 674 68 639 q 217 710 158 710 m 131 833 q 70 861 94 833 q 46 931 46 889 q 75 1010 46 976 q 143 1043 104 1043 q 203 1015 179 1043 q 226 946 226 986 q 199 866 226 899 q 131 833 171 833 m 372 833 q 312 861 336 833 q 288 931 288 889 q 317 1010 288 976 q 385 1043 346 1043 q 444 1015 421 1043 q 468 946 468 986 q 440 866 468 899 q 372 833 413 833 z "},"ị":{"ha":478,"x_min":3,"x_max":465,"o":"m 265 1060 q 338 1028 310 1060 q 365 950 365 997 q 334 866 365 900 q 257 832 303 832 q 183 863 211 832 q 154 939 154 893 q 188 1024 154 988 q 265 1060 222 1060 m 217 710 q 316 668 286 710 q 346 549 346 626 q 335 423 346 507 q 321 315 324 339 q 310 235 318 297 q 301 150 301 174 q 322 114 301 114 q 390 224 360 114 l 465 201 q 429 106 457 156 q 357 20 401 56 q 254 -15 313 -15 q 151 24 181 -15 q 121 142 121 63 q 146 363 121 204 q 167 544 167 499 q 144 581 167 581 q 78 471 108 581 l 3 493 q 40 588 11 538 q 113 674 68 639 q 217 710 158 710 m 217 -96 q 272 -120 250 -96 q 294 -181 294 -144 q 270 -247 294 -219 q 208 -275 246 -275 q 150 -251 172 -275 q 128 -192 128 -226 q 155 -124 128 -153 q 217 -96 182 -96 z "},"ì":{"ha":478,"x_min":3,"x_max":465,"o":"m 217 710 q 316 668 286 710 q 346 549 346 626 q 335 423 346 507 q 321 315 324 339 q 310 235 318 297 q 301 150 301 174 q 322 114 301 114 q 390 224 360 114 l 465 201 q 429 106 457 156 q 357 20 401 56 q 254 -15 313 -15 q 151 24 181 -15 q 121 142 121 63 q 146 363 121 204 q 167 544 167 499 q 144 581 167 581 q 78 471 108 581 l 3 493 q 40 588 11 538 q 113 674 68 639 q 217 710 158 710 m 150 933 q 125 971 135 950 q 115 1011 115 992 q 142 1069 115 1044 q 190 1086 167 1086 q 233 1073 213 1086 q 267 1036 253 1060 l 375 842 l 308 785 l 150 933 z "},"ỉ":{"ha":478,"x_min":3,"x_max":465,"o":"m 217 710 q 316 668 286 710 q 346 549 346 626 q 335 423 346 507 q 321 315 324 339 q 310 235 318 297 q 301 150 301 174 q 322 114 301 114 q 390 224 360 114 l 465 201 q 429 106 457 156 q 357 20 401 56 q 254 -15 313 -15 q 151 24 181 -15 q 121 142 121 63 q 146 363 121 204 q 167 544 167 499 q 144 581 167 581 q 78 471 108 581 l 3 493 q 40 588 11 538 q 113 674 68 639 q 217 710 158 710 m 294 1038 q 405 1010 365 1038 q 444 932 444 982 q 442 901 444 913 q 421 860 436 876 q 376 825 406 844 q 343 800 354 810 q 329 776 332 790 l 238 776 q 253 807 242 794 q 286 835 265 819 q 326 870 314 854 q 339 914 339 886 q 279 954 339 954 q 229 944 243 954 q 210 917 215 933 q 217 901 217 911 q 215 888 217 893 q 198 865 213 874 q 154 856 183 856 q 111 894 111 856 q 113 913 111 906 q 168 999 122 960 q 294 1038 214 1038 z "},"ī":{"ha":478,"x_min":3,"x_max":465,"o":"m 217 710 q 316 668 286 710 q 346 549 346 626 q 335 423 346 507 q 321 315 324 339 q 310 235 318 297 q 301 150 301 174 q 322 114 301 114 q 390 224 360 114 l 465 201 q 429 106 457 156 q 357 20 401 56 q 254 -15 313 -15 q 151 24 181 -15 q 121 142 121 63 q 146 363 121 204 q 167 544 167 499 q 144 581 167 581 q 78 471 108 581 l 3 493 q 40 588 11 538 q 113 674 68 639 q 217 710 158 710 m 57 874 l 63 1003 l 457 1003 l 451 878 l 57 874 z "},"į":{"ha":478,"x_min":3,"x_max":465,"o":"m 254 846 q 190 873 214 846 q 165 940 165 900 q 195 1015 165 983 q 264 1046 225 1046 q 326 1019 301 1046 q 351 951 351 992 q 324 877 351 908 q 254 846 296 846 m 285 -235 q 374 -194 326 -235 l 419 -254 q 329 -332 379 -303 q 231 -361 279 -361 q 130 -327 168 -361 q 92 -231 92 -293 q 125 -115 92 -169 q 218 -12 158 -60 q 143 35 165 -4 q 121 142 121 74 q 146 363 121 204 q 167 544 167 499 q 144 581 167 581 q 78 471 108 581 l 3 493 q 40 588 11 538 q 113 674 68 639 q 217 710 158 710 q 316 668 286 710 q 346 549 346 626 q 335 423 346 507 q 321 315 324 339 q 310 235 318 297 q 301 150 301 174 q 322 114 301 114 q 390 224 360 114 l 465 201 q 418 86 453 139 l 413 7 q 283 -74 338 -22 q 228 -182 228 -126 q 243 -220 228 -206 q 285 -235 258 -235 z "},"ĩ":{"ha":478,"x_min":3,"x_max":515,"o":"m 217 710 q 316 668 286 710 q 346 549 346 626 q 335 423 346 507 q 321 315 324 339 q 310 235 318 297 q 301 150 301 174 q 322 114 301 114 q 390 224 360 114 l 465 201 q 429 106 457 156 q 357 20 401 56 q 254 -15 313 -15 q 151 24 181 -15 q 121 142 121 63 q 146 363 121 204 q 167 544 167 499 q 144 581 167 581 q 78 471 108 581 l 3 493 q 40 588 11 538 q 113 674 68 639 q 217 710 158 710 m 24 889 q 90 988 44 950 q 183 1025 136 1025 q 235 1017 214 1025 q 279 996 256 1010 q 316 978 300 983 q 353 972 332 972 q 401 991 378 972 q 442 1043 424 1010 l 515 1004 q 444 885 489 924 q 353 846 400 846 q 305 853 326 846 q 257 875 283 861 q 219 892 235 886 q 186 899 203 899 q 141 885 165 899 q 97 842 117 872 l 24 889 z "},"j":{"ha":435,"x_min":-150,"x_max":372,"o":"m 272 1060 q 344 1028 317 1060 q 372 950 372 997 q 341 866 372 900 q 263 832 310 832 q 190 863 218 832 q 161 939 161 893 q 195 1024 161 988 q 272 1060 229 1060 m 218 710 q 353 549 350 710 q 338 186 356 389 q 240 -216 315 -56 q -14 -376 165 -376 q -113 -348 -76 -376 q -150 -274 -150 -319 q -129 -215 -150 -243 q -67 -186 -108 -186 q -15 -208 -37 -186 q 7 -262 7 -229 q 6 -282 7 -275 q 26 -285 11 -285 q 160 201 121 -283 q 174 544 174 406 q 153 581 174 581 q 86 471 117 581 l 10 493 q 46 589 19 539 q 116 674 72 639 q 218 710 160 710 z "},"ĵ":{"ha":451,"x_min":-150,"x_max":468,"o":"m 278 1088 l 468 851 l 407 788 l 250 932 l 249 932 l 78 793 l 29 858 l 264 1088 l 278 1088 m 218 710 q 353 549 350 710 q 338 186 356 389 q 240 -216 315 -56 q -14 -376 165 -376 q -113 -348 -76 -376 q -150 -274 -150 -319 q -129 -215 -150 -243 q -67 -186 -108 -186 q -15 -208 -37 -186 q 7 -262 7 -229 q 6 -282 7 -275 q 26 -285 11 -285 q 160 201 121 -283 q 174 544 174 406 q 153 581 174 581 q 86 471 117 581 l 10 493 q 46 589 19 539 q 116 674 72 639 q 218 710 160 710 z "},"k":{"ha":719,"x_min":42,"x_max":696,"o":"m 324 968 q 292 724 303 824 q 264 543 285 653 l 265 543 q 368 669 308 629 q 488 710 428 710 q 600 671 563 710 q 638 563 638 632 q 611 465 638 515 q 526 371 585 414 q 374 308 467 328 l 374 307 q 453 281 426 306 q 494 219 479 257 q 531 144 518 165 q 561 122 544 122 q 621 218 593 122 l 696 194 q 630 47 678 110 q 514 -15 582 -15 q 413 24 451 -15 q 338 164 375 63 q 300 256 314 231 q 261 275 286 281 q 249 185 253 238 q 244 93 244 133 q 249 0 244 38 l 68 0 q 64 68 64 39 q 79 353 64 133 q 121 776 94 574 q 142 906 128 840 l 42 901 l 47 1007 q 188 1019 135 1007 q 260 1049 240 1032 l 335 1049 l 324 968 m 435 618 q 377 588 410 618 q 315 499 344 557 q 271 364 286 440 q 421 415 371 364 q 471 557 471 465 q 462 601 471 585 q 435 618 453 618 z "},"ķ":{"ha":719,"x_min":42,"x_max":696,"o":"m 324 968 q 292 724 303 824 q 264 543 285 653 l 265 543 q 368 669 308 629 q 488 710 428 710 q 600 671 563 710 q 638 563 638 632 q 611 465 638 515 q 526 371 585 414 q 374 308 467 328 l 374 307 q 453 281 426 306 q 494 219 479 257 q 531 144 518 165 q 561 122 544 122 q 621 218 593 122 l 696 194 q 630 47 678 110 q 514 -15 582 -15 q 413 24 451 -15 q 338 164 375 63 q 300 256 314 231 q 261 275 286 281 q 249 185 253 238 q 244 93 244 133 q 249 0 244 38 l 68 0 q 64 68 64 39 q 79 353 64 133 q 121 776 94 574 q 142 906 128 840 l 42 901 l 47 1007 q 188 1019 135 1007 q 260 1049 240 1032 l 335 1049 l 324 968 m 435 618 q 377 588 410 618 q 315 499 344 557 q 271 364 286 440 q 421 415 371 364 q 471 557 471 465 q 462 601 471 585 q 435 618 453 618 m 183 -351 q 243 -242 226 -286 q 260 -151 260 -197 q 254 -83 260 -133 l 404 -50 q 425 -150 429 -99 q 374 -278 422 -208 q 256 -408 326 -347 l 183 -351 z "},"l":{"ha":421,"x_min":47,"x_max":407,"o":"m 338 1049 q 331 986 335 1019 q 322 917 326 953 q 265 397 285 586 q 244 154 244 208 q 264 114 244 114 q 332 224 301 114 l 407 201 q 334 49 385 113 q 193 -15 283 -15 q 103 17 139 -15 q 68 118 68 50 q 83 378 68 229 q 126 776 97 528 q 144 906 135 850 l 47 901 l 53 1007 q 191 1019 139 1007 q 263 1049 243 1032 l 338 1049 z "},"ĺ":{"ha":421,"x_min":47,"x_max":407,"o":"m 338 1049 q 331 986 335 1019 q 322 917 326 953 q 265 397 285 586 q 244 154 244 208 q 264 114 244 114 q 332 224 301 114 l 407 201 q 334 49 385 113 q 193 -15 283 -15 q 103 17 139 -15 q 68 118 68 50 q 83 378 68 229 q 126 776 97 528 q 144 906 135 850 l 47 901 l 53 1007 q 191 1019 139 1007 q 263 1049 243 1032 l 338 1049 m 71 1121 l 194 1315 q 233 1353 210 1339 q 279 1367 256 1367 q 326 1349 307 1367 q 350 1294 350 1326 q 339 1249 350 1272 q 308 1211 328 1226 l 132 1064 l 71 1121 z "},"ľ":{"ha":421,"x_min":47,"x_max":565,"o":"m 338 1049 q 331 986 335 1019 q 322 917 326 953 q 265 397 285 586 q 244 154 244 208 q 264 114 244 114 q 332 224 301 114 l 407 201 q 334 49 385 113 q 193 -15 283 -15 q 103 17 139 -15 q 68 118 68 50 q 83 378 68 229 q 126 776 97 528 q 144 906 135 850 l 47 901 l 53 1007 q 191 1019 139 1007 q 263 1049 243 1032 l 338 1049 m 385 794 q 439 981 439 893 q 422 1090 439 1028 l 546 1067 q 565 997 565 1028 q 530 872 565 936 q 439 754 494 808 l 385 794 z "},"ļ":{"ha":421,"x_min":47,"x_max":407,"o":"m 338 1049 q 331 986 335 1019 q 322 917 326 953 q 265 397 285 586 q 244 154 244 208 q 264 114 244 114 q 332 224 301 114 l 407 201 q 334 49 385 113 q 193 -15 283 -15 q 103 17 139 -15 q 68 118 68 50 q 83 378 68 229 q 126 776 97 528 q 144 906 135 850 l 47 901 l 53 1007 q 191 1019 139 1007 q 263 1049 243 1032 l 338 1049 m 57 -351 q 117 -242 100 -286 q 133 -151 133 -197 q 128 -83 133 -133 l 278 -50 q 299 -150 303 -99 q 248 -278 296 -208 q 129 -408 200 -347 l 57 -351 z "},"ł":{"ha":451,"x_min":4,"x_max":436,"o":"m 318 615 l 414 682 l 406 533 l 300 460 q 274 154 274 218 q 293 114 274 114 q 361 224 331 114 l 436 201 q 363 49 414 113 q 222 -15 313 -15 q 133 17 168 -15 q 97 118 97 50 q 107 326 97 219 l 4 257 l 13 408 l 121 483 l 156 776 q 174 906 164 850 l 76 901 l 82 1007 q 220 1019 168 1007 q 292 1049 272 1032 l 367 1049 l 318 615 z "},"m":{"ha":1219,"x_min":11,"x_max":1213,"o":"m 915 710 q 1042 653 1001 710 q 1083 496 1083 597 q 1067 324 1083 446 q 1049 150 1049 210 q 1069 114 1049 114 q 1136 224 1106 114 l 1213 201 q 1176 106 1203 156 q 1104 20 1149 56 q 1001 -15 1060 -15 q 899 24 928 -15 q 871 142 871 63 q 890 354 871 204 q 899 435 893 378 q 906 524 906 493 q 897 569 906 556 q 867 582 889 582 q 783 505 826 582 q 710 315 739 428 q 681 107 681 203 q 685 0 681 53 l 506 0 q 501 93 501 39 q 510 265 501 175 q 521 369 519 356 q 533 524 533 482 q 524 569 533 556 q 494 582 515 582 q 408 503 454 582 q 332 310 363 424 q 301 100 301 196 q 306 0 301 67 l 128 0 q 124 67 124 39 q 133 197 124 111 q 154 364 143 282 q 165 455 157 389 q 174 544 174 521 q 154 581 174 581 q 88 471 118 581 l 11 493 q 73 643 29 576 q 197 710 117 710 q 281 681 249 710 q 314 583 314 651 q 310 534 314 557 q 306 500 307 511 l 307 500 q 415 663 351 615 q 549 710 479 710 q 650 668 615 710 q 685 550 685 626 q 682 500 685 518 l 683 500 q 915 710 765 710 z "},"n":{"ha":847,"x_min":11,"x_max":839,"o":"m 544 710 q 671 653 631 710 q 711 496 711 597 q 694 324 711 446 q 676 150 676 210 q 697 114 676 114 q 764 224 733 114 l 839 201 q 803 106 831 156 q 732 20 776 56 q 629 -15 688 -15 q 527 24 556 -15 q 499 142 499 63 q 518 354 499 204 q 527 435 521 378 q 533 524 533 493 q 524 569 533 556 q 494 582 515 582 q 409 503 454 582 q 333 310 364 424 q 303 100 303 196 q 307 0 303 67 l 128 0 q 124 67 124 39 q 133 197 124 111 q 154 364 143 282 q 165 455 157 389 q 174 544 174 521 q 154 581 174 581 q 88 471 118 581 l 11 493 q 73 643 29 576 q 197 710 117 710 q 281 681 249 710 q 314 583 314 651 q 310 534 314 557 q 306 500 307 511 l 307 500 q 544 710 389 710 z "},"ń":{"ha":847,"x_min":11,"x_max":839,"o":"m 544 710 q 671 653 631 710 q 711 496 711 597 q 694 324 711 446 q 676 150 676 210 q 697 114 676 114 q 764 224 733 114 l 839 201 q 803 106 831 156 q 732 20 776 56 q 629 -15 688 -15 q 527 24 556 -15 q 499 142 499 63 q 518 354 499 204 q 527 435 521 378 q 533 524 533 493 q 524 569 533 556 q 494 582 515 582 q 409 503 454 582 q 333 310 364 424 q 303 100 303 196 q 307 0 303 67 l 128 0 q 124 67 124 39 q 133 197 124 111 q 154 364 143 282 q 165 455 157 389 q 174 544 174 521 q 154 581 174 581 q 88 471 118 581 l 11 493 q 73 643 29 576 q 197 710 117 710 q 281 681 249 710 q 314 583 314 651 q 310 534 314 557 q 306 500 307 511 l 307 500 q 544 710 389 710 m 333 842 l 457 1036 q 495 1074 472 1060 q 542 1088 518 1088 q 589 1069 569 1088 q 613 1015 613 1047 q 601 970 613 993 q 571 932 590 947 l 394 785 l 333 842 z "},"ŉ":{"ha":847,"x_min":11,"x_max":839,"o":"m 544 710 q 671 653 631 710 q 711 496 711 597 q 694 324 711 446 q 676 150 676 210 q 697 114 676 114 q 764 224 733 114 l 839 201 q 803 106 831 156 q 732 20 776 56 q 629 -15 688 -15 q 527 24 556 -15 q 499 142 499 63 q 518 354 499 204 q 527 435 521 378 q 533 524 533 493 q 524 569 533 556 q 494 582 515 582 q 409 503 454 582 q 333 310 364 424 q 303 100 303 196 q 307 0 303 67 l 128 0 q 124 67 124 39 q 133 197 124 111 q 154 364 143 282 q 165 455 157 389 q 174 544 174 521 q 154 581 174 581 q 88 471 118 581 l 11 493 q 73 643 29 576 q 197 710 117 710 q 281 681 249 710 q 314 583 314 651 q 310 534 314 557 q 306 500 307 511 l 307 500 q 544 710 389 710 m 229 1242 q 317 1205 288 1242 q 346 1108 346 1168 q 310 956 346 1038 q 203 792 274 875 l 151 831 q 210 931 181 867 q 242 1050 240 996 q 213 1046 228 1046 q 147 1067 174 1046 q 121 1132 121 1089 q 152 1210 121 1178 q 229 1242 183 1242 z "},"ň":{"ha":847,"x_min":11,"x_max":839,"o":"m 544 710 q 671 653 631 710 q 711 496 711 597 q 694 324 711 446 q 676 150 676 210 q 697 114 676 114 q 764 224 733 114 l 839 201 q 803 106 831 156 q 732 20 776 56 q 629 -15 688 -15 q 527 24 556 -15 q 499 142 499 63 q 518 354 499 204 q 527 435 521 378 q 533 524 533 493 q 524 569 533 556 q 494 582 515 582 q 409 503 454 582 q 333 310 364 424 q 303 100 303 196 q 307 0 303 67 l 128 0 q 124 67 124 39 q 133 197 124 111 q 154 364 143 282 q 165 455 157 389 q 174 544 174 521 q 154 581 174 581 q 88 471 118 581 l 11 493 q 73 643 29 576 q 197 710 117 710 q 281 681 249 710 q 314 583 314 651 q 310 534 314 557 q 306 500 307 511 l 307 500 q 544 710 389 710 m 454 792 l 240 1026 l 299 1092 l 475 946 l 476 946 l 657 1094 l 707 1032 l 468 792 l 454 792 z "},"ņ":{"ha":847,"x_min":11,"x_max":839,"o":"m 544 710 q 671 653 631 710 q 711 496 711 597 q 694 324 711 446 q 676 150 676 210 q 697 114 676 114 q 764 224 733 114 l 839 201 q 803 106 831 156 q 732 20 776 56 q 629 -15 688 -15 q 527 24 556 -15 q 499 142 499 63 q 518 354 499 204 q 527 435 521 378 q 533 524 533 493 q 524 569 533 556 q 494 582 515 582 q 409 503 454 582 q 333 310 364 424 q 303 100 303 196 q 307 0 303 67 l 128 0 q 124 67 124 39 q 133 197 124 111 q 154 364 143 282 q 165 455 157 389 q 174 544 174 521 q 154 581 174 581 q 88 471 118 581 l 11 493 q 73 643 29 576 q 197 710 117 710 q 281 681 249 710 q 314 583 314 651 q 310 534 314 557 q 306 500 307 511 l 307 500 q 544 710 389 710 m 271 -351 q 331 -242 314 -286 q 347 -151 347 -197 q 342 -83 347 -133 l 492 -50 q 513 -150 517 -99 q 462 -278 510 -208 q 343 -408 414 -347 l 271 -351 z "},"ñ":{"ha":847,"x_min":11,"x_max":839,"o":"m 544 710 q 671 653 631 710 q 711 496 711 597 q 694 324 711 446 q 676 150 676 210 q 697 114 676 114 q 764 224 733 114 l 839 201 q 803 106 831 156 q 732 20 776 56 q 629 -15 688 -15 q 527 24 556 -15 q 499 142 499 63 q 518 354 499 204 q 527 435 521 378 q 533 524 533 493 q 524 569 533 556 q 494 582 515 582 q 409 503 454 582 q 333 310 364 424 q 303 100 303 196 q 307 0 303 67 l 128 0 q 124 67 124 39 q 133 197 124 111 q 154 364 143 282 q 165 455 157 389 q 174 544 174 521 q 154 581 174 581 q 88 471 118 581 l 11 493 q 73 643 29 576 q 197 710 117 710 q 281 681 249 710 q 314 583 314 651 q 310 534 314 557 q 306 500 307 511 l 307 500 q 544 710 389 710 m 228 889 q 294 988 249 950 q 388 1025 340 1025 q 439 1017 418 1025 q 483 996 460 1010 q 520 978 504 983 q 557 972 536 972 q 605 991 582 972 q 646 1043 628 1010 l 719 1004 q 649 885 693 924 q 557 846 604 846 q 509 853 531 846 q 461 875 488 861 q 423 892 439 886 q 390 899 407 899 q 345 885 369 899 q 301 842 321 872 l 228 889 z "},"o":{"ha":715,"x_min":39,"x_max":667,"o":"m 388 710 q 530 673 467 710 q 630 566 593 636 q 667 400 667 496 q 624 194 667 289 q 503 42 582 99 q 318 -15 424 -15 q 111 74 183 -15 q 39 300 39 163 q 82 505 39 411 q 204 654 125 599 q 388 710 283 710 m 365 618 q 294 581 325 618 q 245 479 263 543 q 228 339 228 415 q 254 156 228 236 q 340 76 281 76 q 417 125 388 76 q 461 244 447 174 q 475 379 475 314 q 450 547 475 475 q 365 618 425 618 z "},"ó":{"ha":715,"x_min":39,"x_max":667,"o":"m 388 710 q 530 673 467 710 q 630 566 593 636 q 667 400 667 496 q 624 194 667 289 q 503 42 582 99 q 318 -15 424 -15 q 111 74 183 -15 q 39 300 39 163 q 82 505 39 411 q 204 654 125 599 q 388 710 283 710 m 365 618 q 294 581 325 618 q 245 479 263 543 q 228 339 228 415 q 254 156 228 236 q 340 76 281 76 q 417 125 388 76 q 461 244 447 174 q 475 379 475 314 q 450 547 475 475 q 365 618 425 618 m 239 842 l 363 1036 q 401 1074 378 1060 q 447 1088 424 1088 q 494 1069 475 1088 q 518 1015 518 1047 q 507 970 518 993 q 476 932 496 947 l 300 785 l 239 842 z "},"ô":{"ha":715,"x_min":39,"x_max":667,"o":"m 388 710 q 530 673 467 710 q 630 566 593 636 q 667 400 667 496 q 624 194 667 289 q 503 42 582 99 q 318 -15 424 -15 q 111 74 183 -15 q 39 300 39 163 q 82 505 39 411 q 204 654 125 599 q 388 710 283 710 m 365 618 q 294 581 325 618 q 245 479 263 543 q 228 339 228 415 q 254 156 228 236 q 340 76 281 76 q 417 125 388 76 q 461 244 447 174 q 475 379 475 314 q 450 547 475 475 q 365 618 425 618 m 556 788 l 382 932 l 381 932 l 192 793 l 143 858 l 392 1088 l 406 1088 l 617 851 l 556 788 z "},"ố":{"ha":715,"x_min":39,"x_max":768,"o":"m 538 978 l 640 1138 q 672 1169 653 1157 q 710 1181 690 1181 q 749 1165 733 1181 q 768 1121 768 1147 q 759 1084 768 1103 q 735 1053 750 1065 l 589 931 l 538 978 m 549 778 l 379 861 l 197 779 l 158 843 l 379 990 l 397 990 l 597 850 l 549 778 m 388 710 q 530 673 467 710 q 630 566 593 636 q 667 400 667 496 q 624 194 667 289 q 503 42 582 99 q 318 -15 424 -15 q 111 74 183 -15 q 39 300 39 163 q 82 505 39 411 q 204 654 125 599 q 388 710 283 710 m 365 618 q 294 581 325 618 q 245 479 263 543 q 228 339 228 415 q 254 156 228 236 q 340 76 281 76 q 417 125 388 76 q 461 244 447 174 q 475 379 475 314 q 450 547 475 475 q 365 618 425 618 z "},"ộ":{"ha":715,"x_min":39,"x_max":667,"o":"m 388 710 q 530 673 467 710 q 630 566 593 636 q 667 400 667 496 q 624 194 667 289 q 503 42 582 99 q 318 -15 424 -15 q 111 74 183 -15 q 39 300 39 163 q 82 505 39 411 q 204 654 125 599 q 388 710 283 710 m 365 618 q 294 581 325 618 q 245 479 263 543 q 228 339 228 415 q 254 156 228 236 q 340 76 281 76 q 417 125 388 76 q 461 244 447 174 q 475 379 475 314 q 450 547 475 475 q 365 618 425 618 m 336 -96 q 392 -120 369 -96 q 414 -181 414 -144 q 390 -247 414 -219 q 328 -275 365 -275 q 269 -251 292 -275 q 247 -192 247 -226 q 274 -124 247 -153 q 336 -96 301 -96 m 549 778 l 379 861 l 197 779 l 158 843 l 379 990 l 397 990 l 597 850 l 549 778 z "},"ồ":{"ha":715,"x_min":39,"x_max":667,"o":"m 413 1078 q 383 1143 383 1110 q 406 1190 383 1169 q 446 1204 425 1204 q 481 1193 464 1204 q 508 1163 497 1182 l 599 1003 l 543 956 l 413 1078 m 549 778 l 379 861 l 197 779 l 158 843 l 379 990 l 397 990 l 597 850 l 549 778 m 388 710 q 530 673 467 710 q 630 566 593 636 q 667 400 667 496 q 624 194 667 289 q 503 42 582 99 q 318 -15 424 -15 q 111 74 183 -15 q 39 300 39 163 q 82 505 39 411 q 204 654 125 599 q 388 710 283 710 m 365 618 q 294 581 325 618 q 245 479 263 543 q 228 339 228 415 q 254 156 228 236 q 340 76 281 76 q 417 125 388 76 q 461 244 447 174 q 475 379 475 314 q 450 547 475 475 q 365 618 425 618 z "},"ổ":{"ha":715,"x_min":39,"x_max":751,"o":"m 628 1160 q 719 1138 686 1160 q 751 1072 751 1115 q 749 1047 751 1064 q 731 1013 744 1026 q 694 985 718 999 q 667 964 676 972 q 656 944 657 956 l 581 944 q 593 969 583 960 q 619 992 603 979 q 648 1015 638 1004 q 661 1043 658 1026 q 664 1058 664 1054 q 615 1092 664 1092 q 574 1083 585 1092 q 557 1060 563 1075 q 563 1049 563 1056 q 563 1036 564 1043 q 547 1017 560 1025 q 511 1010 535 1010 q 483 1018 492 1010 q 475 1043 475 1026 q 476 1057 475 1051 q 523 1128 485 1097 q 628 1160 561 1160 m 549 778 l 379 861 l 197 779 l 158 843 l 379 990 l 397 990 l 597 850 l 549 778 m 388 710 q 530 673 467 710 q 630 566 593 636 q 667 400 667 496 q 624 194 667 289 q 503 42 582 99 q 318 -15 424 -15 q 111 74 183 -15 q 39 300 39 163 q 82 505 39 411 q 204 654 125 599 q 388 710 283 710 m 365 618 q 294 581 325 618 q 245 479 263 543 q 228 339 228 415 q 254 156 228 236 q 340 76 281 76 q 417 125 388 76 q 461 244 447 174 q 475 379 475 314 q 450 547 475 475 q 365 618 425 618 z "},"ỗ":{"ha":715,"x_min":39,"x_max":667,"o":"m 201 1029 q 256 1110 218 1079 q 333 1142 294 1142 q 376 1135 358 1142 q 413 1117 394 1129 q 444 1102 432 1107 q 472 1097 456 1097 q 512 1113 493 1097 q 546 1157 531 1129 l 607 1124 q 549 1025 586 1057 q 472 993 511 993 q 393 1018 438 993 q 364 1031 379 1025 q 335 1038 349 1038 q 298 1026 318 1038 q 261 990 278 1015 l 201 1029 m 549 778 l 379 861 l 197 779 l 158 843 l 379 990 l 397 990 l 597 850 l 549 778 m 388 710 q 530 673 467 710 q 630 566 593 636 q 667 400 667 496 q 624 194 667 289 q 503 42 582 99 q 318 -15 424 -15 q 111 74 183 -15 q 39 300 39 163 q 82 505 39 411 q 204 654 125 599 q 388 710 283 710 m 365 618 q 294 581 325 618 q 245 479 263 543 q 228 339 228 415 q 254 156 228 236 q 340 76 281 76 q 417 125 388 76 q 461 244 447 174 q 475 379 475 314 q 450 547 475 475 q 365 618 425 618 z "},"ö":{"ha":715,"x_min":39,"x_max":667,"o":"m 388 710 q 530 673 467 710 q 630 566 593 636 q 667 400 667 496 q 624 194 667 289 q 503 42 582 99 q 318 -15 424 -15 q 111 74 183 -15 q 39 300 39 163 q 82 505 39 411 q 204 654 125 599 q 388 710 283 710 m 365 618 q 294 581 325 618 q 245 479 263 543 q 228 339 228 415 q 254 156 228 236 q 340 76 281 76 q 417 125 388 76 q 461 244 447 174 q 475 379 475 314 q 450 547 475 475 q 365 618 425 618 m 253 833 q 192 861 217 833 q 168 931 168 889 q 197 1010 168 976 q 265 1043 226 1043 q 325 1015 301 1043 q 349 946 349 986 q 321 866 349 899 q 253 833 293 833 m 494 833 q 434 861 458 833 q 410 931 410 889 q 439 1010 410 976 q 507 1043 468 1043 q 567 1015 543 1043 q 590 946 590 986 q 563 866 590 899 q 494 833 535 833 z "},"ọ":{"ha":715,"x_min":39,"x_max":667,"o":"m 388 710 q 530 673 467 710 q 630 566 593 636 q 667 400 667 496 q 624 194 667 289 q 503 42 582 99 q 318 -15 424 -15 q 111 74 183 -15 q 39 300 39 163 q 82 505 39 411 q 204 654 125 599 q 388 710 283 710 m 365 618 q 294 581 325 618 q 245 479 263 543 q 228 339 228 415 q 254 156 228 236 q 340 76 281 76 q 417 125 388 76 q 461 244 447 174 q 475 379 475 314 q 450 547 475 475 q 365 618 425 618 m 336 -96 q 392 -120 369 -96 q 414 -181 414 -144 q 390 -247 414 -219 q 328 -275 365 -275 q 269 -251 292 -275 q 247 -192 247 -226 q 274 -124 247 -153 q 336 -96 301 -96 z "},"ò":{"ha":715,"x_min":39,"x_max":667,"o":"m 388 710 q 530 673 467 710 q 630 566 593 636 q 667 400 667 496 q 624 194 667 289 q 503 42 582 99 q 318 -15 424 -15 q 111 74 183 -15 q 39 300 39 163 q 82 505 39 411 q 204 654 125 599 q 388 710 283 710 m 365 618 q 294 581 325 618 q 245 479 263 543 q 228 339 228 415 q 254 156 228 236 q 340 76 281 76 q 417 125 388 76 q 461 244 447 174 q 475 379 475 314 q 450 547 475 475 q 365 618 425 618 m 272 933 q 247 971 257 950 q 238 1011 238 992 q 264 1069 238 1044 q 313 1086 289 1086 q 355 1073 335 1086 q 389 1036 375 1060 l 497 842 l 431 785 l 272 933 z "},"ỏ":{"ha":715,"x_min":39,"x_max":667,"o":"m 388 710 q 530 673 467 710 q 630 566 593 636 q 667 400 667 496 q 624 194 667 289 q 503 42 582 99 q 318 -15 424 -15 q 111 74 183 -15 q 39 300 39 163 q 82 505 39 411 q 204 654 125 599 q 388 710 283 710 m 365 618 q 294 581 325 618 q 245 479 263 543 q 228 339 228 415 q 254 156 228 236 q 340 76 281 76 q 417 125 388 76 q 461 244 447 174 q 475 379 475 314 q 450 547 475 475 q 365 618 425 618 m 417 1038 q 527 1010 488 1038 q 567 932 567 982 q 564 901 567 913 q 543 860 558 876 q 499 825 528 844 q 465 800 476 810 q 451 776 454 790 l 360 776 q 376 807 364 794 q 408 835 388 819 q 449 870 436 854 q 461 914 461 886 q 401 954 461 954 q 351 944 365 954 q 332 917 338 933 q 339 901 339 911 q 338 888 339 893 q 320 865 335 874 q 276 856 306 856 q 233 894 233 856 q 235 913 233 906 q 290 999 244 960 q 417 1038 336 1038 z "},"ơ":{"ha":715,"x_min":39,"x_max":725,"o":"m 725 794 q 589 625 701 669 q 667 400 667 540 q 624 194 667 289 q 503 42 582 99 q 318 -15 424 -15 q 111 74 183 -15 q 39 300 39 163 q 82 505 39 411 q 204 654 125 599 q 388 710 283 710 q 493 690 443 710 q 552 726 531 696 q 581 794 574 756 l 725 794 m 475 379 q 450 547 475 475 q 365 618 425 618 q 294 581 325 618 q 245 479 263 543 q 228 339 228 415 q 254 156 228 236 q 340 76 281 76 q 417 125 388 76 q 461 244 447 174 q 475 379 475 314 z "},"ớ":{"ha":715,"x_min":39,"x_max":725,"o":"m 725 794 q 589 625 701 669 q 667 400 667 540 q 624 194 667 289 q 503 42 582 99 q 318 -15 424 -15 q 111 74 183 -15 q 39 300 39 163 q 82 505 39 411 q 204 654 125 599 q 388 710 283 710 q 493 690 443 710 q 552 726 531 696 q 581 794 574 756 l 725 794 m 475 379 q 450 547 475 475 q 365 618 425 618 q 294 581 325 618 q 245 479 263 543 q 228 339 228 415 q 254 156 228 236 q 340 76 281 76 q 417 125 388 76 q 461 244 447 174 q 475 379 475 314 m 251 842 l 375 1036 q 413 1074 390 1060 q 460 1088 436 1088 q 507 1069 488 1088 q 531 1015 531 1047 q 519 970 531 993 q 489 932 508 947 l 313 785 l 251 842 z "},"ợ":{"ha":715,"x_min":39,"x_max":725,"o":"m 725 794 q 589 625 701 669 q 667 400 667 540 q 624 194 667 289 q 503 42 582 99 q 318 -15 424 -15 q 111 74 183 -15 q 39 300 39 163 q 82 505 39 411 q 204 654 125 599 q 388 710 283 710 q 493 690 443 710 q 552 726 531 696 q 581 794 574 756 l 725 794 m 475 379 q 450 547 475 475 q 365 618 425 618 q 294 581 325 618 q 245 479 263 543 q 228 339 228 415 q 254 156 228 236 q 340 76 281 76 q 417 125 388 76 q 461 244 447 174 q 475 379 475 314 m 336 -96 q 392 -120 369 -96 q 414 -181 414 -144 q 390 -247 414 -219 q 328 -275 365 -275 q 269 -251 292 -275 q 247 -192 247 -226 q 274 -124 247 -153 q 336 -96 301 -96 z "},"ờ":{"ha":715,"x_min":39,"x_max":725,"o":"m 725 794 q 589 625 701 669 q 667 400 667 540 q 624 194 667 289 q 503 42 582 99 q 318 -15 424 -15 q 111 74 183 -15 q 39 300 39 163 q 82 505 39 411 q 204 654 125 599 q 388 710 283 710 q 493 690 443 710 q 552 726 531 696 q 581 794 574 756 l 725 794 m 475 379 q 450 547 475 475 q 365 618 425 618 q 294 581 325 618 q 245 479 263 543 q 228 339 228 415 q 254 156 228 236 q 340 76 281 76 q 417 125 388 76 q 461 244 447 174 q 475 379 475 314 m 297 933 q 272 971 282 950 q 263 1011 263 992 q 289 1069 263 1044 q 338 1086 314 1086 q 380 1073 360 1086 q 414 1036 400 1060 l 522 842 l 456 785 l 297 933 z "},"ở":{"ha":715,"x_min":39,"x_max":725,"o":"m 725 794 q 589 625 701 669 q 667 400 667 540 q 624 194 667 289 q 503 42 582 99 q 318 -15 424 -15 q 111 74 183 -15 q 39 300 39 163 q 82 505 39 411 q 204 654 125 599 q 388 710 283 710 q 493 690 443 710 q 552 726 531 696 q 581 794 574 756 l 725 794 m 475 379 q 450 547 475 475 q 365 618 425 618 q 294 581 325 618 q 245 479 263 543 q 228 339 228 415 q 254 156 228 236 q 340 76 281 76 q 417 125 388 76 q 461 244 447 174 q 475 379 475 314 m 417 1038 q 527 1010 488 1038 q 567 932 567 982 q 564 901 567 913 q 543 860 558 876 q 499 825 528 844 q 465 800 476 810 q 451 776 454 790 l 360 776 q 376 807 364 794 q 408 835 388 819 q 449 870 436 854 q 461 914 461 886 q 401 954 461 954 q 351 944 365 954 q 332 917 338 933 q 339 901 339 911 q 338 888 339 893 q 320 865 335 874 q 276 856 306 856 q 233 894 233 856 q 235 913 233 906 q 290 999 244 960 q 417 1038 336 1038 z "},"ỡ":{"ha":715,"x_min":39,"x_max":725,"o":"m 725 794 q 589 625 701 669 q 667 400 667 540 q 624 194 667 289 q 503 42 582 99 q 318 -15 424 -15 q 111 74 183 -15 q 39 300 39 163 q 82 505 39 411 q 204 654 125 599 q 388 710 283 710 q 493 690 443 710 q 552 726 531 696 q 581 794 574 756 l 725 794 m 475 379 q 450 547 475 475 q 365 618 425 618 q 294 581 325 618 q 245 479 263 543 q 228 339 228 415 q 254 156 228 236 q 340 76 281 76 q 417 125 388 76 q 461 244 447 174 q 475 379 475 314 m 146 889 q 213 988 167 950 q 306 1025 258 1025 q 357 1017 336 1025 q 401 996 378 1010 q 438 978 422 983 q 475 972 454 972 q 523 991 500 972 q 564 1043 546 1010 l 638 1004 q 567 885 611 924 q 475 846 522 846 q 427 853 449 846 q 379 875 406 861 q 341 892 357 886 q 308 899 325 899 q 263 885 288 899 q 219 842 239 872 l 146 889 z "},"ő":{"ha":715,"x_min":39,"x_max":667,"o":"m 388 710 q 530 673 467 710 q 630 566 593 636 q 667 400 667 496 q 624 194 667 289 q 503 42 582 99 q 318 -15 424 -15 q 111 74 183 -15 q 39 300 39 163 q 82 505 39 411 q 204 654 125 599 q 388 710 283 710 m 365 618 q 294 581 325 618 q 245 479 263 543 q 228 339 228 415 q 254 156 228 236 q 340 76 281 76 q 417 125 388 76 q 461 244 447 174 q 475 379 475 314 q 450 547 475 475 q 365 618 425 618 m 118 863 l 242 1036 q 290 1084 264 1065 q 340 1103 317 1103 q 374 1090 358 1103 q 393 1049 393 1072 q 379 1002 393 1026 q 344 958 365 978 l 178 806 l 118 863 m 340 872 l 486 1029 q 538 1072 511 1056 q 589 1088 565 1088 q 629 1069 613 1088 q 642 1033 642 1053 q 623 984 642 1010 q 578 940 604 958 l 390 807 l 340 872 z "},"ō":{"ha":715,"x_min":39,"x_max":667,"o":"m 388 710 q 530 673 467 710 q 630 566 593 636 q 667 400 667 496 q 624 194 667 289 q 503 42 582 99 q 318 -15 424 -15 q 111 74 183 -15 q 39 300 39 163 q 82 505 39 411 q 204 654 125 599 q 388 710 283 710 m 365 618 q 294 581 325 618 q 245 479 263 543 q 228 339 228 415 q 254 156 228 236 q 340 76 281 76 q 417 125 388 76 q 461 244 447 174 q 475 379 475 314 q 450 547 475 475 q 365 618 425 618 m 179 874 l 185 1003 l 579 1003 l 574 878 l 179 874 z "},"ø":{"ha":715,"x_min":18,"x_max":693,"o":"m 693 724 l 606 606 q 667 400 667 522 q 624 194 667 289 q 503 42 582 99 q 318 -15 424 -15 q 182 17 239 -15 l 92 -107 l 18 -46 l 107 79 q 39 300 39 164 q 82 505 39 411 q 204 654 125 599 q 388 710 283 710 q 522 676 464 710 l 604 792 l 693 724 m 367 618 q 285 581 321 618 q 230 479 250 543 q 210 339 210 415 q 221 229 210 288 l 453 563 q 367 618 421 618 m 257 132 q 343 76 292 76 q 425 121 392 76 q 475 231 458 165 q 493 360 492 296 q 488 453 493 410 l 257 132 z "},"õ":{"ha":715,"x_min":39,"x_max":667,"o":"m 388 710 q 530 673 467 710 q 630 566 593 636 q 667 400 667 496 q 624 194 667 289 q 503 42 582 99 q 318 -15 424 -15 q 111 74 183 -15 q 39 300 39 163 q 82 505 39 411 q 204 654 125 599 q 388 710 283 710 m 365 618 q 294 581 325 618 q 245 479 263 543 q 228 339 228 415 q 254 156 228 236 q 340 76 281 76 q 417 125 388 76 q 461 244 447 174 q 475 379 475 314 q 450 547 475 475 q 365 618 425 618 m 133 889 q 200 988 154 950 q 293 1025 246 1025 q 344 1017 324 1025 q 389 996 365 1010 q 426 978 410 983 q 463 972 442 972 q 510 991 488 972 q 551 1043 533 1010 l 625 1004 q 554 885 599 924 q 463 846 510 846 q 415 853 436 846 q 367 875 393 861 q 328 892 344 886 q 296 899 313 899 q 251 885 275 899 q 207 842 226 872 l 133 889 z "},"œ":{"ha":1089,"x_min":39,"x_max":1047,"o":"m 824 710 q 976 667 921 710 q 1032 535 1032 624 q 926 382 1032 433 q 664 308 821 331 q 699 156 664 200 q 788 113 735 113 q 884 141 836 113 q 965 247 932 169 l 1047 208 q 917 33 992 82 q 751 -15 843 -15 q 637 15 696 -15 q 542 117 578 44 l 540 117 q 438 14 497 43 q 317 -15 379 -15 q 110 74 181 -15 q 39 300 39 163 q 80 506 39 413 q 198 655 121 600 q 378 710 275 710 q 494 678 439 710 q 583 575 550 647 l 585 575 q 824 710 675 710 m 363 618 q 265 538 301 618 q 229 339 229 457 q 253 155 229 233 q 338 76 278 76 q 437 174 406 76 q 468 383 468 272 q 444 549 468 479 q 363 618 421 618 m 808 618 q 711 555 744 618 q 668 399 678 492 q 821 457 772 418 q 869 549 869 496 q 851 601 869 583 q 808 618 833 618 z "},"p":{"ha":799,"x_min":13,"x_max":751,"o":"m 546 710 q 698 638 644 710 q 751 444 751 565 q 708 206 751 310 q 576 44 664 103 q 360 -15 489 -15 q 315 -14 331 -15 l 310 -128 q 299 -253 306 -197 q 390 -249 343 -249 l 390 -354 l 39 -354 l 39 -264 q 103 -233 86 -264 q 126 -139 121 -203 q 175 540 175 386 q 154 581 175 581 q 88 471 118 581 l 13 493 q 73 642 28 575 q 199 710 118 710 q 281 681 250 710 q 313 583 313 651 q 307 500 313 543 l 308 500 q 417 662 353 614 q 546 710 481 710 m 494 583 q 383 457 426 583 q 321 85 340 331 q 376 76 350 76 q 490 140 449 76 q 547 287 532 203 q 563 443 563 371 q 494 583 563 583 z "},"þ":{"ha":722,"x_min":-35,"x_max":672,"o":"m 285 765 q 260 542 275 671 l 261 542 q 475 710 347 710 q 623 636 574 710 q 672 446 672 563 q 577 111 672 238 q 292 -15 482 -15 q 242 -14 258 -15 l 236 -128 q 225 -253 232 -197 q 318 -249 271 -249 l 318 -354 l -35 -354 l -35 -264 q 31 -233 14 -264 q 53 -139 49 -201 q 73 197 64 46 q 90 481 82 347 q 107 778 96 611 l 110 818 q 117 906 113 881 l 21 901 l 26 1007 q 165 1019 113 1007 q 238 1049 218 1032 l 313 1049 l 285 765 m 408 583 q 302 459 344 583 q 246 86 260 335 q 310 76 282 76 q 448 194 413 76 q 483 444 483 311 q 463 549 483 515 q 408 583 442 583 z "},"q":{"ha":725,"x_min":38,"x_max":683,"o":"m 436 710 q 542 703 478 710 q 660 686 606 696 l 600 -129 q 589 -253 596 -196 q 683 -249 635 -249 l 683 -354 l 332 -354 l 332 -264 q 385 -249 368 -264 q 409 -211 403 -235 q 419 -142 415 -187 l 431 -14 q 449 147 440 97 l 447 147 q 346 19 399 53 q 235 -15 293 -15 q 89 62 140 -15 q 38 249 38 139 q 81 483 38 379 q 213 649 124 588 q 436 710 301 710 m 417 618 q 270 515 313 618 q 228 257 228 411 q 249 146 228 181 q 299 111 271 111 q 380 186 340 111 q 446 378 419 261 q 475 610 472 494 q 449 616 468 614 q 417 618 429 618 z "},"r":{"ha":638,"x_min":11,"x_max":646,"o":"m 529 710 q 614 681 582 710 q 646 604 646 651 q 619 538 646 567 q 553 510 593 510 q 498 530 521 510 q 476 582 475 550 q 399 508 439 586 q 332 313 358 429 q 306 100 306 197 q 310 0 306 67 l 128 0 q 124 67 124 39 q 133 197 124 111 q 154 364 143 282 q 165 455 157 389 q 174 544 174 521 q 154 581 174 581 q 88 471 118 581 l 11 493 q 73 643 29 576 q 197 710 117 710 q 281 681 249 710 q 314 583 314 651 q 300 460 314 535 l 301 460 q 410 656 353 603 q 529 710 468 710 z "},"ŕ":{"ha":638,"x_min":11,"x_max":646,"o":"m 529 710 q 614 681 582 710 q 646 604 646 651 q 619 538 646 567 q 553 510 593 510 q 498 530 521 510 q 476 582 475 550 q 399 508 439 586 q 332 313 358 429 q 306 100 306 197 q 310 0 306 67 l 128 0 q 124 67 124 39 q 133 197 124 111 q 154 364 143 282 q 165 455 157 389 q 174 544 174 521 q 154 581 174 581 q 88 471 118 581 l 11 493 q 73 643 29 576 q 197 710 117 710 q 281 681 249 710 q 314 583 314 651 q 300 460 314 535 l 301 460 q 410 656 353 603 q 529 710 468 710 m 207 842 l 331 1036 q 369 1074 346 1060 q 415 1088 392 1088 q 463 1069 443 1088 q 486 1015 486 1047 q 475 970 486 993 q 444 932 464 947 l 268 785 l 207 842 z "},"ř":{"ha":638,"x_min":11,"x_max":646,"o":"m 529 710 q 614 681 582 710 q 646 604 646 651 q 619 538 646 567 q 553 510 593 510 q 498 530 521 510 q 476 582 475 550 q 399 508 439 586 q 332 313 358 429 q 306 100 306 197 q 310 0 306 67 l 128 0 q 124 67 124 39 q 133 197 124 111 q 154 364 143 282 q 165 455 157 389 q 174 544 174 521 q 154 581 174 581 q 88 471 118 581 l 11 493 q 73 643 29 576 q 197 710 117 710 q 281 681 249 710 q 314 583 314 651 q 300 460 314 535 l 301 460 q 410 656 353 603 q 529 710 468 710 m 328 792 l 114 1026 l 172 1092 l 349 946 l 350 946 l 531 1094 l 581 1032 l 342 792 l 328 792 z "},"ŗ":{"ha":638,"x_min":11,"x_max":646,"o":"m 529 710 q 614 681 582 710 q 646 604 646 651 q 619 538 646 567 q 553 510 593 510 q 498 530 521 510 q 476 582 475 550 q 399 508 439 586 q 332 313 358 429 q 306 100 306 197 q 310 0 306 67 l 128 0 q 124 67 124 39 q 133 197 124 111 q 154 364 143 282 q 165 455 157 389 q 174 544 174 521 q 154 581 174 581 q 88 471 118 581 l 11 493 q 73 643 29 576 q 197 710 117 710 q 281 681 249 710 q 314 583 314 651 q 300 460 314 535 l 301 460 q 410 656 353 603 q 529 710 468 710 m 99 -351 q 158 -242 142 -286 q 175 -151 175 -197 q 169 -83 175 -133 l 319 -50 q 340 -150 344 -99 q 290 -278 338 -208 q 171 -408 242 -347 l 99 -351 z "},"s":{"ha":619,"x_min":29,"x_max":561,"o":"m 324 710 q 435 691 381 710 q 523 638 489 672 q 557 557 557 603 q 533 492 557 519 q 469 465 508 465 q 410 490 433 465 q 386 550 386 515 q 394 590 386 572 q 361 611 383 604 q 318 618 339 618 q 255 598 285 618 q 225 546 225 578 q 234 511 225 525 q 269 479 243 497 q 354 426 294 461 q 463 360 425 386 q 531 292 501 333 q 561 199 561 251 q 524 89 561 138 q 422 13 486 40 q 278 -15 357 -15 q 102 29 175 -15 q 29 146 29 74 q 55 215 29 188 q 118 243 81 243 q 179 218 156 243 q 203 157 203 193 q 194 115 203 136 q 231 89 201 101 q 282 76 260 76 q 365 101 339 76 q 392 163 392 125 q 373 207 392 186 q 321 249 354 228 q 251 289 288 269 q 102 395 144 350 q 60 510 60 440 q 91 606 60 560 q 183 681 122 651 q 324 710 243 710 z "},"ś":{"ha":619,"x_min":29,"x_max":561,"o":"m 324 710 q 435 691 381 710 q 523 638 489 672 q 557 557 557 603 q 533 492 557 519 q 469 465 508 465 q 410 490 433 465 q 386 550 386 515 q 394 590 386 572 q 361 611 383 604 q 318 618 339 618 q 255 598 285 618 q 225 546 225 578 q 234 511 225 525 q 269 479 243 497 q 354 426 294 461 q 463 360 425 386 q 531 292 501 333 q 561 199 561 251 q 524 89 561 138 q 422 13 486 40 q 278 -15 357 -15 q 102 29 175 -15 q 29 146 29 74 q 55 215 29 188 q 118 243 81 243 q 179 218 156 243 q 203 157 203 193 q 194 115 203 136 q 231 89 201 101 q 282 76 260 76 q 365 101 339 76 q 392 163 392 125 q 373 207 392 186 q 321 249 354 228 q 251 289 288 269 q 102 395 144 350 q 60 510 60 440 q 91 606 60 560 q 183 681 122 651 q 324 710 243 710 m 189 842 l 313 1036 q 351 1074 328 1060 q 397 1088 374 1088 q 444 1069 425 1088 q 468 1015 468 1047 q 457 970 468 993 q 426 932 446 947 l 250 785 l 189 842 z "},"š":{"ha":619,"x_min":29,"x_max":563,"o":"m 324 710 q 435 691 381 710 q 523 638 489 672 q 557 557 557 603 q 533 492 557 519 q 469 465 508 465 q 410 490 433 465 q 386 550 386 515 q 394 590 386 572 q 361 611 383 604 q 318 618 339 618 q 255 598 285 618 q 225 546 225 578 q 234 511 225 525 q 269 479 243 497 q 354 426 294 461 q 463 360 425 386 q 531 292 501 333 q 561 199 561 251 q 524 89 561 138 q 422 13 486 40 q 278 -15 357 -15 q 102 29 175 -15 q 29 146 29 74 q 55 215 29 188 q 118 243 81 243 q 179 218 156 243 q 203 157 203 193 q 194 115 203 136 q 231 89 201 101 q 282 76 260 76 q 365 101 339 76 q 392 163 392 125 q 373 207 392 186 q 321 249 354 228 q 251 289 288 269 q 102 395 144 350 q 60 510 60 440 q 91 606 60 560 q 183 681 122 651 q 324 710 243 710 m 310 792 l 96 1026 l 154 1092 l 331 946 l 332 946 l 513 1094 l 563 1032 l 324 792 l 310 792 z "},"ş":{"ha":619,"x_min":29,"x_max":561,"o":"m 561 199 q 493 56 561 114 q 318 -14 425 -3 l 283 -96 l 285 -96 q 331 -81 301 -87 q 381 -74 361 -74 q 450 -97 424 -75 q 476 -162 476 -119 q 376 -297 476 -251 q 151 -360 275 -343 l 144 -287 q 318 -197 318 -256 q 308 -173 318 -181 q 281 -165 297 -165 q 249 -171 265 -165 q 222 -185 233 -176 l 171 -162 l 217 -11 q 82 43 135 1 q 29 146 29 85 q 55 215 29 188 q 118 243 81 243 q 179 218 156 243 q 203 157 203 193 q 194 115 203 136 q 231 89 201 101 q 282 76 260 76 q 365 101 339 76 q 392 163 392 125 q 373 207 392 186 q 321 249 354 228 q 251 289 288 269 q 102 395 144 350 q 60 510 60 440 q 91 606 60 560 q 183 681 122 651 q 324 710 243 710 q 435 691 381 710 q 523 638 489 672 q 557 557 557 603 q 533 492 557 519 q 469 465 508 465 q 410 490 433 465 q 386 550 386 515 q 394 590 386 572 q 361 611 383 604 q 318 618 339 618 q 255 598 285 618 q 225 546 225 578 q 234 511 225 525 q 269 479 243 497 q 354 426 294 461 q 463 360 425 386 q 531 292 501 333 q 561 199 561 251 z "},"ŝ":{"ha":619,"x_min":29,"x_max":567,"o":"m 324 710 q 435 691 381 710 q 523 638 489 672 q 557 557 557 603 q 533 492 557 519 q 469 465 508 465 q 410 490 433 465 q 386 550 386 515 q 394 590 386 572 q 361 611 383 604 q 318 618 339 618 q 255 598 285 618 q 225 546 225 578 q 234 511 225 525 q 269 479 243 497 q 354 426 294 461 q 463 360 425 386 q 531 292 501 333 q 561 199 561 251 q 524 89 561 138 q 422 13 486 40 q 278 -15 357 -15 q 102 29 175 -15 q 29 146 29 74 q 55 215 29 188 q 118 243 81 243 q 179 218 156 243 q 203 157 203 193 q 194 115 203 136 q 231 89 201 101 q 282 76 260 76 q 365 101 339 76 q 392 163 392 125 q 373 207 392 186 q 321 249 354 228 q 251 289 288 269 q 102 395 144 350 q 60 510 60 440 q 91 606 60 560 q 183 681 122 651 q 324 710 243 710 m 506 788 l 332 932 l 331 932 l 142 793 l 93 858 l 342 1088 l 356 1088 l 567 851 l 506 788 z "},"ș":{"ha":619,"x_min":29,"x_max":561,"o":"m 324 710 q 435 691 381 710 q 523 638 489 672 q 557 557 557 603 q 533 492 557 519 q 469 465 508 465 q 410 490 433 465 q 386 550 386 515 q 394 590 386 572 q 361 611 383 604 q 318 618 339 618 q 255 598 285 618 q 225 546 225 578 q 234 511 225 525 q 269 479 243 497 q 354 426 294 461 q 463 360 425 386 q 531 292 501 333 q 561 199 561 251 q 524 89 561 138 q 422 13 486 40 q 278 -15 357 -15 q 102 29 175 -15 q 29 146 29 74 q 55 215 29 188 q 118 243 81 243 q 179 218 156 243 q 203 157 203 193 q 194 115 203 136 q 231 89 201 101 q 282 76 260 76 q 365 101 339 76 q 392 163 392 125 q 373 207 392 186 q 321 249 354 228 q 251 289 288 269 q 102 395 144 350 q 60 510 60 440 q 91 606 60 560 q 183 681 122 651 q 324 710 243 710 m 128 -351 q 188 -242 171 -286 q 204 -151 204 -197 q 199 -83 204 -133 l 349 -50 q 369 -150 374 -99 q 319 -278 367 -208 q 200 -408 271 -347 l 128 -351 z "},"ß":{"ha":932,"x_min":-160,"x_max":900,"o":"m 529 1056 q 743 1013 650 1056 q 836 858 836 969 q 797 747 836 792 q 683 651 757 703 q 611 594 633 615 q 589 546 589 572 q 594 511 589 525 q 623 477 599 497 q 700 426 647 457 q 804 361 765 389 q 872 292 843 333 q 900 199 900 251 q 865 88 900 138 q 766 12 829 39 q 624 -15 703 -15 q 451 29 521 -15 q 382 146 382 74 q 408 215 382 188 q 471 243 433 243 q 532 218 508 243 q 556 157 556 193 q 547 115 556 136 q 581 89 554 101 q 628 76 607 76 q 731 163 731 76 q 699 222 731 197 q 597 289 668 247 q 462 387 501 343 q 422 482 422 431 q 457 583 422 542 q 560 675 492 624 q 652 756 622 722 q 682 839 682 790 q 643 930 682 904 q 549 956 604 956 q 385 865 432 956 q 326 632 339 774 l 274 -15 q -28 -376 232 -376 q -125 -349 -90 -376 q -160 -276 -160 -322 q -138 -217 -160 -246 q -76 -189 -117 -189 q -26 -210 -47 -189 q -4 -262 -4 -231 l -6 -275 q 13 -278 3 -278 q 71 -206 54 -278 q 99 -15 88 -135 q 125 339 110 106 l 144 594 l 33 593 l 46 694 l 157 694 q 283 973 179 890 q 529 1056 388 1056 z "},"t":{"ha":549,"x_min":25,"x_max":542,"o":"m 324 694 l 497 694 l 489 599 l 315 596 q 290 370 301 486 q 279 210 279 254 q 292 145 279 172 q 346 118 306 118 q 408 137 372 118 q 471 206 443 156 l 542 161 q 428 29 496 74 q 281 -15 360 -15 q 139 46 176 -15 q 104 210 101 107 q 136 594 113 386 l 25 593 l 38 694 q 187 750 135 694 q 258 904 239 806 l 351 904 l 324 694 z "},"ť":{"ha":549,"x_min":25,"x_max":607,"o":"m 324 694 l 497 694 l 489 599 l 315 596 q 290 370 301 486 q 279 210 279 254 q 292 145 279 172 q 346 118 306 118 q 408 137 372 118 q 471 206 443 156 l 542 161 q 428 29 496 74 q 281 -15 360 -15 q 139 46 176 -15 q 104 210 101 107 q 136 594 113 386 l 25 593 l 38 694 q 187 750 135 694 q 258 904 239 806 l 351 904 l 324 694 m 426 854 q 481 1040 481 953 q 464 1150 481 1088 l 588 1126 q 607 1057 607 1088 q 572 932 607 996 q 481 814 536 868 l 426 854 z "},"ţ":{"ha":549,"x_min":25,"x_max":542,"o":"m 542 161 q 440 38 500 82 q 310 -14 379 -7 l 275 -96 l 276 -96 q 323 -81 293 -87 q 372 -74 353 -74 q 442 -97 415 -75 q 468 -162 468 -119 q 367 -297 468 -251 q 143 -360 267 -343 l 136 -287 q 310 -197 310 -256 q 299 -173 310 -181 q 272 -165 289 -165 q 241 -171 257 -165 q 214 -185 225 -176 l 163 -162 l 210 -6 q 124 72 147 15 q 104 210 101 128 q 136 594 113 386 l 25 593 l 38 694 q 187 750 135 694 q 258 904 239 806 l 351 904 l 324 694 l 497 694 l 489 599 l 315 596 q 290 370 301 486 q 279 210 279 254 q 292 145 279 172 q 346 118 306 118 q 408 137 372 118 q 471 206 443 156 l 542 161 z "},"ț":{"ha":549,"x_min":25,"x_max":542,"o":"m 324 694 l 497 694 l 489 599 l 315 596 q 290 370 301 486 q 279 210 279 254 q 292 145 279 172 q 346 118 306 118 q 408 137 372 118 q 471 206 443 156 l 542 161 q 428 29 496 74 q 281 -15 360 -15 q 139 46 176 -15 q 104 210 101 107 q 136 594 113 386 l 25 593 l 38 694 q 187 750 135 694 q 258 904 239 806 l 351 904 l 324 694 m 119 -351 q 179 -242 163 -286 q 196 -151 196 -197 q 190 -83 196 -133 l 340 -50 q 361 -150 365 -99 q 310 -278 358 -208 q 192 -408 263 -347 l 119 -351 z "},"u":{"ha":831,"x_min":-1,"x_max":817,"o":"m 208 710 q 311 671 282 710 q 340 553 340 632 q 321 340 340 490 q 304 171 304 207 q 313 126 304 140 q 343 113 322 113 q 424 192 381 113 q 498 385 468 271 q 528 594 528 500 q 524 694 528 661 l 703 694 q 707 628 707 656 q 697 498 707 583 q 676 331 688 413 q 656 150 656 179 q 675 114 656 114 q 742 224 711 114 l 817 201 q 757 52 801 119 q 632 -15 713 -15 q 548 14 581 -15 q 515 111 515 43 q 518 162 515 136 q 522 201 521 188 l 521 201 q 293 -15 439 -15 q 167 41 207 -15 q 126 199 126 97 q 135 301 126 243 q 144 372 143 360 q 163 544 163 486 q 140 581 163 581 q 74 471 104 581 l -1 493 q 34 589 7 539 q 106 674 61 639 q 208 710 150 710 z "},"ú":{"ha":831,"x_min":-1,"x_max":817,"o":"m 208 710 q 311 671 282 710 q 340 553 340 632 q 321 340 340 490 q 304 171 304 207 q 313 126 304 140 q 343 113 322 113 q 424 192 381 113 q 498 385 468 271 q 528 594 528 500 q 524 694 528 661 l 703 694 q 707 628 707 656 q 697 498 707 583 q 676 331 688 413 q 656 150 656 179 q 675 114 656 114 q 742 224 711 114 l 817 201 q 757 52 801 119 q 632 -15 713 -15 q 548 14 581 -15 q 515 111 515 43 q 518 162 515 136 q 522 201 521 188 l 521 201 q 293 -15 439 -15 q 167 41 207 -15 q 126 199 126 97 q 135 301 126 243 q 144 372 143 360 q 163 544 163 486 q 140 581 163 581 q 74 471 104 581 l -1 493 q 34 589 7 539 q 106 674 61 639 q 208 710 150 710 m 297 842 l 421 1036 q 459 1074 436 1060 q 506 1088 482 1088 q 553 1069 533 1088 q 576 1015 576 1047 q 565 970 576 993 q 535 932 554 947 l 358 785 l 297 842 z "},"ŭ":{"ha":831,"x_min":-1,"x_max":817,"o":"m 208 710 q 311 671 282 710 q 340 553 340 632 q 321 340 340 490 q 304 171 304 207 q 313 126 304 140 q 343 113 322 113 q 424 192 381 113 q 498 385 468 271 q 528 594 528 500 q 524 694 528 661 l 703 694 q 707 628 707 656 q 697 498 707 583 q 676 331 688 413 q 656 150 656 179 q 675 114 656 114 q 742 224 711 114 l 817 201 q 757 52 801 119 q 632 -15 713 -15 q 548 14 581 -15 q 515 111 515 43 q 518 162 515 136 q 522 201 521 188 l 521 201 q 293 -15 439 -15 q 167 41 207 -15 q 126 199 126 97 q 135 301 126 243 q 144 372 143 360 q 163 544 163 486 q 140 581 163 581 q 74 471 104 581 l -1 493 q 34 589 7 539 q 106 674 61 639 q 208 710 150 710 m 435 835 q 313 881 371 835 q 225 1021 256 926 l 306 1060 q 364 986 332 1014 q 440 958 396 958 q 572 1061 519 958 l 649 1028 q 560 881 613 928 q 435 835 507 835 z "}}}
